%TF.GenerationSoftware,KiCad,Pcbnew,(5.1.6)-1*%
%TF.CreationDate,2020-07-24T23:52:19+08:00*%
%TF.ProjectId,USB_UART_CP2102,5553425f-5541-4525-945f-435032313032,rev?*%
%TF.SameCoordinates,Original*%
%TF.FileFunction,Copper,L1,Top*%
%TF.FilePolarity,Positive*%
%FSLAX46Y46*%
G04 Gerber Fmt 4.6, Leading zero omitted, Abs format (unit mm)*
G04 Created by KiCad (PCBNEW (5.1.6)-1) date 2020-07-24 23:52:19*
%MOMM*%
%LPD*%
G01*
G04 APERTURE LIST*
%TA.AperFunction,ComponentPad*%
%ADD10C,3.000000*%
%TD*%
%TA.AperFunction,ComponentPad*%
%ADD11O,1.700000X1.700000*%
%TD*%
%TA.AperFunction,ComponentPad*%
%ADD12R,1.700000X1.700000*%
%TD*%
%TA.AperFunction,ComponentPad*%
%ADD13O,2.000000X0.900000*%
%TD*%
%TA.AperFunction,ComponentPad*%
%ADD14O,1.700000X0.900000*%
%TD*%
%TA.AperFunction,SMDPad,CuDef*%
%ADD15R,1.160000X0.300000*%
%TD*%
%TA.AperFunction,SMDPad,CuDef*%
%ADD16R,1.160000X0.600000*%
%TD*%
%TA.AperFunction,SMDPad,CuDef*%
%ADD17R,3.800000X2.000000*%
%TD*%
%TA.AperFunction,SMDPad,CuDef*%
%ADD18R,1.500000X2.000000*%
%TD*%
%TA.AperFunction,SMDPad,CuDef*%
%ADD19R,3.350000X3.350000*%
%TD*%
%TA.AperFunction,ViaPad*%
%ADD20C,1.200000*%
%TD*%
%TA.AperFunction,ViaPad*%
%ADD21C,0.600000*%
%TD*%
%TA.AperFunction,Conductor*%
%ADD22C,0.250000*%
%TD*%
%TA.AperFunction,Conductor*%
%ADD23C,0.254000*%
%TD*%
%TA.AperFunction,Conductor*%
%ADD24C,0.025400*%
%TD*%
G04 APERTURE END LIST*
D10*
%TO.P,REF\u002A\u002A,1*%
%TO.N,GND*%
X121905000Y-96157000D03*
%TD*%
%TO.P,R8,2*%
%TO.N,+3V3*%
%TA.AperFunction,SMDPad,CuDef*%
G36*
G01*
X125843750Y-95999000D02*
X126356250Y-95999000D01*
G75*
G02*
X126575000Y-96217750I0J-218750D01*
G01*
X126575000Y-96655250D01*
G75*
G02*
X126356250Y-96874000I-218750J0D01*
G01*
X125843750Y-96874000D01*
G75*
G02*
X125625000Y-96655250I0J218750D01*
G01*
X125625000Y-96217750D01*
G75*
G02*
X125843750Y-95999000I218750J0D01*
G01*
G37*
%TD.AperFunction*%
%TO.P,R8,1*%
%TO.N,Net-(D3-Pad2)*%
%TA.AperFunction,SMDPad,CuDef*%
G36*
G01*
X125843750Y-94424000D02*
X126356250Y-94424000D01*
G75*
G02*
X126575000Y-94642750I0J-218750D01*
G01*
X126575000Y-95080250D01*
G75*
G02*
X126356250Y-95299000I-218750J0D01*
G01*
X125843750Y-95299000D01*
G75*
G02*
X125625000Y-95080250I0J218750D01*
G01*
X125625000Y-94642750D01*
G75*
G02*
X125843750Y-94424000I218750J0D01*
G01*
G37*
%TD.AperFunction*%
%TD*%
%TO.P,D3,2*%
%TO.N,Net-(D3-Pad2)*%
%TA.AperFunction,SMDPad,CuDef*%
G36*
G01*
X124756250Y-95299000D02*
X124243750Y-95299000D01*
G75*
G02*
X124025000Y-95080250I0J218750D01*
G01*
X124025000Y-94642750D01*
G75*
G02*
X124243750Y-94424000I218750J0D01*
G01*
X124756250Y-94424000D01*
G75*
G02*
X124975000Y-94642750I0J-218750D01*
G01*
X124975000Y-95080250D01*
G75*
G02*
X124756250Y-95299000I-218750J0D01*
G01*
G37*
%TD.AperFunction*%
%TO.P,D3,1*%
%TO.N,GND*%
%TA.AperFunction,SMDPad,CuDef*%
G36*
G01*
X124756250Y-96874000D02*
X124243750Y-96874000D01*
G75*
G02*
X124025000Y-96655250I0J218750D01*
G01*
X124025000Y-96217750D01*
G75*
G02*
X124243750Y-95999000I218750J0D01*
G01*
X124756250Y-95999000D01*
G75*
G02*
X124975000Y-96217750I0J-218750D01*
G01*
X124975000Y-96655250D01*
G75*
G02*
X124756250Y-96874000I-218750J0D01*
G01*
G37*
%TD.AperFunction*%
%TD*%
D11*
%TO.P,J2,5*%
%TO.N,VBUS*%
X146924000Y-106952000D03*
%TO.P,J2,4*%
%TO.N,+3V3*%
X146924000Y-104412000D03*
%TO.P,J2,3*%
%TO.N,GND*%
X146924000Y-101872000D03*
%TO.P,J2,2*%
%TO.N,/TXD*%
X146924000Y-99332000D03*
D12*
%TO.P,J2,1*%
%TO.N,/RXD*%
X146924000Y-96792000D03*
%TD*%
%TO.P,C1,2*%
%TO.N,GND*%
%TA.AperFunction,SMDPad,CuDef*%
G36*
G01*
X127956250Y-95299000D02*
X127443750Y-95299000D01*
G75*
G02*
X127225000Y-95080250I0J218750D01*
G01*
X127225000Y-94642750D01*
G75*
G02*
X127443750Y-94424000I218750J0D01*
G01*
X127956250Y-94424000D01*
G75*
G02*
X128175000Y-94642750I0J-218750D01*
G01*
X128175000Y-95080250D01*
G75*
G02*
X127956250Y-95299000I-218750J0D01*
G01*
G37*
%TD.AperFunction*%
%TO.P,C1,1*%
%TO.N,VBUS*%
%TA.AperFunction,SMDPad,CuDef*%
G36*
G01*
X127956250Y-96874000D02*
X127443750Y-96874000D01*
G75*
G02*
X127225000Y-96655250I0J218750D01*
G01*
X127225000Y-96217750D01*
G75*
G02*
X127443750Y-95999000I218750J0D01*
G01*
X127956250Y-95999000D01*
G75*
G02*
X128175000Y-96217750I0J-218750D01*
G01*
X128175000Y-96655250D01*
G75*
G02*
X127956250Y-96874000I-218750J0D01*
G01*
G37*
%TD.AperFunction*%
%TD*%
%TO.P,C2,1*%
%TO.N,VBUS*%
%TA.AperFunction,SMDPad,CuDef*%
G36*
G01*
X129556250Y-96874000D02*
X129043750Y-96874000D01*
G75*
G02*
X128825000Y-96655250I0J218750D01*
G01*
X128825000Y-96217750D01*
G75*
G02*
X129043750Y-95999000I218750J0D01*
G01*
X129556250Y-95999000D01*
G75*
G02*
X129775000Y-96217750I0J-218750D01*
G01*
X129775000Y-96655250D01*
G75*
G02*
X129556250Y-96874000I-218750J0D01*
G01*
G37*
%TD.AperFunction*%
%TO.P,C2,2*%
%TO.N,GND*%
%TA.AperFunction,SMDPad,CuDef*%
G36*
G01*
X129556250Y-95299000D02*
X129043750Y-95299000D01*
G75*
G02*
X128825000Y-95080250I0J218750D01*
G01*
X128825000Y-94642750D01*
G75*
G02*
X129043750Y-94424000I218750J0D01*
G01*
X129556250Y-94424000D01*
G75*
G02*
X129775000Y-94642750I0J-218750D01*
G01*
X129775000Y-95080250D01*
G75*
G02*
X129556250Y-95299000I-218750J0D01*
G01*
G37*
%TD.AperFunction*%
%TD*%
%TO.P,C3,2*%
%TO.N,GND*%
%TA.AperFunction,SMDPad,CuDef*%
G36*
G01*
X135043750Y-105850000D02*
X135556250Y-105850000D01*
G75*
G02*
X135775000Y-106068750I0J-218750D01*
G01*
X135775000Y-106506250D01*
G75*
G02*
X135556250Y-106725000I-218750J0D01*
G01*
X135043750Y-106725000D01*
G75*
G02*
X134825000Y-106506250I0J218750D01*
G01*
X134825000Y-106068750D01*
G75*
G02*
X135043750Y-105850000I218750J0D01*
G01*
G37*
%TD.AperFunction*%
%TO.P,C3,1*%
%TO.N,+3V3*%
%TA.AperFunction,SMDPad,CuDef*%
G36*
G01*
X135043750Y-104275000D02*
X135556250Y-104275000D01*
G75*
G02*
X135775000Y-104493750I0J-218750D01*
G01*
X135775000Y-104931250D01*
G75*
G02*
X135556250Y-105150000I-218750J0D01*
G01*
X135043750Y-105150000D01*
G75*
G02*
X134825000Y-104931250I0J218750D01*
G01*
X134825000Y-104493750D01*
G75*
G02*
X135043750Y-104275000I218750J0D01*
G01*
G37*
%TD.AperFunction*%
%TD*%
%TO.P,C4,1*%
%TO.N,+3V3*%
%TA.AperFunction,SMDPad,CuDef*%
G36*
G01*
X133443750Y-104275000D02*
X133956250Y-104275000D01*
G75*
G02*
X134175000Y-104493750I0J-218750D01*
G01*
X134175000Y-104931250D01*
G75*
G02*
X133956250Y-105150000I-218750J0D01*
G01*
X133443750Y-105150000D01*
G75*
G02*
X133225000Y-104931250I0J218750D01*
G01*
X133225000Y-104493750D01*
G75*
G02*
X133443750Y-104275000I218750J0D01*
G01*
G37*
%TD.AperFunction*%
%TO.P,C4,2*%
%TO.N,GND*%
%TA.AperFunction,SMDPad,CuDef*%
G36*
G01*
X133443750Y-105850000D02*
X133956250Y-105850000D01*
G75*
G02*
X134175000Y-106068750I0J-218750D01*
G01*
X134175000Y-106506250D01*
G75*
G02*
X133956250Y-106725000I-218750J0D01*
G01*
X133443750Y-106725000D01*
G75*
G02*
X133225000Y-106506250I0J218750D01*
G01*
X133225000Y-106068750D01*
G75*
G02*
X133443750Y-105850000I218750J0D01*
G01*
G37*
%TD.AperFunction*%
%TD*%
%TO.P,C5,1*%
%TO.N,VDD*%
%TA.AperFunction,SMDPad,CuDef*%
G36*
G01*
X137156250Y-106712500D02*
X136643750Y-106712500D01*
G75*
G02*
X136425000Y-106493750I0J218750D01*
G01*
X136425000Y-106056250D01*
G75*
G02*
X136643750Y-105837500I218750J0D01*
G01*
X137156250Y-105837500D01*
G75*
G02*
X137375000Y-106056250I0J-218750D01*
G01*
X137375000Y-106493750D01*
G75*
G02*
X137156250Y-106712500I-218750J0D01*
G01*
G37*
%TD.AperFunction*%
%TO.P,C5,2*%
%TO.N,GND*%
%TA.AperFunction,SMDPad,CuDef*%
G36*
G01*
X137156250Y-105137500D02*
X136643750Y-105137500D01*
G75*
G02*
X136425000Y-104918750I0J218750D01*
G01*
X136425000Y-104481250D01*
G75*
G02*
X136643750Y-104262500I218750J0D01*
G01*
X137156250Y-104262500D01*
G75*
G02*
X137375000Y-104481250I0J-218750D01*
G01*
X137375000Y-104918750D01*
G75*
G02*
X137156250Y-105137500I-218750J0D01*
G01*
G37*
%TD.AperFunction*%
%TD*%
%TO.P,D1,2*%
%TO.N,Net-(D1-Pad2)*%
%TA.AperFunction,SMDPad,CuDef*%
G36*
G01*
X141621000Y-99443750D02*
X141621000Y-99956250D01*
G75*
G02*
X141402250Y-100175000I-218750J0D01*
G01*
X140964750Y-100175000D01*
G75*
G02*
X140746000Y-99956250I0J218750D01*
G01*
X140746000Y-99443750D01*
G75*
G02*
X140964750Y-99225000I218750J0D01*
G01*
X141402250Y-99225000D01*
G75*
G02*
X141621000Y-99443750I0J-218750D01*
G01*
G37*
%TD.AperFunction*%
%TO.P,D1,1*%
%TO.N,Net-(D1-Pad1)*%
%TA.AperFunction,SMDPad,CuDef*%
G36*
G01*
X143196000Y-99443750D02*
X143196000Y-99956250D01*
G75*
G02*
X142977250Y-100175000I-218750J0D01*
G01*
X142539750Y-100175000D01*
G75*
G02*
X142321000Y-99956250I0J218750D01*
G01*
X142321000Y-99443750D01*
G75*
G02*
X142539750Y-99225000I218750J0D01*
G01*
X142977250Y-99225000D01*
G75*
G02*
X143196000Y-99443750I0J-218750D01*
G01*
G37*
%TD.AperFunction*%
%TD*%
%TO.P,D2,1*%
%TO.N,/RXD*%
%TA.AperFunction,SMDPad,CuDef*%
G36*
G01*
X143196000Y-96027750D02*
X143196000Y-96540250D01*
G75*
G02*
X142977250Y-96759000I-218750J0D01*
G01*
X142539750Y-96759000D01*
G75*
G02*
X142321000Y-96540250I0J218750D01*
G01*
X142321000Y-96027750D01*
G75*
G02*
X142539750Y-95809000I218750J0D01*
G01*
X142977250Y-95809000D01*
G75*
G02*
X143196000Y-96027750I0J-218750D01*
G01*
G37*
%TD.AperFunction*%
%TO.P,D2,2*%
%TO.N,Net-(D2-Pad2)*%
%TA.AperFunction,SMDPad,CuDef*%
G36*
G01*
X141621000Y-96027750D02*
X141621000Y-96540250D01*
G75*
G02*
X141402250Y-96759000I-218750J0D01*
G01*
X140964750Y-96759000D01*
G75*
G02*
X140746000Y-96540250I0J218750D01*
G01*
X140746000Y-96027750D01*
G75*
G02*
X140964750Y-95809000I218750J0D01*
G01*
X141402250Y-95809000D01*
G75*
G02*
X141621000Y-96027750I0J-218750D01*
G01*
G37*
%TD.AperFunction*%
%TD*%
D13*
%TO.P,J1,S1*%
%TO.N,GND*%
X126883000Y-99580000D03*
X126883000Y-108220000D03*
D14*
X122713000Y-99580000D03*
X122713000Y-108220000D03*
D15*
%TO.P,J1,B7*%
%TO.N,Net-(J1-PadA7)*%
X127463000Y-103150000D03*
%TO.P,J1,A6*%
%TO.N,Net-(J1-PadA6)*%
X127463000Y-103650000D03*
%TO.P,J1,A7*%
%TO.N,Net-(J1-PadA7)*%
X127463000Y-104150000D03*
%TO.P,J1,B8*%
%TO.N,Net-(J1-PadB8)*%
X127463000Y-102150000D03*
%TO.P,J1,A5*%
%TO.N,Net-(J1-PadA5)*%
X127463000Y-102650000D03*
%TO.P,J1,A8*%
%TO.N,Net-(J1-PadA8)*%
X127463000Y-105150000D03*
%TO.P,J1,B6*%
%TO.N,Net-(J1-PadA6)*%
X127463000Y-104650000D03*
%TO.P,J1,B5*%
%TO.N,Net-(J1-PadB5)*%
X127463000Y-105650000D03*
D16*
%TO.P,J1,A4*%
%TO.N,VBUS*%
X127463000Y-101500000D03*
%TO.P,J1,B9*%
X127463000Y-101500000D03*
%TO.P,J1,A1*%
%TO.N,GND*%
X127463000Y-100700000D03*
%TO.P,J1,B12*%
X127463000Y-100700000D03*
%TO.P,J1,B4*%
%TO.N,VBUS*%
X127463000Y-106300000D03*
%TO.P,J1,B1*%
%TO.N,GND*%
X127463000Y-107100000D03*
%TO.P,J1,A9*%
%TO.N,VBUS*%
X127463000Y-106300000D03*
%TO.P,J1,A12*%
%TO.N,GND*%
X127463000Y-107100000D03*
%TD*%
%TO.P,R1,1*%
%TO.N,/D-*%
%TA.AperFunction,SMDPad,CuDef*%
G36*
G01*
X132525000Y-106143750D02*
X132525000Y-106656250D01*
G75*
G02*
X132306250Y-106875000I-218750J0D01*
G01*
X131868750Y-106875000D01*
G75*
G02*
X131650000Y-106656250I0J218750D01*
G01*
X131650000Y-106143750D01*
G75*
G02*
X131868750Y-105925000I218750J0D01*
G01*
X132306250Y-105925000D01*
G75*
G02*
X132525000Y-106143750I0J-218750D01*
G01*
G37*
%TD.AperFunction*%
%TO.P,R1,2*%
%TO.N,Net-(J1-PadA7)*%
%TA.AperFunction,SMDPad,CuDef*%
G36*
G01*
X130950000Y-106143750D02*
X130950000Y-106656250D01*
G75*
G02*
X130731250Y-106875000I-218750J0D01*
G01*
X130293750Y-106875000D01*
G75*
G02*
X130075000Y-106656250I0J218750D01*
G01*
X130075000Y-106143750D01*
G75*
G02*
X130293750Y-105925000I218750J0D01*
G01*
X130731250Y-105925000D01*
G75*
G02*
X130950000Y-106143750I0J-218750D01*
G01*
G37*
%TD.AperFunction*%
%TD*%
%TO.P,R2,2*%
%TO.N,Net-(J1-PadA6)*%
%TA.AperFunction,SMDPad,CuDef*%
G36*
G01*
X130950000Y-104443750D02*
X130950000Y-104956250D01*
G75*
G02*
X130731250Y-105175000I-218750J0D01*
G01*
X130293750Y-105175000D01*
G75*
G02*
X130075000Y-104956250I0J218750D01*
G01*
X130075000Y-104443750D01*
G75*
G02*
X130293750Y-104225000I218750J0D01*
G01*
X130731250Y-104225000D01*
G75*
G02*
X130950000Y-104443750I0J-218750D01*
G01*
G37*
%TD.AperFunction*%
%TO.P,R2,1*%
%TO.N,/D+*%
%TA.AperFunction,SMDPad,CuDef*%
G36*
G01*
X132525000Y-104443750D02*
X132525000Y-104956250D01*
G75*
G02*
X132306250Y-105175000I-218750J0D01*
G01*
X131868750Y-105175000D01*
G75*
G02*
X131650000Y-104956250I0J218750D01*
G01*
X131650000Y-104443750D01*
G75*
G02*
X131868750Y-104225000I218750J0D01*
G01*
X132306250Y-104225000D01*
G75*
G02*
X132525000Y-104443750I0J-218750D01*
G01*
G37*
%TD.AperFunction*%
%TD*%
%TO.P,R3,1*%
%TO.N,VDD*%
%TA.AperFunction,SMDPad,CuDef*%
G36*
G01*
X134875000Y-108156250D02*
X134875000Y-107643750D01*
G75*
G02*
X135093750Y-107425000I218750J0D01*
G01*
X135531250Y-107425000D01*
G75*
G02*
X135750000Y-107643750I0J-218750D01*
G01*
X135750000Y-108156250D01*
G75*
G02*
X135531250Y-108375000I-218750J0D01*
G01*
X135093750Y-108375000D01*
G75*
G02*
X134875000Y-108156250I0J218750D01*
G01*
G37*
%TD.AperFunction*%
%TO.P,R3,2*%
%TO.N,Net-(R3-Pad2)*%
%TA.AperFunction,SMDPad,CuDef*%
G36*
G01*
X136450000Y-108156250D02*
X136450000Y-107643750D01*
G75*
G02*
X136668750Y-107425000I218750J0D01*
G01*
X137106250Y-107425000D01*
G75*
G02*
X137325000Y-107643750I0J-218750D01*
G01*
X137325000Y-108156250D01*
G75*
G02*
X137106250Y-108375000I-218750J0D01*
G01*
X136668750Y-108375000D01*
G75*
G02*
X136450000Y-108156250I0J218750D01*
G01*
G37*
%TD.AperFunction*%
%TD*%
%TO.P,R4,2*%
%TO.N,+3V3*%
%TA.AperFunction,SMDPad,CuDef*%
G36*
G01*
X138671250Y-100125000D02*
X138158750Y-100125000D01*
G75*
G02*
X137940000Y-99906250I0J218750D01*
G01*
X137940000Y-99468750D01*
G75*
G02*
X138158750Y-99250000I218750J0D01*
G01*
X138671250Y-99250000D01*
G75*
G02*
X138890000Y-99468750I0J-218750D01*
G01*
X138890000Y-99906250D01*
G75*
G02*
X138671250Y-100125000I-218750J0D01*
G01*
G37*
%TD.AperFunction*%
%TO.P,R4,1*%
%TO.N,Net-(D1-Pad2)*%
%TA.AperFunction,SMDPad,CuDef*%
G36*
G01*
X138671250Y-101700000D02*
X138158750Y-101700000D01*
G75*
G02*
X137940000Y-101481250I0J218750D01*
G01*
X137940000Y-101043750D01*
G75*
G02*
X138158750Y-100825000I218750J0D01*
G01*
X138671250Y-100825000D01*
G75*
G02*
X138890000Y-101043750I0J-218750D01*
G01*
X138890000Y-101481250D01*
G75*
G02*
X138671250Y-101700000I-218750J0D01*
G01*
G37*
%TD.AperFunction*%
%TD*%
%TO.P,R5,1*%
%TO.N,/RXD*%
%TA.AperFunction,SMDPad,CuDef*%
G36*
G01*
X143196000Y-97743750D02*
X143196000Y-98256250D01*
G75*
G02*
X142977250Y-98475000I-218750J0D01*
G01*
X142539750Y-98475000D01*
G75*
G02*
X142321000Y-98256250I0J218750D01*
G01*
X142321000Y-97743750D01*
G75*
G02*
X142539750Y-97525000I218750J0D01*
G01*
X142977250Y-97525000D01*
G75*
G02*
X143196000Y-97743750I0J-218750D01*
G01*
G37*
%TD.AperFunction*%
%TO.P,R5,2*%
%TO.N,Net-(R5-Pad2)*%
%TA.AperFunction,SMDPad,CuDef*%
G36*
G01*
X141621000Y-97743750D02*
X141621000Y-98256250D01*
G75*
G02*
X141402250Y-98475000I-218750J0D01*
G01*
X140964750Y-98475000D01*
G75*
G02*
X140746000Y-98256250I0J218750D01*
G01*
X140746000Y-97743750D01*
G75*
G02*
X140964750Y-97525000I218750J0D01*
G01*
X141402250Y-97525000D01*
G75*
G02*
X141621000Y-97743750I0J-218750D01*
G01*
G37*
%TD.AperFunction*%
%TD*%
%TO.P,R6,2*%
%TO.N,Net-(D1-Pad1)*%
%TA.AperFunction,SMDPad,CuDef*%
G36*
G01*
X141621000Y-101107750D02*
X141621000Y-101620250D01*
G75*
G02*
X141402250Y-101839000I-218750J0D01*
G01*
X140964750Y-101839000D01*
G75*
G02*
X140746000Y-101620250I0J218750D01*
G01*
X140746000Y-101107750D01*
G75*
G02*
X140964750Y-100889000I218750J0D01*
G01*
X141402250Y-100889000D01*
G75*
G02*
X141621000Y-101107750I0J-218750D01*
G01*
G37*
%TD.AperFunction*%
%TO.P,R6,1*%
%TO.N,/TXD*%
%TA.AperFunction,SMDPad,CuDef*%
G36*
G01*
X143196000Y-101107750D02*
X143196000Y-101620250D01*
G75*
G02*
X142977250Y-101839000I-218750J0D01*
G01*
X142539750Y-101839000D01*
G75*
G02*
X142321000Y-101620250I0J218750D01*
G01*
X142321000Y-101107750D01*
G75*
G02*
X142539750Y-100889000I218750J0D01*
G01*
X142977250Y-100889000D01*
G75*
G02*
X143196000Y-101107750I0J-218750D01*
G01*
G37*
%TD.AperFunction*%
%TD*%
%TO.P,R7,1*%
%TO.N,Net-(D2-Pad2)*%
%TA.AperFunction,SMDPad,CuDef*%
G36*
G01*
X138158750Y-96075000D02*
X138671250Y-96075000D01*
G75*
G02*
X138890000Y-96293750I0J-218750D01*
G01*
X138890000Y-96731250D01*
G75*
G02*
X138671250Y-96950000I-218750J0D01*
G01*
X138158750Y-96950000D01*
G75*
G02*
X137940000Y-96731250I0J218750D01*
G01*
X137940000Y-96293750D01*
G75*
G02*
X138158750Y-96075000I218750J0D01*
G01*
G37*
%TD.AperFunction*%
%TO.P,R7,2*%
%TO.N,+3V3*%
%TA.AperFunction,SMDPad,CuDef*%
G36*
G01*
X138158750Y-97650000D02*
X138671250Y-97650000D01*
G75*
G02*
X138890000Y-97868750I0J-218750D01*
G01*
X138890000Y-98306250D01*
G75*
G02*
X138671250Y-98525000I-218750J0D01*
G01*
X138158750Y-98525000D01*
G75*
G02*
X137940000Y-98306250I0J218750D01*
G01*
X137940000Y-97868750D01*
G75*
G02*
X138158750Y-97650000I218750J0D01*
G01*
G37*
%TD.AperFunction*%
%TD*%
D17*
%TO.P,U1,2*%
%TO.N,+3V3*%
X133900000Y-101720000D03*
D18*
X133900000Y-95420000D03*
%TO.P,U1,3*%
%TO.N,VBUS*%
X131600000Y-95420000D03*
%TO.P,U1,1*%
%TO.N,GND*%
X136200000Y-95420000D03*
%TD*%
%TO.P,U2,1*%
%TO.N,Net-(U2-Pad1)*%
%TA.AperFunction,SMDPad,CuDef*%
G36*
G01*
X138486000Y-104562500D02*
X138486000Y-104437500D01*
G75*
G02*
X138548500Y-104375000I62500J0D01*
G01*
X139223500Y-104375000D01*
G75*
G02*
X139286000Y-104437500I0J-62500D01*
G01*
X139286000Y-104562500D01*
G75*
G02*
X139223500Y-104625000I-62500J0D01*
G01*
X138548500Y-104625000D01*
G75*
G02*
X138486000Y-104562500I0J62500D01*
G01*
G37*
%TD.AperFunction*%
%TO.P,U2,2*%
%TO.N,Net-(U2-Pad2)*%
%TA.AperFunction,SMDPad,CuDef*%
G36*
G01*
X138486000Y-105062500D02*
X138486000Y-104937500D01*
G75*
G02*
X138548500Y-104875000I62500J0D01*
G01*
X139223500Y-104875000D01*
G75*
G02*
X139286000Y-104937500I0J-62500D01*
G01*
X139286000Y-105062500D01*
G75*
G02*
X139223500Y-105125000I-62500J0D01*
G01*
X138548500Y-105125000D01*
G75*
G02*
X138486000Y-105062500I0J62500D01*
G01*
G37*
%TD.AperFunction*%
%TO.P,U2,3*%
%TO.N,GND*%
%TA.AperFunction,SMDPad,CuDef*%
G36*
G01*
X138486000Y-105562500D02*
X138486000Y-105437500D01*
G75*
G02*
X138548500Y-105375000I62500J0D01*
G01*
X139223500Y-105375000D01*
G75*
G02*
X139286000Y-105437500I0J-62500D01*
G01*
X139286000Y-105562500D01*
G75*
G02*
X139223500Y-105625000I-62500J0D01*
G01*
X138548500Y-105625000D01*
G75*
G02*
X138486000Y-105562500I0J62500D01*
G01*
G37*
%TD.AperFunction*%
%TO.P,U2,4*%
%TO.N,/D+*%
%TA.AperFunction,SMDPad,CuDef*%
G36*
G01*
X138486000Y-106062500D02*
X138486000Y-105937500D01*
G75*
G02*
X138548500Y-105875000I62500J0D01*
G01*
X139223500Y-105875000D01*
G75*
G02*
X139286000Y-105937500I0J-62500D01*
G01*
X139286000Y-106062500D01*
G75*
G02*
X139223500Y-106125000I-62500J0D01*
G01*
X138548500Y-106125000D01*
G75*
G02*
X138486000Y-106062500I0J62500D01*
G01*
G37*
%TD.AperFunction*%
%TO.P,U2,5*%
%TO.N,/D-*%
%TA.AperFunction,SMDPad,CuDef*%
G36*
G01*
X138486000Y-106562500D02*
X138486000Y-106437500D01*
G75*
G02*
X138548500Y-106375000I62500J0D01*
G01*
X139223500Y-106375000D01*
G75*
G02*
X139286000Y-106437500I0J-62500D01*
G01*
X139286000Y-106562500D01*
G75*
G02*
X139223500Y-106625000I-62500J0D01*
G01*
X138548500Y-106625000D01*
G75*
G02*
X138486000Y-106562500I0J62500D01*
G01*
G37*
%TD.AperFunction*%
%TO.P,U2,6*%
%TO.N,VDD*%
%TA.AperFunction,SMDPad,CuDef*%
G36*
G01*
X138486000Y-107062500D02*
X138486000Y-106937500D01*
G75*
G02*
X138548500Y-106875000I62500J0D01*
G01*
X139223500Y-106875000D01*
G75*
G02*
X139286000Y-106937500I0J-62500D01*
G01*
X139286000Y-107062500D01*
G75*
G02*
X139223500Y-107125000I-62500J0D01*
G01*
X138548500Y-107125000D01*
G75*
G02*
X138486000Y-107062500I0J62500D01*
G01*
G37*
%TD.AperFunction*%
%TO.P,U2,7*%
%TO.N,VBUS*%
%TA.AperFunction,SMDPad,CuDef*%
G36*
G01*
X138486000Y-107562500D02*
X138486000Y-107437500D01*
G75*
G02*
X138548500Y-107375000I62500J0D01*
G01*
X139223500Y-107375000D01*
G75*
G02*
X139286000Y-107437500I0J-62500D01*
G01*
X139286000Y-107562500D01*
G75*
G02*
X139223500Y-107625000I-62500J0D01*
G01*
X138548500Y-107625000D01*
G75*
G02*
X138486000Y-107562500I0J62500D01*
G01*
G37*
%TD.AperFunction*%
%TO.P,U2,8*%
%TA.AperFunction,SMDPad,CuDef*%
G36*
G01*
X139711000Y-108787500D02*
X139711000Y-108112500D01*
G75*
G02*
X139773500Y-108050000I62500J0D01*
G01*
X139898500Y-108050000D01*
G75*
G02*
X139961000Y-108112500I0J-62500D01*
G01*
X139961000Y-108787500D01*
G75*
G02*
X139898500Y-108850000I-62500J0D01*
G01*
X139773500Y-108850000D01*
G75*
G02*
X139711000Y-108787500I0J62500D01*
G01*
G37*
%TD.AperFunction*%
%TO.P,U2,9*%
%TO.N,Net-(R3-Pad2)*%
%TA.AperFunction,SMDPad,CuDef*%
G36*
G01*
X140211000Y-108787500D02*
X140211000Y-108112500D01*
G75*
G02*
X140273500Y-108050000I62500J0D01*
G01*
X140398500Y-108050000D01*
G75*
G02*
X140461000Y-108112500I0J-62500D01*
G01*
X140461000Y-108787500D01*
G75*
G02*
X140398500Y-108850000I-62500J0D01*
G01*
X140273500Y-108850000D01*
G75*
G02*
X140211000Y-108787500I0J62500D01*
G01*
G37*
%TD.AperFunction*%
%TO.P,U2,10*%
%TO.N,Net-(U2-Pad10)*%
%TA.AperFunction,SMDPad,CuDef*%
G36*
G01*
X140711000Y-108787500D02*
X140711000Y-108112500D01*
G75*
G02*
X140773500Y-108050000I62500J0D01*
G01*
X140898500Y-108050000D01*
G75*
G02*
X140961000Y-108112500I0J-62500D01*
G01*
X140961000Y-108787500D01*
G75*
G02*
X140898500Y-108850000I-62500J0D01*
G01*
X140773500Y-108850000D01*
G75*
G02*
X140711000Y-108787500I0J62500D01*
G01*
G37*
%TD.AperFunction*%
%TO.P,U2,11*%
%TO.N,Net-(U2-Pad11)*%
%TA.AperFunction,SMDPad,CuDef*%
G36*
G01*
X141211000Y-108787500D02*
X141211000Y-108112500D01*
G75*
G02*
X141273500Y-108050000I62500J0D01*
G01*
X141398500Y-108050000D01*
G75*
G02*
X141461000Y-108112500I0J-62500D01*
G01*
X141461000Y-108787500D01*
G75*
G02*
X141398500Y-108850000I-62500J0D01*
G01*
X141273500Y-108850000D01*
G75*
G02*
X141211000Y-108787500I0J62500D01*
G01*
G37*
%TD.AperFunction*%
%TO.P,U2,12*%
%TO.N,Net-(U2-Pad12)*%
%TA.AperFunction,SMDPad,CuDef*%
G36*
G01*
X141711000Y-108787500D02*
X141711000Y-108112500D01*
G75*
G02*
X141773500Y-108050000I62500J0D01*
G01*
X141898500Y-108050000D01*
G75*
G02*
X141961000Y-108112500I0J-62500D01*
G01*
X141961000Y-108787500D01*
G75*
G02*
X141898500Y-108850000I-62500J0D01*
G01*
X141773500Y-108850000D01*
G75*
G02*
X141711000Y-108787500I0J62500D01*
G01*
G37*
%TD.AperFunction*%
%TO.P,U2,13*%
%TO.N,Net-(U2-Pad13)*%
%TA.AperFunction,SMDPad,CuDef*%
G36*
G01*
X142211000Y-108787500D02*
X142211000Y-108112500D01*
G75*
G02*
X142273500Y-108050000I62500J0D01*
G01*
X142398500Y-108050000D01*
G75*
G02*
X142461000Y-108112500I0J-62500D01*
G01*
X142461000Y-108787500D01*
G75*
G02*
X142398500Y-108850000I-62500J0D01*
G01*
X142273500Y-108850000D01*
G75*
G02*
X142211000Y-108787500I0J62500D01*
G01*
G37*
%TD.AperFunction*%
%TO.P,U2,14*%
%TO.N,Net-(U2-Pad14)*%
%TA.AperFunction,SMDPad,CuDef*%
G36*
G01*
X142711000Y-108787500D02*
X142711000Y-108112500D01*
G75*
G02*
X142773500Y-108050000I62500J0D01*
G01*
X142898500Y-108050000D01*
G75*
G02*
X142961000Y-108112500I0J-62500D01*
G01*
X142961000Y-108787500D01*
G75*
G02*
X142898500Y-108850000I-62500J0D01*
G01*
X142773500Y-108850000D01*
G75*
G02*
X142711000Y-108787500I0J62500D01*
G01*
G37*
%TD.AperFunction*%
%TO.P,U2,15*%
%TO.N,Net-(U2-Pad15)*%
%TA.AperFunction,SMDPad,CuDef*%
G36*
G01*
X143386000Y-107562500D02*
X143386000Y-107437500D01*
G75*
G02*
X143448500Y-107375000I62500J0D01*
G01*
X144123500Y-107375000D01*
G75*
G02*
X144186000Y-107437500I0J-62500D01*
G01*
X144186000Y-107562500D01*
G75*
G02*
X144123500Y-107625000I-62500J0D01*
G01*
X143448500Y-107625000D01*
G75*
G02*
X143386000Y-107562500I0J62500D01*
G01*
G37*
%TD.AperFunction*%
%TO.P,U2,16*%
%TO.N,Net-(U2-Pad16)*%
%TA.AperFunction,SMDPad,CuDef*%
G36*
G01*
X143386000Y-107062500D02*
X143386000Y-106937500D01*
G75*
G02*
X143448500Y-106875000I62500J0D01*
G01*
X144123500Y-106875000D01*
G75*
G02*
X144186000Y-106937500I0J-62500D01*
G01*
X144186000Y-107062500D01*
G75*
G02*
X144123500Y-107125000I-62500J0D01*
G01*
X143448500Y-107125000D01*
G75*
G02*
X143386000Y-107062500I0J62500D01*
G01*
G37*
%TD.AperFunction*%
%TO.P,U2,17*%
%TO.N,Net-(U2-Pad17)*%
%TA.AperFunction,SMDPad,CuDef*%
G36*
G01*
X143386000Y-106562500D02*
X143386000Y-106437500D01*
G75*
G02*
X143448500Y-106375000I62500J0D01*
G01*
X144123500Y-106375000D01*
G75*
G02*
X144186000Y-106437500I0J-62500D01*
G01*
X144186000Y-106562500D01*
G75*
G02*
X144123500Y-106625000I-62500J0D01*
G01*
X143448500Y-106625000D01*
G75*
G02*
X143386000Y-106562500I0J62500D01*
G01*
G37*
%TD.AperFunction*%
%TO.P,U2,18*%
%TO.N,Net-(U2-Pad18)*%
%TA.AperFunction,SMDPad,CuDef*%
G36*
G01*
X143386000Y-106062500D02*
X143386000Y-105937500D01*
G75*
G02*
X143448500Y-105875000I62500J0D01*
G01*
X144123500Y-105875000D01*
G75*
G02*
X144186000Y-105937500I0J-62500D01*
G01*
X144186000Y-106062500D01*
G75*
G02*
X144123500Y-106125000I-62500J0D01*
G01*
X143448500Y-106125000D01*
G75*
G02*
X143386000Y-106062500I0J62500D01*
G01*
G37*
%TD.AperFunction*%
%TO.P,U2,19*%
%TO.N,Net-(U2-Pad19)*%
%TA.AperFunction,SMDPad,CuDef*%
G36*
G01*
X143386000Y-105562500D02*
X143386000Y-105437500D01*
G75*
G02*
X143448500Y-105375000I62500J0D01*
G01*
X144123500Y-105375000D01*
G75*
G02*
X144186000Y-105437500I0J-62500D01*
G01*
X144186000Y-105562500D01*
G75*
G02*
X144123500Y-105625000I-62500J0D01*
G01*
X143448500Y-105625000D01*
G75*
G02*
X143386000Y-105562500I0J62500D01*
G01*
G37*
%TD.AperFunction*%
%TO.P,U2,20*%
%TO.N,Net-(U2-Pad20)*%
%TA.AperFunction,SMDPad,CuDef*%
G36*
G01*
X143386000Y-105062500D02*
X143386000Y-104937500D01*
G75*
G02*
X143448500Y-104875000I62500J0D01*
G01*
X144123500Y-104875000D01*
G75*
G02*
X144186000Y-104937500I0J-62500D01*
G01*
X144186000Y-105062500D01*
G75*
G02*
X144123500Y-105125000I-62500J0D01*
G01*
X143448500Y-105125000D01*
G75*
G02*
X143386000Y-105062500I0J62500D01*
G01*
G37*
%TD.AperFunction*%
%TO.P,U2,21*%
%TO.N,Net-(U2-Pad21)*%
%TA.AperFunction,SMDPad,CuDef*%
G36*
G01*
X143386000Y-104562500D02*
X143386000Y-104437500D01*
G75*
G02*
X143448500Y-104375000I62500J0D01*
G01*
X144123500Y-104375000D01*
G75*
G02*
X144186000Y-104437500I0J-62500D01*
G01*
X144186000Y-104562500D01*
G75*
G02*
X144123500Y-104625000I-62500J0D01*
G01*
X143448500Y-104625000D01*
G75*
G02*
X143386000Y-104562500I0J62500D01*
G01*
G37*
%TD.AperFunction*%
%TO.P,U2,22*%
%TO.N,Net-(U2-Pad22)*%
%TA.AperFunction,SMDPad,CuDef*%
G36*
G01*
X142711000Y-103887500D02*
X142711000Y-103212500D01*
G75*
G02*
X142773500Y-103150000I62500J0D01*
G01*
X142898500Y-103150000D01*
G75*
G02*
X142961000Y-103212500I0J-62500D01*
G01*
X142961000Y-103887500D01*
G75*
G02*
X142898500Y-103950000I-62500J0D01*
G01*
X142773500Y-103950000D01*
G75*
G02*
X142711000Y-103887500I0J62500D01*
G01*
G37*
%TD.AperFunction*%
%TO.P,U2,23*%
%TO.N,Net-(U2-Pad23)*%
%TA.AperFunction,SMDPad,CuDef*%
G36*
G01*
X142211000Y-103887500D02*
X142211000Y-103212500D01*
G75*
G02*
X142273500Y-103150000I62500J0D01*
G01*
X142398500Y-103150000D01*
G75*
G02*
X142461000Y-103212500I0J-62500D01*
G01*
X142461000Y-103887500D01*
G75*
G02*
X142398500Y-103950000I-62500J0D01*
G01*
X142273500Y-103950000D01*
G75*
G02*
X142211000Y-103887500I0J62500D01*
G01*
G37*
%TD.AperFunction*%
%TO.P,U2,24*%
%TO.N,Net-(U2-Pad24)*%
%TA.AperFunction,SMDPad,CuDef*%
G36*
G01*
X141711000Y-103887500D02*
X141711000Y-103212500D01*
G75*
G02*
X141773500Y-103150000I62500J0D01*
G01*
X141898500Y-103150000D01*
G75*
G02*
X141961000Y-103212500I0J-62500D01*
G01*
X141961000Y-103887500D01*
G75*
G02*
X141898500Y-103950000I-62500J0D01*
G01*
X141773500Y-103950000D01*
G75*
G02*
X141711000Y-103887500I0J62500D01*
G01*
G37*
%TD.AperFunction*%
%TO.P,U2,25*%
%TO.N,Net-(R5-Pad2)*%
%TA.AperFunction,SMDPad,CuDef*%
G36*
G01*
X141211000Y-103887500D02*
X141211000Y-103212500D01*
G75*
G02*
X141273500Y-103150000I62500J0D01*
G01*
X141398500Y-103150000D01*
G75*
G02*
X141461000Y-103212500I0J-62500D01*
G01*
X141461000Y-103887500D01*
G75*
G02*
X141398500Y-103950000I-62500J0D01*
G01*
X141273500Y-103950000D01*
G75*
G02*
X141211000Y-103887500I0J62500D01*
G01*
G37*
%TD.AperFunction*%
%TO.P,U2,26*%
%TO.N,Net-(D1-Pad1)*%
%TA.AperFunction,SMDPad,CuDef*%
G36*
G01*
X140711000Y-103887500D02*
X140711000Y-103212500D01*
G75*
G02*
X140773500Y-103150000I62500J0D01*
G01*
X140898500Y-103150000D01*
G75*
G02*
X140961000Y-103212500I0J-62500D01*
G01*
X140961000Y-103887500D01*
G75*
G02*
X140898500Y-103950000I-62500J0D01*
G01*
X140773500Y-103950000D01*
G75*
G02*
X140711000Y-103887500I0J62500D01*
G01*
G37*
%TD.AperFunction*%
%TO.P,U2,27*%
%TO.N,Net-(U2-Pad27)*%
%TA.AperFunction,SMDPad,CuDef*%
G36*
G01*
X140211000Y-103887500D02*
X140211000Y-103212500D01*
G75*
G02*
X140273500Y-103150000I62500J0D01*
G01*
X140398500Y-103150000D01*
G75*
G02*
X140461000Y-103212500I0J-62500D01*
G01*
X140461000Y-103887500D01*
G75*
G02*
X140398500Y-103950000I-62500J0D01*
G01*
X140273500Y-103950000D01*
G75*
G02*
X140211000Y-103887500I0J62500D01*
G01*
G37*
%TD.AperFunction*%
%TO.P,U2,28*%
%TO.N,Net-(U2-Pad28)*%
%TA.AperFunction,SMDPad,CuDef*%
G36*
G01*
X139711000Y-103887500D02*
X139711000Y-103212500D01*
G75*
G02*
X139773500Y-103150000I62500J0D01*
G01*
X139898500Y-103150000D01*
G75*
G02*
X139961000Y-103212500I0J-62500D01*
G01*
X139961000Y-103887500D01*
G75*
G02*
X139898500Y-103950000I-62500J0D01*
G01*
X139773500Y-103950000D01*
G75*
G02*
X139711000Y-103887500I0J62500D01*
G01*
G37*
%TD.AperFunction*%
D19*
%TO.P,U2,29*%
%TO.N,GND*%
X141336000Y-106000000D03*
%TD*%
D20*
%TO.N,GND*%
X142225000Y-105174000D03*
X142225000Y-106952000D03*
X140447000Y-106952000D03*
D21*
X136256000Y-97173000D03*
X128509000Y-95649000D03*
X124445000Y-97681000D03*
X138034000Y-103523000D03*
X133716000Y-107968000D03*
D20*
X140447000Y-105174000D03*
D21*
X136000000Y-99000000D03*
X124000000Y-102000000D03*
X124000000Y-105000000D03*
X131000000Y-100000000D03*
X144638000Y-98062000D03*
X149464000Y-96792000D03*
X149464000Y-106952000D03*
X149464000Y-104412000D03*
X149464000Y-101872000D03*
X149464000Y-99332000D03*
X144384000Y-102126000D03*
X145146000Y-105682000D03*
X139812000Y-95268000D03*
X144638000Y-95268000D03*
X131430000Y-108222000D03*
X129398000Y-108476000D03*
X144384000Y-100348000D03*
%TO.N,VBUS*%
X138886000Y-108386000D03*
%TO.N,+3V3*%
X126985000Y-97808000D03*
X133900000Y-97865000D03*
X137018000Y-102507000D03*
%TO.N,Net-(J1-PadA7)*%
X129346922Y-103690501D03*
X129525000Y-105936000D03*
%TO.N,/D-*%
X137907000Y-106374990D03*
X132826992Y-107079000D03*
%TO.N,Net-(R3-Pad2)*%
X137907000Y-108349000D03*
X140320000Y-109238000D03*
%TO.N,Net-(R5-Pad2)*%
X141971000Y-98824000D03*
X141971000Y-102253000D03*
%TD*%
D22*
%TO.N,GND*%
X140836000Y-105500000D02*
X141336000Y-106000000D01*
X138886000Y-105500000D02*
X140836000Y-105500000D01*
X135300000Y-106287500D02*
X133700000Y-106287500D01*
X138025010Y-104049990D02*
X139385990Y-104049990D01*
X137375000Y-104700000D02*
X138025010Y-104049990D01*
X136900000Y-104700000D02*
X137375000Y-104700000D01*
X136200000Y-95420000D02*
X136200000Y-97117000D01*
X136200000Y-97117000D02*
X136256000Y-97173000D01*
X128483500Y-95623500D02*
X128509000Y-95649000D01*
X128483500Y-94861500D02*
X128483500Y-95623500D01*
X128483500Y-94861500D02*
X127700000Y-94861500D01*
X129300000Y-94861500D02*
X128483500Y-94861500D01*
X124500000Y-96436500D02*
X124500000Y-97626000D01*
X124500000Y-97626000D02*
X124445000Y-97681000D01*
X138025010Y-104049990D02*
X138025010Y-103531990D01*
X138025010Y-103531990D02*
X138034000Y-103523000D01*
X133700000Y-106287500D02*
X133700000Y-107952000D01*
X133700000Y-107952000D02*
X133716000Y-107968000D01*
X127463000Y-107640000D02*
X126883000Y-108220000D01*
X127463000Y-107100000D02*
X127463000Y-107640000D01*
X127463000Y-100160000D02*
X126883000Y-99580000D01*
X127463000Y-100700000D02*
X127463000Y-100160000D01*
X141336000Y-106000000D02*
X140351500Y-105015500D01*
X139385990Y-104049990D02*
X140351500Y-105015500D01*
%TO.N,VBUS*%
X127288001Y-106125001D02*
X127463000Y-106300000D01*
X126622999Y-106125001D02*
X127288001Y-106125001D01*
X125588000Y-105090002D02*
X126622999Y-106125001D01*
X127055001Y-101674999D02*
X126622999Y-101674999D01*
X127230000Y-101500000D02*
X127055001Y-101674999D01*
X127463000Y-101500000D02*
X127230000Y-101500000D01*
X126622999Y-101674999D02*
X125588000Y-102709998D01*
X125588000Y-102709998D02*
X125588000Y-105090002D01*
X128293000Y-106300000D02*
X131231000Y-109238000D01*
X127463000Y-106300000D02*
X128293000Y-106300000D01*
X131231000Y-109238000D02*
X138034000Y-109238000D01*
X138886000Y-108386000D02*
X138886000Y-107500000D01*
X138034000Y-109238000D02*
X138886000Y-108386000D01*
X139772000Y-108386000D02*
X139836000Y-108450000D01*
X138886000Y-108386000D02*
X139772000Y-108386000D01*
X127700000Y-96436500D02*
X129300000Y-96436500D01*
X127700000Y-97380000D02*
X127700000Y-96436500D01*
X129144000Y-98824000D02*
X127700000Y-97380000D01*
X129144000Y-101237000D02*
X129144000Y-98824000D01*
X127463000Y-101500000D02*
X128881000Y-101500000D01*
X128881000Y-101500000D02*
X129144000Y-101237000D01*
X130583500Y-96436500D02*
X131600000Y-95420000D01*
X129300000Y-96436500D02*
X130583500Y-96436500D01*
%TO.N,+3V3*%
X135300000Y-104712500D02*
X133700000Y-104712500D01*
X133700000Y-101920000D02*
X133900000Y-101720000D01*
X133700000Y-104712500D02*
X133700000Y-101920000D01*
X135300000Y-104712500D02*
X135300000Y-104225000D01*
X135300000Y-104225000D02*
X137018000Y-102507000D01*
X137018000Y-101084500D02*
X138415000Y-99687500D01*
X137018000Y-102507000D02*
X137018000Y-101084500D01*
X138415000Y-99687500D02*
X138415000Y-98087500D01*
X126100000Y-96436500D02*
X126100000Y-96923000D01*
X126100000Y-96923000D02*
X126985000Y-97808000D01*
X133900000Y-95420000D02*
X133900000Y-97865000D01*
X133900000Y-97865000D02*
X133900000Y-101720000D01*
%TO.N,VDD*%
X135312500Y-107862500D02*
X136900000Y-106275000D01*
X135312500Y-107900000D02*
X135312500Y-107862500D01*
X137187500Y-107000000D02*
X136900000Y-106712500D01*
X138886000Y-107000000D02*
X137187500Y-107000000D01*
X136900000Y-106712500D02*
X136900000Y-106275000D01*
%TO.N,Net-(D1-Pad2)*%
X139621000Y-101262500D02*
X141183500Y-99700000D01*
X138415000Y-101262500D02*
X139621000Y-101262500D01*
%TO.N,Net-(D1-Pad1)*%
X142758500Y-99789000D02*
X141183500Y-101364000D01*
X142758500Y-99700000D02*
X142758500Y-99789000D01*
X140836000Y-103550000D02*
X140836000Y-102751590D01*
X141183500Y-102404090D02*
X141183500Y-101364000D01*
X140836000Y-102751590D02*
X141183500Y-102404090D01*
%TO.N,/RXD*%
X142758500Y-96284000D02*
X142758500Y-98000000D01*
X146416000Y-96284000D02*
X146924000Y-96792000D01*
X142758500Y-96284000D02*
X146416000Y-96284000D01*
%TO.N,Net-(D2-Pad2)*%
X138643500Y-96284000D02*
X138415000Y-96512500D01*
X141183500Y-96284000D02*
X138643500Y-96284000D01*
%TO.N,Net-(J1-PadA7)*%
X127463000Y-104150000D02*
X126469000Y-104150000D01*
X126469000Y-104150000D02*
X126223000Y-103904000D01*
X126223000Y-103904000D02*
X126223000Y-103396000D01*
X126469000Y-103150000D02*
X127463000Y-103150000D01*
X126223000Y-103396000D02*
X126469000Y-103150000D01*
X127463000Y-103150000D02*
X128806421Y-103150000D01*
X128806421Y-103150000D02*
X129346922Y-103690501D01*
X130512500Y-106400000D02*
X129989000Y-106400000D01*
X129989000Y-106400000D02*
X129525000Y-105936000D01*
%TO.N,Net-(J1-PadA6)*%
X128401501Y-104650000D02*
X127463000Y-104650000D01*
X128636000Y-104415501D02*
X128401501Y-104650000D01*
X128636000Y-103904000D02*
X128636000Y-104415501D01*
X127463000Y-103650000D02*
X128382000Y-103650000D01*
X128382000Y-103650000D02*
X128636000Y-103904000D01*
X128636000Y-104415501D02*
X129140499Y-104415501D01*
X129140499Y-104415501D02*
X129398000Y-104673002D01*
X129398000Y-104673002D02*
X129398000Y-105174000D01*
X129398000Y-105174000D02*
X129525000Y-105301000D01*
X129911500Y-105301000D02*
X130512500Y-104700000D01*
X129525000Y-105301000D02*
X129911500Y-105301000D01*
%TO.N,/TXD*%
X144892000Y-101364000D02*
X146924000Y-99332000D01*
X142758500Y-101364000D02*
X144892000Y-101364000D01*
%TO.N,/D-*%
X138886000Y-106500000D02*
X138032010Y-106500000D01*
X138032010Y-106500000D02*
X137907000Y-106374990D01*
X132766500Y-107079000D02*
X132826992Y-107079000D01*
X132087500Y-106400000D02*
X132766500Y-107079000D01*
%TO.N,/D+*%
X137912988Y-105475010D02*
X138437978Y-106000000D01*
X132087500Y-104700000D02*
X132862510Y-105475010D01*
X138437978Y-106000000D02*
X138886000Y-106000000D01*
X132862510Y-105475010D02*
X137912988Y-105475010D01*
%TO.N,Net-(R3-Pad2)*%
X136887500Y-107900000D02*
X137458000Y-107900000D01*
X137458000Y-107900000D02*
X137907000Y-108349000D01*
X140320000Y-108466000D02*
X140336000Y-108450000D01*
X140320000Y-109238000D02*
X140320000Y-108466000D01*
%TO.N,Net-(R5-Pad2)*%
X141183500Y-98000000D02*
X141183500Y-98036500D01*
X141183500Y-98036500D02*
X141971000Y-98824000D01*
X141336000Y-102888000D02*
X141336000Y-103550000D01*
X141971000Y-102253000D02*
X141336000Y-102888000D01*
%TO.N,Net-(D3-Pad2)*%
X126100000Y-94861500D02*
X124500000Y-94861500D01*
%TD*%
D23*
%TO.N,GND*%
G36*
X122098748Y-96142858D02*
G01*
X122084605Y-96157000D01*
X123396653Y-97469048D01*
X123616608Y-97360304D01*
X123670506Y-97404537D01*
X123780820Y-97463502D01*
X123900518Y-97499812D01*
X124025000Y-97512072D01*
X124214250Y-97509000D01*
X124373000Y-97350250D01*
X124373000Y-96563500D01*
X124353000Y-96563500D01*
X124353000Y-96309500D01*
X124373000Y-96309500D01*
X124373000Y-96289500D01*
X124627000Y-96289500D01*
X124627000Y-96309500D01*
X124647000Y-96309500D01*
X124647000Y-96563500D01*
X124627000Y-96563500D01*
X124627000Y-97350250D01*
X124785750Y-97509000D01*
X124975000Y-97512072D01*
X125099482Y-97499812D01*
X125219180Y-97463502D01*
X125329494Y-97404537D01*
X125371777Y-97369837D01*
X125515858Y-97446850D01*
X125556983Y-97459325D01*
X125560000Y-97463001D01*
X125588998Y-97486799D01*
X126061847Y-97959649D01*
X126085932Y-98080729D01*
X126156414Y-98250889D01*
X126258738Y-98404028D01*
X126349710Y-98495000D01*
X126206000Y-98495000D01*
X125996767Y-98540624D01*
X125800455Y-98626191D01*
X125624609Y-98748413D01*
X125475986Y-98902592D01*
X125360298Y-99082803D01*
X125288592Y-99285999D01*
X125415498Y-99453000D01*
X126756000Y-99453000D01*
X126756000Y-99433000D01*
X127010000Y-99433000D01*
X127010000Y-99453000D01*
X127030000Y-99453000D01*
X127030000Y-99707000D01*
X127010000Y-99707000D01*
X127010000Y-99727000D01*
X126756000Y-99727000D01*
X126756000Y-99707000D01*
X125415498Y-99707000D01*
X125288592Y-99874001D01*
X125360298Y-100077197D01*
X125475986Y-100257408D01*
X125624609Y-100411587D01*
X125661294Y-100437085D01*
X125574414Y-100567111D01*
X125503932Y-100737271D01*
X125468000Y-100917911D01*
X125468000Y-101102089D01*
X125503932Y-101282729D01*
X125574414Y-101452889D01*
X125652878Y-101570319D01*
X125077002Y-102146194D01*
X125047999Y-102169997D01*
X125006677Y-102220349D01*
X124953026Y-102285722D01*
X124919738Y-102347999D01*
X124882454Y-102417752D01*
X124838997Y-102561013D01*
X124828000Y-102672666D01*
X124828000Y-102672676D01*
X124824324Y-102709998D01*
X124828000Y-102747321D01*
X124828001Y-105052670D01*
X124824324Y-105090002D01*
X124828001Y-105127335D01*
X124838998Y-105238988D01*
X124842641Y-105250997D01*
X124882454Y-105382248D01*
X124953026Y-105514278D01*
X125019805Y-105595647D01*
X125048000Y-105630003D01*
X125076998Y-105653801D01*
X125652878Y-106229681D01*
X125574414Y-106347111D01*
X125503932Y-106517271D01*
X125468000Y-106697911D01*
X125468000Y-106882089D01*
X125503932Y-107062729D01*
X125574414Y-107232889D01*
X125661294Y-107362915D01*
X125624609Y-107388413D01*
X125475986Y-107542592D01*
X125360298Y-107722803D01*
X125288592Y-107925999D01*
X125415498Y-108093000D01*
X126756000Y-108093000D01*
X126756000Y-108073000D01*
X127010000Y-108073000D01*
X127010000Y-108093000D01*
X128350502Y-108093000D01*
X128477408Y-107925999D01*
X128460703Y-107878663D01*
X128494185Y-107851185D01*
X128573537Y-107754494D01*
X128608076Y-107689877D01*
X130183197Y-109265000D01*
X127743441Y-109265000D01*
X127769233Y-109259376D01*
X127965545Y-109173809D01*
X128141391Y-109051587D01*
X128290014Y-108897408D01*
X128405702Y-108717197D01*
X128477408Y-108514001D01*
X128350502Y-108347000D01*
X127010000Y-108347000D01*
X127010000Y-108367000D01*
X126756000Y-108367000D01*
X126756000Y-108347000D01*
X125415498Y-108347000D01*
X125288592Y-108514001D01*
X125360298Y-108717197D01*
X125475986Y-108897408D01*
X125624609Y-109051587D01*
X125800455Y-109173809D01*
X125996767Y-109259376D01*
X126022559Y-109265000D01*
X123423441Y-109265000D01*
X123449233Y-109259376D01*
X123645545Y-109173809D01*
X123821391Y-109051587D01*
X123970014Y-108897408D01*
X124085702Y-108717197D01*
X124157408Y-108514001D01*
X124030502Y-108347000D01*
X122840000Y-108347000D01*
X122840000Y-108367000D01*
X122586000Y-108367000D01*
X122586000Y-108347000D01*
X121395498Y-108347000D01*
X121268592Y-108514001D01*
X121340298Y-108717197D01*
X121455986Y-108897408D01*
X121604609Y-109051587D01*
X121780455Y-109173809D01*
X121976238Y-109259145D01*
X121754979Y-109237451D01*
X121519288Y-109166291D01*
X121301912Y-109050711D01*
X121111121Y-108895104D01*
X120954189Y-108705408D01*
X120837094Y-108488843D01*
X120764291Y-108253656D01*
X120735000Y-107974972D01*
X120735000Y-107925999D01*
X121268592Y-107925999D01*
X121395498Y-108093000D01*
X122586000Y-108093000D01*
X122586000Y-107135000D01*
X122840000Y-107135000D01*
X122840000Y-108093000D01*
X124030502Y-108093000D01*
X124157408Y-107925999D01*
X124085702Y-107722803D01*
X123970014Y-107542592D01*
X123821391Y-107388413D01*
X123645545Y-107266191D01*
X123449233Y-107180624D01*
X123240000Y-107135000D01*
X122840000Y-107135000D01*
X122586000Y-107135000D01*
X122186000Y-107135000D01*
X121976767Y-107180624D01*
X121780455Y-107266191D01*
X121604609Y-107388413D01*
X121455986Y-107542592D01*
X121340298Y-107722803D01*
X121268592Y-107925999D01*
X120735000Y-107925999D01*
X120735000Y-99874001D01*
X121268592Y-99874001D01*
X121340298Y-100077197D01*
X121455986Y-100257408D01*
X121604609Y-100411587D01*
X121780455Y-100533809D01*
X121976767Y-100619376D01*
X122186000Y-100665000D01*
X122586000Y-100665000D01*
X122586000Y-99707000D01*
X122840000Y-99707000D01*
X122840000Y-100665000D01*
X123240000Y-100665000D01*
X123449233Y-100619376D01*
X123645545Y-100533809D01*
X123821391Y-100411587D01*
X123970014Y-100257408D01*
X124085702Y-100077197D01*
X124157408Y-99874001D01*
X124030502Y-99707000D01*
X122840000Y-99707000D01*
X122586000Y-99707000D01*
X121395498Y-99707000D01*
X121268592Y-99874001D01*
X120735000Y-99874001D01*
X120735000Y-99285999D01*
X121268592Y-99285999D01*
X121395498Y-99453000D01*
X122586000Y-99453000D01*
X122586000Y-98495000D01*
X122840000Y-98495000D01*
X122840000Y-99453000D01*
X124030502Y-99453000D01*
X124157408Y-99285999D01*
X124085702Y-99082803D01*
X123970014Y-98902592D01*
X123821391Y-98748413D01*
X123645545Y-98626191D01*
X123449233Y-98540624D01*
X123240000Y-98495000D01*
X122840000Y-98495000D01*
X122586000Y-98495000D01*
X122186000Y-98495000D01*
X121976767Y-98540624D01*
X121780455Y-98626191D01*
X121604609Y-98748413D01*
X121455986Y-98902592D01*
X121340298Y-99082803D01*
X121268592Y-99285999D01*
X120735000Y-99285999D01*
X120735000Y-97935973D01*
X120748962Y-97964214D01*
X121123745Y-98155020D01*
X121528551Y-98269044D01*
X121947824Y-98301902D01*
X122365451Y-98252334D01*
X122765383Y-98122243D01*
X123061038Y-97964214D01*
X123217048Y-97648653D01*
X121905000Y-96336605D01*
X121890858Y-96350748D01*
X121711253Y-96171143D01*
X121725395Y-96157000D01*
X121711253Y-96142858D01*
X121890858Y-95963253D01*
X121905000Y-95977395D01*
X121919143Y-95963253D01*
X122098748Y-96142858D01*
G37*
X122098748Y-96142858D02*
X122084605Y-96157000D01*
X123396653Y-97469048D01*
X123616608Y-97360304D01*
X123670506Y-97404537D01*
X123780820Y-97463502D01*
X123900518Y-97499812D01*
X124025000Y-97512072D01*
X124214250Y-97509000D01*
X124373000Y-97350250D01*
X124373000Y-96563500D01*
X124353000Y-96563500D01*
X124353000Y-96309500D01*
X124373000Y-96309500D01*
X124373000Y-96289500D01*
X124627000Y-96289500D01*
X124627000Y-96309500D01*
X124647000Y-96309500D01*
X124647000Y-96563500D01*
X124627000Y-96563500D01*
X124627000Y-97350250D01*
X124785750Y-97509000D01*
X124975000Y-97512072D01*
X125099482Y-97499812D01*
X125219180Y-97463502D01*
X125329494Y-97404537D01*
X125371777Y-97369837D01*
X125515858Y-97446850D01*
X125556983Y-97459325D01*
X125560000Y-97463001D01*
X125588998Y-97486799D01*
X126061847Y-97959649D01*
X126085932Y-98080729D01*
X126156414Y-98250889D01*
X126258738Y-98404028D01*
X126349710Y-98495000D01*
X126206000Y-98495000D01*
X125996767Y-98540624D01*
X125800455Y-98626191D01*
X125624609Y-98748413D01*
X125475986Y-98902592D01*
X125360298Y-99082803D01*
X125288592Y-99285999D01*
X125415498Y-99453000D01*
X126756000Y-99453000D01*
X126756000Y-99433000D01*
X127010000Y-99433000D01*
X127010000Y-99453000D01*
X127030000Y-99453000D01*
X127030000Y-99707000D01*
X127010000Y-99707000D01*
X127010000Y-99727000D01*
X126756000Y-99727000D01*
X126756000Y-99707000D01*
X125415498Y-99707000D01*
X125288592Y-99874001D01*
X125360298Y-100077197D01*
X125475986Y-100257408D01*
X125624609Y-100411587D01*
X125661294Y-100437085D01*
X125574414Y-100567111D01*
X125503932Y-100737271D01*
X125468000Y-100917911D01*
X125468000Y-101102089D01*
X125503932Y-101282729D01*
X125574414Y-101452889D01*
X125652878Y-101570319D01*
X125077002Y-102146194D01*
X125047999Y-102169997D01*
X125006677Y-102220349D01*
X124953026Y-102285722D01*
X124919738Y-102347999D01*
X124882454Y-102417752D01*
X124838997Y-102561013D01*
X124828000Y-102672666D01*
X124828000Y-102672676D01*
X124824324Y-102709998D01*
X124828000Y-102747321D01*
X124828001Y-105052670D01*
X124824324Y-105090002D01*
X124828001Y-105127335D01*
X124838998Y-105238988D01*
X124842641Y-105250997D01*
X124882454Y-105382248D01*
X124953026Y-105514278D01*
X125019805Y-105595647D01*
X125048000Y-105630003D01*
X125076998Y-105653801D01*
X125652878Y-106229681D01*
X125574414Y-106347111D01*
X125503932Y-106517271D01*
X125468000Y-106697911D01*
X125468000Y-106882089D01*
X125503932Y-107062729D01*
X125574414Y-107232889D01*
X125661294Y-107362915D01*
X125624609Y-107388413D01*
X125475986Y-107542592D01*
X125360298Y-107722803D01*
X125288592Y-107925999D01*
X125415498Y-108093000D01*
X126756000Y-108093000D01*
X126756000Y-108073000D01*
X127010000Y-108073000D01*
X127010000Y-108093000D01*
X128350502Y-108093000D01*
X128477408Y-107925999D01*
X128460703Y-107878663D01*
X128494185Y-107851185D01*
X128573537Y-107754494D01*
X128608076Y-107689877D01*
X130183197Y-109265000D01*
X127743441Y-109265000D01*
X127769233Y-109259376D01*
X127965545Y-109173809D01*
X128141391Y-109051587D01*
X128290014Y-108897408D01*
X128405702Y-108717197D01*
X128477408Y-108514001D01*
X128350502Y-108347000D01*
X127010000Y-108347000D01*
X127010000Y-108367000D01*
X126756000Y-108367000D01*
X126756000Y-108347000D01*
X125415498Y-108347000D01*
X125288592Y-108514001D01*
X125360298Y-108717197D01*
X125475986Y-108897408D01*
X125624609Y-109051587D01*
X125800455Y-109173809D01*
X125996767Y-109259376D01*
X126022559Y-109265000D01*
X123423441Y-109265000D01*
X123449233Y-109259376D01*
X123645545Y-109173809D01*
X123821391Y-109051587D01*
X123970014Y-108897408D01*
X124085702Y-108717197D01*
X124157408Y-108514001D01*
X124030502Y-108347000D01*
X122840000Y-108347000D01*
X122840000Y-108367000D01*
X122586000Y-108367000D01*
X122586000Y-108347000D01*
X121395498Y-108347000D01*
X121268592Y-108514001D01*
X121340298Y-108717197D01*
X121455986Y-108897408D01*
X121604609Y-109051587D01*
X121780455Y-109173809D01*
X121976238Y-109259145D01*
X121754979Y-109237451D01*
X121519288Y-109166291D01*
X121301912Y-109050711D01*
X121111121Y-108895104D01*
X120954189Y-108705408D01*
X120837094Y-108488843D01*
X120764291Y-108253656D01*
X120735000Y-107974972D01*
X120735000Y-107925999D01*
X121268592Y-107925999D01*
X121395498Y-108093000D01*
X122586000Y-108093000D01*
X122586000Y-107135000D01*
X122840000Y-107135000D01*
X122840000Y-108093000D01*
X124030502Y-108093000D01*
X124157408Y-107925999D01*
X124085702Y-107722803D01*
X123970014Y-107542592D01*
X123821391Y-107388413D01*
X123645545Y-107266191D01*
X123449233Y-107180624D01*
X123240000Y-107135000D01*
X122840000Y-107135000D01*
X122586000Y-107135000D01*
X122186000Y-107135000D01*
X121976767Y-107180624D01*
X121780455Y-107266191D01*
X121604609Y-107388413D01*
X121455986Y-107542592D01*
X121340298Y-107722803D01*
X121268592Y-107925999D01*
X120735000Y-107925999D01*
X120735000Y-99874001D01*
X121268592Y-99874001D01*
X121340298Y-100077197D01*
X121455986Y-100257408D01*
X121604609Y-100411587D01*
X121780455Y-100533809D01*
X121976767Y-100619376D01*
X122186000Y-100665000D01*
X122586000Y-100665000D01*
X122586000Y-99707000D01*
X122840000Y-99707000D01*
X122840000Y-100665000D01*
X123240000Y-100665000D01*
X123449233Y-100619376D01*
X123645545Y-100533809D01*
X123821391Y-100411587D01*
X123970014Y-100257408D01*
X124085702Y-100077197D01*
X124157408Y-99874001D01*
X124030502Y-99707000D01*
X122840000Y-99707000D01*
X122586000Y-99707000D01*
X121395498Y-99707000D01*
X121268592Y-99874001D01*
X120735000Y-99874001D01*
X120735000Y-99285999D01*
X121268592Y-99285999D01*
X121395498Y-99453000D01*
X122586000Y-99453000D01*
X122586000Y-98495000D01*
X122840000Y-98495000D01*
X122840000Y-99453000D01*
X124030502Y-99453000D01*
X124157408Y-99285999D01*
X124085702Y-99082803D01*
X123970014Y-98902592D01*
X123821391Y-98748413D01*
X123645545Y-98626191D01*
X123449233Y-98540624D01*
X123240000Y-98495000D01*
X122840000Y-98495000D01*
X122586000Y-98495000D01*
X122186000Y-98495000D01*
X121976767Y-98540624D01*
X121780455Y-98626191D01*
X121604609Y-98748413D01*
X121455986Y-98902592D01*
X121340298Y-99082803D01*
X121268592Y-99285999D01*
X120735000Y-99285999D01*
X120735000Y-97935973D01*
X120748962Y-97964214D01*
X121123745Y-98155020D01*
X121528551Y-98269044D01*
X121947824Y-98301902D01*
X122365451Y-98252334D01*
X122765383Y-98122243D01*
X123061038Y-97964214D01*
X123217048Y-97648653D01*
X121905000Y-96336605D01*
X121890858Y-96350748D01*
X121711253Y-96171143D01*
X121725395Y-96157000D01*
X121711253Y-96142858D01*
X121890858Y-95963253D01*
X121905000Y-95977395D01*
X121919143Y-95963253D01*
X122098748Y-96142858D01*
G36*
X149245021Y-94762549D02*
G01*
X149480712Y-94833708D01*
X149698089Y-94949291D01*
X149888879Y-95104895D01*
X150045811Y-95294593D01*
X150162906Y-95511157D01*
X150235709Y-95746344D01*
X150265000Y-96025028D01*
X150265001Y-107964043D01*
X150237451Y-108245021D01*
X150166291Y-108480712D01*
X150050711Y-108698088D01*
X149895104Y-108888879D01*
X149705408Y-109045811D01*
X149488843Y-109162906D01*
X149253656Y-109235709D01*
X148974972Y-109265000D01*
X143408552Y-109265000D01*
X143481004Y-109176717D01*
X143545744Y-109055597D01*
X143585611Y-108924175D01*
X143599072Y-108787500D01*
X143599072Y-108263072D01*
X144123500Y-108263072D01*
X144260175Y-108249611D01*
X144391597Y-108209744D01*
X144512717Y-108145004D01*
X144618879Y-108057879D01*
X144706004Y-107951717D01*
X144770744Y-107830597D01*
X144810611Y-107699175D01*
X144824072Y-107562500D01*
X144824072Y-107437500D01*
X144810611Y-107300825D01*
X144795193Y-107250000D01*
X144810611Y-107199175D01*
X144824072Y-107062500D01*
X144824072Y-106937500D01*
X144810611Y-106800825D01*
X144795193Y-106750000D01*
X144810611Y-106699175D01*
X144824072Y-106562500D01*
X144824072Y-106437500D01*
X144810611Y-106300825D01*
X144795193Y-106250000D01*
X144810611Y-106199175D01*
X144824072Y-106062500D01*
X144824072Y-105937500D01*
X144810611Y-105800825D01*
X144795193Y-105750000D01*
X144810611Y-105699175D01*
X144824072Y-105562500D01*
X144824072Y-105437500D01*
X144810611Y-105300825D01*
X144795193Y-105250000D01*
X144810611Y-105199175D01*
X144824072Y-105062500D01*
X144824072Y-104937500D01*
X144810611Y-104800825D01*
X144795193Y-104750000D01*
X144810611Y-104699175D01*
X144824072Y-104562500D01*
X144824072Y-104437500D01*
X144810611Y-104300825D01*
X144770744Y-104169403D01*
X144706004Y-104048283D01*
X144618879Y-103942121D01*
X144512717Y-103854996D01*
X144391597Y-103790256D01*
X144260175Y-103750389D01*
X144123500Y-103736928D01*
X143599072Y-103736928D01*
X143599072Y-103212500D01*
X143585611Y-103075825D01*
X143545744Y-102944403D01*
X143481004Y-102823283D01*
X143393879Y-102717121D01*
X143287717Y-102629996D01*
X143166597Y-102565256D01*
X143035175Y-102525389D01*
X142898500Y-102511928D01*
X142872813Y-102511928D01*
X142879747Y-102477072D01*
X142977250Y-102477072D01*
X143144408Y-102460608D01*
X143305142Y-102411850D01*
X143453275Y-102332671D01*
X143583115Y-102226115D01*
X143666918Y-102124000D01*
X144854678Y-102124000D01*
X144892000Y-102127676D01*
X144929322Y-102124000D01*
X144929333Y-102124000D01*
X145040986Y-102113003D01*
X145184247Y-102069546D01*
X145316276Y-101998974D01*
X145432001Y-101904001D01*
X145439000Y-101895473D01*
X145439000Y-101999002D01*
X145603844Y-101999002D01*
X145482524Y-102228890D01*
X145527175Y-102376099D01*
X145652359Y-102638920D01*
X145826412Y-102872269D01*
X146042645Y-103067178D01*
X146159534Y-103136805D01*
X145977368Y-103258525D01*
X145770525Y-103465368D01*
X145608010Y-103708589D01*
X145496068Y-103978842D01*
X145439000Y-104265740D01*
X145439000Y-104558260D01*
X145496068Y-104845158D01*
X145608010Y-105115411D01*
X145770525Y-105358632D01*
X145977368Y-105565475D01*
X146151760Y-105682000D01*
X145977368Y-105798525D01*
X145770525Y-106005368D01*
X145608010Y-106248589D01*
X145496068Y-106518842D01*
X145439000Y-106805740D01*
X145439000Y-107098260D01*
X145496068Y-107385158D01*
X145608010Y-107655411D01*
X145770525Y-107898632D01*
X145977368Y-108105475D01*
X146220589Y-108267990D01*
X146490842Y-108379932D01*
X146777740Y-108437000D01*
X147070260Y-108437000D01*
X147357158Y-108379932D01*
X147627411Y-108267990D01*
X147870632Y-108105475D01*
X148077475Y-107898632D01*
X148239990Y-107655411D01*
X148351932Y-107385158D01*
X148409000Y-107098260D01*
X148409000Y-106805740D01*
X148351932Y-106518842D01*
X148239990Y-106248589D01*
X148077475Y-106005368D01*
X147870632Y-105798525D01*
X147696240Y-105682000D01*
X147870632Y-105565475D01*
X148077475Y-105358632D01*
X148239990Y-105115411D01*
X148351932Y-104845158D01*
X148409000Y-104558260D01*
X148409000Y-104265740D01*
X148351932Y-103978842D01*
X148239990Y-103708589D01*
X148077475Y-103465368D01*
X147870632Y-103258525D01*
X147688466Y-103136805D01*
X147805355Y-103067178D01*
X148021588Y-102872269D01*
X148195641Y-102638920D01*
X148320825Y-102376099D01*
X148365476Y-102228890D01*
X148244155Y-101999000D01*
X147051000Y-101999000D01*
X147051000Y-102019000D01*
X146797000Y-102019000D01*
X146797000Y-101999000D01*
X146777000Y-101999000D01*
X146777000Y-101745000D01*
X146797000Y-101745000D01*
X146797000Y-101725000D01*
X147051000Y-101725000D01*
X147051000Y-101745000D01*
X148244155Y-101745000D01*
X148365476Y-101515110D01*
X148320825Y-101367901D01*
X148195641Y-101105080D01*
X148021588Y-100871731D01*
X147805355Y-100676822D01*
X147688466Y-100607195D01*
X147870632Y-100485475D01*
X148077475Y-100278632D01*
X148239990Y-100035411D01*
X148351932Y-99765158D01*
X148409000Y-99478260D01*
X148409000Y-99185740D01*
X148351932Y-98898842D01*
X148239990Y-98628589D01*
X148077475Y-98385368D01*
X147945620Y-98253513D01*
X148018180Y-98231502D01*
X148128494Y-98172537D01*
X148225185Y-98093185D01*
X148304537Y-97996494D01*
X148363502Y-97886180D01*
X148399812Y-97766482D01*
X148412072Y-97642000D01*
X148412072Y-95942000D01*
X148399812Y-95817518D01*
X148363502Y-95697820D01*
X148304537Y-95587506D01*
X148225185Y-95490815D01*
X148128494Y-95411463D01*
X148018180Y-95352498D01*
X147898482Y-95316188D01*
X147774000Y-95303928D01*
X146074000Y-95303928D01*
X145949518Y-95316188D01*
X145829820Y-95352498D01*
X145719506Y-95411463D01*
X145622815Y-95490815D01*
X145595581Y-95524000D01*
X143666918Y-95524000D01*
X143583115Y-95421885D01*
X143453275Y-95315329D01*
X143305142Y-95236150D01*
X143144408Y-95187392D01*
X142977250Y-95170928D01*
X142539750Y-95170928D01*
X142372592Y-95187392D01*
X142211858Y-95236150D01*
X142063725Y-95315329D01*
X141971000Y-95391426D01*
X141878275Y-95315329D01*
X141730142Y-95236150D01*
X141569408Y-95187392D01*
X141402250Y-95170928D01*
X140964750Y-95170928D01*
X140797592Y-95187392D01*
X140636858Y-95236150D01*
X140488725Y-95315329D01*
X140358885Y-95421885D01*
X140275082Y-95524000D01*
X139040020Y-95524000D01*
X138999142Y-95502150D01*
X138838408Y-95453392D01*
X138671250Y-95436928D01*
X138158750Y-95436928D01*
X137991592Y-95453392D01*
X137830858Y-95502150D01*
X137682725Y-95581329D01*
X137560712Y-95681462D01*
X137426250Y-95547000D01*
X136327000Y-95547000D01*
X136327000Y-96896250D01*
X136485750Y-97055000D01*
X136950000Y-97058072D01*
X137074482Y-97045812D01*
X137194180Y-97009502D01*
X137304494Y-96950537D01*
X137328283Y-96931014D01*
X137367150Y-97059142D01*
X137446329Y-97207275D01*
X137522426Y-97300000D01*
X137446329Y-97392725D01*
X137367150Y-97540858D01*
X137318392Y-97701592D01*
X137301928Y-97868750D01*
X137301928Y-98306250D01*
X137318392Y-98473408D01*
X137367150Y-98634142D01*
X137446329Y-98782275D01*
X137532684Y-98887500D01*
X137446329Y-98992725D01*
X137367150Y-99140858D01*
X137318392Y-99301592D01*
X137301928Y-99468750D01*
X137301928Y-99725770D01*
X136506998Y-100520701D01*
X136478000Y-100544499D01*
X136454202Y-100573497D01*
X136454201Y-100573498D01*
X136426917Y-100606743D01*
X136425812Y-100595518D01*
X136389502Y-100475820D01*
X136330537Y-100365506D01*
X136251185Y-100268815D01*
X136154494Y-100189463D01*
X136044180Y-100130498D01*
X135924482Y-100094188D01*
X135800000Y-100081928D01*
X134660000Y-100081928D01*
X134660000Y-98410535D01*
X134728586Y-98307889D01*
X134799068Y-98137729D01*
X134835000Y-97957089D01*
X134835000Y-97772911D01*
X134799068Y-97592271D01*
X134728586Y-97422111D01*
X134660000Y-97319465D01*
X134660000Y-97057087D01*
X134774482Y-97045812D01*
X134894180Y-97009502D01*
X135004494Y-96950537D01*
X135050000Y-96913191D01*
X135095506Y-96950537D01*
X135205820Y-97009502D01*
X135325518Y-97045812D01*
X135450000Y-97058072D01*
X135914250Y-97055000D01*
X136073000Y-96896250D01*
X136073000Y-95547000D01*
X136053000Y-95547000D01*
X136053000Y-95293000D01*
X136073000Y-95293000D01*
X136073000Y-95273000D01*
X136327000Y-95273000D01*
X136327000Y-95293000D01*
X137426250Y-95293000D01*
X137585000Y-95134250D01*
X137586717Y-94735000D01*
X148964053Y-94735000D01*
X149245021Y-94762549D01*
G37*
X149245021Y-94762549D02*
X149480712Y-94833708D01*
X149698089Y-94949291D01*
X149888879Y-95104895D01*
X150045811Y-95294593D01*
X150162906Y-95511157D01*
X150235709Y-95746344D01*
X150265000Y-96025028D01*
X150265001Y-107964043D01*
X150237451Y-108245021D01*
X150166291Y-108480712D01*
X150050711Y-108698088D01*
X149895104Y-108888879D01*
X149705408Y-109045811D01*
X149488843Y-109162906D01*
X149253656Y-109235709D01*
X148974972Y-109265000D01*
X143408552Y-109265000D01*
X143481004Y-109176717D01*
X143545744Y-109055597D01*
X143585611Y-108924175D01*
X143599072Y-108787500D01*
X143599072Y-108263072D01*
X144123500Y-108263072D01*
X144260175Y-108249611D01*
X144391597Y-108209744D01*
X144512717Y-108145004D01*
X144618879Y-108057879D01*
X144706004Y-107951717D01*
X144770744Y-107830597D01*
X144810611Y-107699175D01*
X144824072Y-107562500D01*
X144824072Y-107437500D01*
X144810611Y-107300825D01*
X144795193Y-107250000D01*
X144810611Y-107199175D01*
X144824072Y-107062500D01*
X144824072Y-106937500D01*
X144810611Y-106800825D01*
X144795193Y-106750000D01*
X144810611Y-106699175D01*
X144824072Y-106562500D01*
X144824072Y-106437500D01*
X144810611Y-106300825D01*
X144795193Y-106250000D01*
X144810611Y-106199175D01*
X144824072Y-106062500D01*
X144824072Y-105937500D01*
X144810611Y-105800825D01*
X144795193Y-105750000D01*
X144810611Y-105699175D01*
X144824072Y-105562500D01*
X144824072Y-105437500D01*
X144810611Y-105300825D01*
X144795193Y-105250000D01*
X144810611Y-105199175D01*
X144824072Y-105062500D01*
X144824072Y-104937500D01*
X144810611Y-104800825D01*
X144795193Y-104750000D01*
X144810611Y-104699175D01*
X144824072Y-104562500D01*
X144824072Y-104437500D01*
X144810611Y-104300825D01*
X144770744Y-104169403D01*
X144706004Y-104048283D01*
X144618879Y-103942121D01*
X144512717Y-103854996D01*
X144391597Y-103790256D01*
X144260175Y-103750389D01*
X144123500Y-103736928D01*
X143599072Y-103736928D01*
X143599072Y-103212500D01*
X143585611Y-103075825D01*
X143545744Y-102944403D01*
X143481004Y-102823283D01*
X143393879Y-102717121D01*
X143287717Y-102629996D01*
X143166597Y-102565256D01*
X143035175Y-102525389D01*
X142898500Y-102511928D01*
X142872813Y-102511928D01*
X142879747Y-102477072D01*
X142977250Y-102477072D01*
X143144408Y-102460608D01*
X143305142Y-102411850D01*
X143453275Y-102332671D01*
X143583115Y-102226115D01*
X143666918Y-102124000D01*
X144854678Y-102124000D01*
X144892000Y-102127676D01*
X144929322Y-102124000D01*
X144929333Y-102124000D01*
X145040986Y-102113003D01*
X145184247Y-102069546D01*
X145316276Y-101998974D01*
X145432001Y-101904001D01*
X145439000Y-101895473D01*
X145439000Y-101999002D01*
X145603844Y-101999002D01*
X145482524Y-102228890D01*
X145527175Y-102376099D01*
X145652359Y-102638920D01*
X145826412Y-102872269D01*
X146042645Y-103067178D01*
X146159534Y-103136805D01*
X145977368Y-103258525D01*
X145770525Y-103465368D01*
X145608010Y-103708589D01*
X145496068Y-103978842D01*
X145439000Y-104265740D01*
X145439000Y-104558260D01*
X145496068Y-104845158D01*
X145608010Y-105115411D01*
X145770525Y-105358632D01*
X145977368Y-105565475D01*
X146151760Y-105682000D01*
X145977368Y-105798525D01*
X145770525Y-106005368D01*
X145608010Y-106248589D01*
X145496068Y-106518842D01*
X145439000Y-106805740D01*
X145439000Y-107098260D01*
X145496068Y-107385158D01*
X145608010Y-107655411D01*
X145770525Y-107898632D01*
X145977368Y-108105475D01*
X146220589Y-108267990D01*
X146490842Y-108379932D01*
X146777740Y-108437000D01*
X147070260Y-108437000D01*
X147357158Y-108379932D01*
X147627411Y-108267990D01*
X147870632Y-108105475D01*
X148077475Y-107898632D01*
X148239990Y-107655411D01*
X148351932Y-107385158D01*
X148409000Y-107098260D01*
X148409000Y-106805740D01*
X148351932Y-106518842D01*
X148239990Y-106248589D01*
X148077475Y-106005368D01*
X147870632Y-105798525D01*
X147696240Y-105682000D01*
X147870632Y-105565475D01*
X148077475Y-105358632D01*
X148239990Y-105115411D01*
X148351932Y-104845158D01*
X148409000Y-104558260D01*
X148409000Y-104265740D01*
X148351932Y-103978842D01*
X148239990Y-103708589D01*
X148077475Y-103465368D01*
X147870632Y-103258525D01*
X147688466Y-103136805D01*
X147805355Y-103067178D01*
X148021588Y-102872269D01*
X148195641Y-102638920D01*
X148320825Y-102376099D01*
X148365476Y-102228890D01*
X148244155Y-101999000D01*
X147051000Y-101999000D01*
X147051000Y-102019000D01*
X146797000Y-102019000D01*
X146797000Y-101999000D01*
X146777000Y-101999000D01*
X146777000Y-101745000D01*
X146797000Y-101745000D01*
X146797000Y-101725000D01*
X147051000Y-101725000D01*
X147051000Y-101745000D01*
X148244155Y-101745000D01*
X148365476Y-101515110D01*
X148320825Y-101367901D01*
X148195641Y-101105080D01*
X148021588Y-100871731D01*
X147805355Y-100676822D01*
X147688466Y-100607195D01*
X147870632Y-100485475D01*
X148077475Y-100278632D01*
X148239990Y-100035411D01*
X148351932Y-99765158D01*
X148409000Y-99478260D01*
X148409000Y-99185740D01*
X148351932Y-98898842D01*
X148239990Y-98628589D01*
X148077475Y-98385368D01*
X147945620Y-98253513D01*
X148018180Y-98231502D01*
X148128494Y-98172537D01*
X148225185Y-98093185D01*
X148304537Y-97996494D01*
X148363502Y-97886180D01*
X148399812Y-97766482D01*
X148412072Y-97642000D01*
X148412072Y-95942000D01*
X148399812Y-95817518D01*
X148363502Y-95697820D01*
X148304537Y-95587506D01*
X148225185Y-95490815D01*
X148128494Y-95411463D01*
X148018180Y-95352498D01*
X147898482Y-95316188D01*
X147774000Y-95303928D01*
X146074000Y-95303928D01*
X145949518Y-95316188D01*
X145829820Y-95352498D01*
X145719506Y-95411463D01*
X145622815Y-95490815D01*
X145595581Y-95524000D01*
X143666918Y-95524000D01*
X143583115Y-95421885D01*
X143453275Y-95315329D01*
X143305142Y-95236150D01*
X143144408Y-95187392D01*
X142977250Y-95170928D01*
X142539750Y-95170928D01*
X142372592Y-95187392D01*
X142211858Y-95236150D01*
X142063725Y-95315329D01*
X141971000Y-95391426D01*
X141878275Y-95315329D01*
X141730142Y-95236150D01*
X141569408Y-95187392D01*
X141402250Y-95170928D01*
X140964750Y-95170928D01*
X140797592Y-95187392D01*
X140636858Y-95236150D01*
X140488725Y-95315329D01*
X140358885Y-95421885D01*
X140275082Y-95524000D01*
X139040020Y-95524000D01*
X138999142Y-95502150D01*
X138838408Y-95453392D01*
X138671250Y-95436928D01*
X138158750Y-95436928D01*
X137991592Y-95453392D01*
X137830858Y-95502150D01*
X137682725Y-95581329D01*
X137560712Y-95681462D01*
X137426250Y-95547000D01*
X136327000Y-95547000D01*
X136327000Y-96896250D01*
X136485750Y-97055000D01*
X136950000Y-97058072D01*
X137074482Y-97045812D01*
X137194180Y-97009502D01*
X137304494Y-96950537D01*
X137328283Y-96931014D01*
X137367150Y-97059142D01*
X137446329Y-97207275D01*
X137522426Y-97300000D01*
X137446329Y-97392725D01*
X137367150Y-97540858D01*
X137318392Y-97701592D01*
X137301928Y-97868750D01*
X137301928Y-98306250D01*
X137318392Y-98473408D01*
X137367150Y-98634142D01*
X137446329Y-98782275D01*
X137532684Y-98887500D01*
X137446329Y-98992725D01*
X137367150Y-99140858D01*
X137318392Y-99301592D01*
X137301928Y-99468750D01*
X137301928Y-99725770D01*
X136506998Y-100520701D01*
X136478000Y-100544499D01*
X136454202Y-100573497D01*
X136454201Y-100573498D01*
X136426917Y-100606743D01*
X136425812Y-100595518D01*
X136389502Y-100475820D01*
X136330537Y-100365506D01*
X136251185Y-100268815D01*
X136154494Y-100189463D01*
X136044180Y-100130498D01*
X135924482Y-100094188D01*
X135800000Y-100081928D01*
X134660000Y-100081928D01*
X134660000Y-98410535D01*
X134728586Y-98307889D01*
X134799068Y-98137729D01*
X134835000Y-97957089D01*
X134835000Y-97772911D01*
X134799068Y-97592271D01*
X134728586Y-97422111D01*
X134660000Y-97319465D01*
X134660000Y-97057087D01*
X134774482Y-97045812D01*
X134894180Y-97009502D01*
X135004494Y-96950537D01*
X135050000Y-96913191D01*
X135095506Y-96950537D01*
X135205820Y-97009502D01*
X135325518Y-97045812D01*
X135450000Y-97058072D01*
X135914250Y-97055000D01*
X136073000Y-96896250D01*
X136073000Y-95547000D01*
X136053000Y-95547000D01*
X136053000Y-95293000D01*
X136073000Y-95293000D01*
X136073000Y-95273000D01*
X136327000Y-95273000D01*
X136327000Y-95293000D01*
X137426250Y-95293000D01*
X137585000Y-95134250D01*
X137586717Y-94735000D01*
X148964053Y-94735000D01*
X149245021Y-94762549D01*
G36*
X133985750Y-107360000D02*
G01*
X134175000Y-107363072D01*
X134291302Y-107351618D01*
X134253392Y-107476592D01*
X134236928Y-107643750D01*
X134236928Y-108156250D01*
X134253392Y-108323408D01*
X134300287Y-108478000D01*
X131545803Y-108478000D01*
X130580874Y-107513072D01*
X130731250Y-107513072D01*
X130898408Y-107496608D01*
X131059142Y-107447850D01*
X131207275Y-107368671D01*
X131300000Y-107292574D01*
X131392725Y-107368671D01*
X131540858Y-107447850D01*
X131701592Y-107496608D01*
X131868750Y-107513072D01*
X131994754Y-107513072D01*
X131998406Y-107521889D01*
X132100730Y-107675028D01*
X132230964Y-107805262D01*
X132384103Y-107907586D01*
X132554263Y-107978068D01*
X132734903Y-108014000D01*
X132919081Y-108014000D01*
X133099721Y-107978068D01*
X133269881Y-107907586D01*
X133423020Y-107805262D01*
X133553254Y-107675028D01*
X133655578Y-107521889D01*
X133722634Y-107360000D01*
X133827002Y-107360000D01*
X133827002Y-107201252D01*
X133985750Y-107360000D01*
G37*
X133985750Y-107360000D02*
X134175000Y-107363072D01*
X134291302Y-107351618D01*
X134253392Y-107476592D01*
X134236928Y-107643750D01*
X134236928Y-108156250D01*
X134253392Y-108323408D01*
X134300287Y-108478000D01*
X131545803Y-108478000D01*
X130580874Y-107513072D01*
X130731250Y-107513072D01*
X130898408Y-107496608D01*
X131059142Y-107447850D01*
X131207275Y-107368671D01*
X131300000Y-107292574D01*
X131392725Y-107368671D01*
X131540858Y-107447850D01*
X131701592Y-107496608D01*
X131868750Y-107513072D01*
X131994754Y-107513072D01*
X131998406Y-107521889D01*
X132100730Y-107675028D01*
X132230964Y-107805262D01*
X132384103Y-107907586D01*
X132554263Y-107978068D01*
X132734903Y-108014000D01*
X132919081Y-108014000D01*
X133099721Y-107978068D01*
X133269881Y-107907586D01*
X133423020Y-107805262D01*
X133553254Y-107675028D01*
X133655578Y-107521889D01*
X133722634Y-107360000D01*
X133827002Y-107360000D01*
X133827002Y-107201252D01*
X133985750Y-107360000D01*
G36*
X135447000Y-106414500D02*
G01*
X135427000Y-106414500D01*
X135427000Y-106434500D01*
X135173000Y-106434500D01*
X135173000Y-106414500D01*
X133827000Y-106414500D01*
X133827000Y-106434500D01*
X133573000Y-106434500D01*
X133573000Y-106414500D01*
X133553000Y-106414500D01*
X133553000Y-106235010D01*
X135447000Y-106235010D01*
X135447000Y-106414500D01*
G37*
X135447000Y-106414500D02*
X135427000Y-106414500D01*
X135427000Y-106434500D01*
X135173000Y-106434500D01*
X135173000Y-106414500D01*
X133827000Y-106414500D01*
X133827000Y-106434500D01*
X133573000Y-106434500D01*
X133573000Y-106414500D01*
X133553000Y-106414500D01*
X133553000Y-106235010D01*
X135447000Y-106235010D01*
X135447000Y-106414500D01*
G36*
X141463000Y-105873000D02*
G01*
X141483000Y-105873000D01*
X141483000Y-106127000D01*
X141463000Y-106127000D01*
X141463000Y-106147000D01*
X141209000Y-106147000D01*
X141209000Y-106127000D01*
X141189000Y-106127000D01*
X141189000Y-105873000D01*
X141209000Y-105873000D01*
X141209000Y-105853000D01*
X141463000Y-105853000D01*
X141463000Y-105873000D01*
G37*
X141463000Y-105873000D02*
X141483000Y-105873000D01*
X141483000Y-106127000D01*
X141463000Y-106127000D01*
X141463000Y-106147000D01*
X141209000Y-106147000D01*
X141209000Y-106127000D01*
X141189000Y-106127000D01*
X141189000Y-105873000D01*
X141209000Y-105873000D01*
X141209000Y-105853000D01*
X141463000Y-105853000D01*
X141463000Y-105873000D01*
G36*
X137027000Y-104573000D02*
G01*
X137047000Y-104573000D01*
X137047000Y-104715010D01*
X136753000Y-104715010D01*
X136753000Y-104573000D01*
X136773000Y-104573000D01*
X136773000Y-104553000D01*
X137027000Y-104553000D01*
X137027000Y-104573000D01*
G37*
X137027000Y-104573000D02*
X137047000Y-104573000D01*
X137047000Y-104715010D01*
X136753000Y-104715010D01*
X136753000Y-104573000D01*
X136773000Y-104573000D01*
X136773000Y-104553000D01*
X137027000Y-104553000D01*
X137027000Y-104573000D01*
G36*
X140173150Y-101948142D02*
G01*
X140252329Y-102096275D01*
X140326336Y-102186453D01*
X140324998Y-102187791D01*
X140296000Y-102211589D01*
X140272202Y-102240587D01*
X140272201Y-102240588D01*
X140201026Y-102327314D01*
X140130454Y-102459344D01*
X140118122Y-102500000D01*
X140107744Y-102534211D01*
X140086000Y-102540807D01*
X140035175Y-102525389D01*
X139898500Y-102511928D01*
X139773500Y-102511928D01*
X139636825Y-102525389D01*
X139505403Y-102565256D01*
X139384283Y-102629996D01*
X139278121Y-102717121D01*
X139190996Y-102823283D01*
X139126256Y-102944403D01*
X139086389Y-103075825D01*
X139072928Y-103212500D01*
X139072928Y-103736928D01*
X138548500Y-103736928D01*
X138411825Y-103750389D01*
X138280403Y-103790256D01*
X138159283Y-103854996D01*
X138053121Y-103942121D01*
X137971541Y-104041526D01*
X137964502Y-104018320D01*
X137905537Y-103908006D01*
X137826185Y-103811315D01*
X137729494Y-103731963D01*
X137619180Y-103672998D01*
X137499482Y-103636688D01*
X137375000Y-103624428D01*
X137185750Y-103627500D01*
X137027002Y-103786248D01*
X137027002Y-103627500D01*
X136972302Y-103627500D01*
X137169649Y-103430153D01*
X137290729Y-103406068D01*
X137460889Y-103335586D01*
X137614028Y-103233262D01*
X137744262Y-103103028D01*
X137846586Y-102949889D01*
X137917068Y-102779729D01*
X137953000Y-102599089D01*
X137953000Y-102414911D01*
X137930771Y-102303158D01*
X137991592Y-102321608D01*
X138158750Y-102338072D01*
X138671250Y-102338072D01*
X138838408Y-102321608D01*
X138999142Y-102272850D01*
X139147275Y-102193671D01*
X139277115Y-102087115D01*
X139330143Y-102022500D01*
X139583678Y-102022500D01*
X139621000Y-102026176D01*
X139658322Y-102022500D01*
X139658333Y-102022500D01*
X139769986Y-102011503D01*
X139913247Y-101968046D01*
X140045276Y-101897474D01*
X140135355Y-101823548D01*
X140173150Y-101948142D01*
G37*
X140173150Y-101948142D02*
X140252329Y-102096275D01*
X140326336Y-102186453D01*
X140324998Y-102187791D01*
X140296000Y-102211589D01*
X140272202Y-102240587D01*
X140272201Y-102240588D01*
X140201026Y-102327314D01*
X140130454Y-102459344D01*
X140118122Y-102500000D01*
X140107744Y-102534211D01*
X140086000Y-102540807D01*
X140035175Y-102525389D01*
X139898500Y-102511928D01*
X139773500Y-102511928D01*
X139636825Y-102525389D01*
X139505403Y-102565256D01*
X139384283Y-102629996D01*
X139278121Y-102717121D01*
X139190996Y-102823283D01*
X139126256Y-102944403D01*
X139086389Y-103075825D01*
X139072928Y-103212500D01*
X139072928Y-103736928D01*
X138548500Y-103736928D01*
X138411825Y-103750389D01*
X138280403Y-103790256D01*
X138159283Y-103854996D01*
X138053121Y-103942121D01*
X137971541Y-104041526D01*
X137964502Y-104018320D01*
X137905537Y-103908006D01*
X137826185Y-103811315D01*
X137729494Y-103731963D01*
X137619180Y-103672998D01*
X137499482Y-103636688D01*
X137375000Y-103624428D01*
X137185750Y-103627500D01*
X137027002Y-103786248D01*
X137027002Y-103627500D01*
X136972302Y-103627500D01*
X137169649Y-103430153D01*
X137290729Y-103406068D01*
X137460889Y-103335586D01*
X137614028Y-103233262D01*
X137744262Y-103103028D01*
X137846586Y-102949889D01*
X137917068Y-102779729D01*
X137953000Y-102599089D01*
X137953000Y-102414911D01*
X137930771Y-102303158D01*
X137991592Y-102321608D01*
X138158750Y-102338072D01*
X138671250Y-102338072D01*
X138838408Y-102321608D01*
X138999142Y-102272850D01*
X139147275Y-102193671D01*
X139277115Y-102087115D01*
X139330143Y-102022500D01*
X139583678Y-102022500D01*
X139621000Y-102026176D01*
X139658322Y-102022500D01*
X139658333Y-102022500D01*
X139769986Y-102011503D01*
X139913247Y-101968046D01*
X140045276Y-101897474D01*
X140135355Y-101823548D01*
X140173150Y-101948142D01*
G36*
X132795506Y-96950537D02*
G01*
X132905820Y-97009502D01*
X133025518Y-97045812D01*
X133140001Y-97057087D01*
X133140001Y-97319463D01*
X133071414Y-97422111D01*
X133000932Y-97592271D01*
X132965000Y-97772911D01*
X132965000Y-97957089D01*
X133000932Y-98137729D01*
X133071414Y-98307889D01*
X133140000Y-98410536D01*
X133140001Y-100081928D01*
X132000000Y-100081928D01*
X131875518Y-100094188D01*
X131755820Y-100130498D01*
X131645506Y-100189463D01*
X131548815Y-100268815D01*
X131469463Y-100365506D01*
X131410498Y-100475820D01*
X131374188Y-100595518D01*
X131361928Y-100720000D01*
X131361928Y-102720000D01*
X131374188Y-102844482D01*
X131410498Y-102964180D01*
X131469463Y-103074494D01*
X131548815Y-103171185D01*
X131645506Y-103250537D01*
X131755820Y-103309502D01*
X131875518Y-103345812D01*
X132000000Y-103358072D01*
X132940000Y-103358072D01*
X132940000Y-103804082D01*
X132905463Y-103832426D01*
X132782275Y-103731329D01*
X132634142Y-103652150D01*
X132473408Y-103603392D01*
X132306250Y-103586928D01*
X131868750Y-103586928D01*
X131701592Y-103603392D01*
X131540858Y-103652150D01*
X131392725Y-103731329D01*
X131300000Y-103807426D01*
X131207275Y-103731329D01*
X131059142Y-103652150D01*
X130898408Y-103603392D01*
X130731250Y-103586928D01*
X130293750Y-103586928D01*
X130279909Y-103588291D01*
X130245990Y-103417772D01*
X130175508Y-103247612D01*
X130073184Y-103094473D01*
X129942950Y-102964239D01*
X129789811Y-102861915D01*
X129619651Y-102791433D01*
X129498571Y-102767348D01*
X129370224Y-102639002D01*
X129346422Y-102609999D01*
X129230697Y-102515026D01*
X129098668Y-102444454D01*
X128955407Y-102400997D01*
X128843754Y-102390000D01*
X128843743Y-102390000D01*
X128806421Y-102386324D01*
X128769099Y-102390000D01*
X128672208Y-102390000D01*
X128681072Y-102300000D01*
X128681072Y-102260000D01*
X128843678Y-102260000D01*
X128881000Y-102263676D01*
X128918322Y-102260000D01*
X128918333Y-102260000D01*
X129029986Y-102249003D01*
X129173247Y-102205546D01*
X129305276Y-102134974D01*
X129421001Y-102040001D01*
X129444804Y-102010997D01*
X129654998Y-101800803D01*
X129684001Y-101777001D01*
X129778974Y-101661276D01*
X129849546Y-101529247D01*
X129893003Y-101385986D01*
X129904000Y-101274333D01*
X129904000Y-101274324D01*
X129907676Y-101237001D01*
X129904000Y-101199678D01*
X129904000Y-98861322D01*
X129907676Y-98823999D01*
X129904000Y-98786676D01*
X129904000Y-98786667D01*
X129893003Y-98675014D01*
X129849546Y-98531753D01*
X129778974Y-98399724D01*
X129746736Y-98360442D01*
X129707799Y-98312996D01*
X129707795Y-98312992D01*
X129684001Y-98283999D01*
X129655008Y-98260205D01*
X128891920Y-97497118D01*
X129043750Y-97512072D01*
X129556250Y-97512072D01*
X129723408Y-97495608D01*
X129884142Y-97446850D01*
X130032275Y-97367671D01*
X130162115Y-97261115D01*
X130215143Y-97196500D01*
X130546178Y-97196500D01*
X130583500Y-97200176D01*
X130620822Y-97196500D01*
X130620833Y-97196500D01*
X130732486Y-97185503D01*
X130875747Y-97142046D01*
X131007776Y-97071474D01*
X131024106Y-97058072D01*
X132350000Y-97058072D01*
X132474482Y-97045812D01*
X132594180Y-97009502D01*
X132704494Y-96950537D01*
X132750000Y-96913191D01*
X132795506Y-96950537D01*
G37*
X132795506Y-96950537D02*
X132905820Y-97009502D01*
X133025518Y-97045812D01*
X133140001Y-97057087D01*
X133140001Y-97319463D01*
X133071414Y-97422111D01*
X133000932Y-97592271D01*
X132965000Y-97772911D01*
X132965000Y-97957089D01*
X133000932Y-98137729D01*
X133071414Y-98307889D01*
X133140000Y-98410536D01*
X133140001Y-100081928D01*
X132000000Y-100081928D01*
X131875518Y-100094188D01*
X131755820Y-100130498D01*
X131645506Y-100189463D01*
X131548815Y-100268815D01*
X131469463Y-100365506D01*
X131410498Y-100475820D01*
X131374188Y-100595518D01*
X131361928Y-100720000D01*
X131361928Y-102720000D01*
X131374188Y-102844482D01*
X131410498Y-102964180D01*
X131469463Y-103074494D01*
X131548815Y-103171185D01*
X131645506Y-103250537D01*
X131755820Y-103309502D01*
X131875518Y-103345812D01*
X132000000Y-103358072D01*
X132940000Y-103358072D01*
X132940000Y-103804082D01*
X132905463Y-103832426D01*
X132782275Y-103731329D01*
X132634142Y-103652150D01*
X132473408Y-103603392D01*
X132306250Y-103586928D01*
X131868750Y-103586928D01*
X131701592Y-103603392D01*
X131540858Y-103652150D01*
X131392725Y-103731329D01*
X131300000Y-103807426D01*
X131207275Y-103731329D01*
X131059142Y-103652150D01*
X130898408Y-103603392D01*
X130731250Y-103586928D01*
X130293750Y-103586928D01*
X130279909Y-103588291D01*
X130245990Y-103417772D01*
X130175508Y-103247612D01*
X130073184Y-103094473D01*
X129942950Y-102964239D01*
X129789811Y-102861915D01*
X129619651Y-102791433D01*
X129498571Y-102767348D01*
X129370224Y-102639002D01*
X129346422Y-102609999D01*
X129230697Y-102515026D01*
X129098668Y-102444454D01*
X128955407Y-102400997D01*
X128843754Y-102390000D01*
X128843743Y-102390000D01*
X128806421Y-102386324D01*
X128769099Y-102390000D01*
X128672208Y-102390000D01*
X128681072Y-102300000D01*
X128681072Y-102260000D01*
X128843678Y-102260000D01*
X128881000Y-102263676D01*
X128918322Y-102260000D01*
X128918333Y-102260000D01*
X129029986Y-102249003D01*
X129173247Y-102205546D01*
X129305276Y-102134974D01*
X129421001Y-102040001D01*
X129444804Y-102010997D01*
X129654998Y-101800803D01*
X129684001Y-101777001D01*
X129778974Y-101661276D01*
X129849546Y-101529247D01*
X129893003Y-101385986D01*
X129904000Y-101274333D01*
X129904000Y-101274324D01*
X129907676Y-101237001D01*
X129904000Y-101199678D01*
X129904000Y-98861322D01*
X129907676Y-98823999D01*
X129904000Y-98786676D01*
X129904000Y-98786667D01*
X129893003Y-98675014D01*
X129849546Y-98531753D01*
X129778974Y-98399724D01*
X129746736Y-98360442D01*
X129707799Y-98312996D01*
X129707795Y-98312992D01*
X129684001Y-98283999D01*
X129655008Y-98260205D01*
X128891920Y-97497118D01*
X129043750Y-97512072D01*
X129556250Y-97512072D01*
X129723408Y-97495608D01*
X129884142Y-97446850D01*
X130032275Y-97367671D01*
X130162115Y-97261115D01*
X130215143Y-97196500D01*
X130546178Y-97196500D01*
X130583500Y-97200176D01*
X130620822Y-97196500D01*
X130620833Y-97196500D01*
X130732486Y-97185503D01*
X130875747Y-97142046D01*
X131007776Y-97071474D01*
X131024106Y-97058072D01*
X132350000Y-97058072D01*
X132474482Y-97045812D01*
X132594180Y-97009502D01*
X132704494Y-96950537D01*
X132750000Y-96913191D01*
X132795506Y-96950537D01*
G36*
X144635204Y-97088999D02*
G01*
X144838185Y-97183308D01*
X145025092Y-97275732D01*
X145195746Y-97366012D01*
X145349835Y-97453750D01*
X145435928Y-97506891D01*
X145435928Y-97642000D01*
X145448188Y-97766482D01*
X145484498Y-97886180D01*
X145543463Y-97996494D01*
X145622815Y-98093185D01*
X145719506Y-98172537D01*
X145829820Y-98231502D01*
X145902380Y-98253513D01*
X145770525Y-98385368D01*
X145608010Y-98628589D01*
X145496068Y-98898842D01*
X145439000Y-99185740D01*
X145439000Y-99333333D01*
X145436388Y-99428177D01*
X145428330Y-99504385D01*
X145414821Y-99576084D01*
X145396010Y-99644256D01*
X145371760Y-99710016D01*
X145341669Y-99774394D01*
X145305102Y-99838276D01*
X145261263Y-99902331D01*
X145209310Y-99966940D01*
X145141095Y-100040103D01*
X144577199Y-100604000D01*
X143666918Y-100604000D01*
X143607830Y-100532000D01*
X143689671Y-100432275D01*
X143768850Y-100284142D01*
X143817608Y-100123408D01*
X143834072Y-99956250D01*
X143834072Y-99443750D01*
X143817608Y-99276592D01*
X143768850Y-99115858D01*
X143689671Y-98967725D01*
X143593057Y-98850000D01*
X143689671Y-98732275D01*
X143768850Y-98584142D01*
X143817608Y-98423408D01*
X143834072Y-98256250D01*
X143834072Y-97743750D01*
X143817608Y-97576592D01*
X143768850Y-97415858D01*
X143689671Y-97267725D01*
X143586492Y-97142000D01*
X143666918Y-97044000D01*
X144532591Y-97044000D01*
X144635204Y-97088999D01*
G37*
X144635204Y-97088999D02*
X144838185Y-97183308D01*
X145025092Y-97275732D01*
X145195746Y-97366012D01*
X145349835Y-97453750D01*
X145435928Y-97506891D01*
X145435928Y-97642000D01*
X145448188Y-97766482D01*
X145484498Y-97886180D01*
X145543463Y-97996494D01*
X145622815Y-98093185D01*
X145719506Y-98172537D01*
X145829820Y-98231502D01*
X145902380Y-98253513D01*
X145770525Y-98385368D01*
X145608010Y-98628589D01*
X145496068Y-98898842D01*
X145439000Y-99185740D01*
X145439000Y-99333333D01*
X145436388Y-99428177D01*
X145428330Y-99504385D01*
X145414821Y-99576084D01*
X145396010Y-99644256D01*
X145371760Y-99710016D01*
X145341669Y-99774394D01*
X145305102Y-99838276D01*
X145261263Y-99902331D01*
X145209310Y-99966940D01*
X145141095Y-100040103D01*
X144577199Y-100604000D01*
X143666918Y-100604000D01*
X143607830Y-100532000D01*
X143689671Y-100432275D01*
X143768850Y-100284142D01*
X143817608Y-100123408D01*
X143834072Y-99956250D01*
X143834072Y-99443750D01*
X143817608Y-99276592D01*
X143768850Y-99115858D01*
X143689671Y-98967725D01*
X143593057Y-98850000D01*
X143689671Y-98732275D01*
X143768850Y-98584142D01*
X143817608Y-98423408D01*
X143834072Y-98256250D01*
X143834072Y-97743750D01*
X143817608Y-97576592D01*
X143768850Y-97415858D01*
X143689671Y-97267725D01*
X143586492Y-97142000D01*
X143666918Y-97044000D01*
X144532591Y-97044000D01*
X144635204Y-97088999D01*
G36*
X129447000Y-94988500D02*
G01*
X129427000Y-94988500D01*
X129427000Y-95008500D01*
X129173000Y-95008500D01*
X129173000Y-94988500D01*
X127827000Y-94988500D01*
X127827000Y-95008500D01*
X127573000Y-95008500D01*
X127573000Y-94988500D01*
X127553000Y-94988500D01*
X127553000Y-94735000D01*
X129447000Y-94735000D01*
X129447000Y-94988500D01*
G37*
X129447000Y-94988500D02*
X129427000Y-94988500D01*
X129427000Y-95008500D01*
X129173000Y-95008500D01*
X129173000Y-94988500D01*
X127827000Y-94988500D01*
X127827000Y-95008500D01*
X127573000Y-95008500D01*
X127573000Y-94988500D01*
X127553000Y-94988500D01*
X127553000Y-94735000D01*
X129447000Y-94735000D01*
X129447000Y-94988500D01*
D24*
%TO.N,VBUS*%
G36*
X138999158Y-107988523D02*
G01*
X138999223Y-107989441D01*
X139001773Y-108013178D01*
X139001913Y-108014138D01*
X139006163Y-108037042D01*
X139006388Y-108038030D01*
X139012338Y-108060103D01*
X139012651Y-108061102D01*
X139020301Y-108082342D01*
X139020704Y-108083328D01*
X139030054Y-108103736D01*
X139030540Y-108104689D01*
X139041590Y-108124265D01*
X139042149Y-108125165D01*
X139054899Y-108143909D01*
X139055515Y-108144740D01*
X139069965Y-108162652D01*
X139070622Y-108163404D01*
X139080273Y-108173611D01*
X138886000Y-108510574D01*
X138691727Y-108173611D01*
X138701378Y-108163404D01*
X138702035Y-108162652D01*
X138716485Y-108144740D01*
X138717101Y-108143909D01*
X138729851Y-108125165D01*
X138730410Y-108124265D01*
X138741460Y-108104689D01*
X138741946Y-108103736D01*
X138751296Y-108083328D01*
X138751699Y-108082342D01*
X138759349Y-108061102D01*
X138759662Y-108060103D01*
X138765612Y-108038030D01*
X138765837Y-108037042D01*
X138770087Y-108014138D01*
X138770227Y-108013178D01*
X138772777Y-107989441D01*
X138772842Y-107988523D01*
X138773268Y-107976215D01*
X138998732Y-107976215D01*
X138999158Y-107988523D01*
G37*
X138999158Y-107988523D02*
X138999223Y-107989441D01*
X139001773Y-108013178D01*
X139001913Y-108014138D01*
X139006163Y-108037042D01*
X139006388Y-108038030D01*
X139012338Y-108060103D01*
X139012651Y-108061102D01*
X139020301Y-108082342D01*
X139020704Y-108083328D01*
X139030054Y-108103736D01*
X139030540Y-108104689D01*
X139041590Y-108124265D01*
X139042149Y-108125165D01*
X139054899Y-108143909D01*
X139055515Y-108144740D01*
X139069965Y-108162652D01*
X139070622Y-108163404D01*
X139080273Y-108173611D01*
X138886000Y-108510574D01*
X138691727Y-108173611D01*
X138701378Y-108163404D01*
X138702035Y-108162652D01*
X138716485Y-108144740D01*
X138717101Y-108143909D01*
X138729851Y-108125165D01*
X138730410Y-108124265D01*
X138741460Y-108104689D01*
X138741946Y-108103736D01*
X138751296Y-108083328D01*
X138751699Y-108082342D01*
X138759349Y-108061102D01*
X138759662Y-108060103D01*
X138765612Y-108038030D01*
X138765837Y-108037042D01*
X138770087Y-108014138D01*
X138770227Y-108013178D01*
X138772777Y-107989441D01*
X138772842Y-107988523D01*
X138773268Y-107976215D01*
X138998732Y-107976215D01*
X138999158Y-107988523D01*
G36*
X138873189Y-108673553D02*
G01*
X138859148Y-108673946D01*
X138858152Y-108674013D01*
X138835269Y-108676461D01*
X138834246Y-108676613D01*
X138811976Y-108680851D01*
X138810944Y-108681092D01*
X138789288Y-108687121D01*
X138788270Y-108687451D01*
X138767228Y-108695270D01*
X138766246Y-108695683D01*
X138745818Y-108705293D01*
X138744891Y-108705777D01*
X138725076Y-108717177D01*
X138724218Y-108717717D01*
X138705017Y-108730908D01*
X138704238Y-108731488D01*
X138685650Y-108746470D01*
X138684955Y-108747073D01*
X138675952Y-108755475D01*
X138516525Y-108596048D01*
X138524927Y-108587043D01*
X138525529Y-108586349D01*
X138540511Y-108567761D01*
X138541091Y-108566982D01*
X138554282Y-108547781D01*
X138554822Y-108546923D01*
X138566222Y-108527108D01*
X138566706Y-108526181D01*
X138576316Y-108505753D01*
X138576729Y-108504771D01*
X138584548Y-108483729D01*
X138584878Y-108482711D01*
X138590907Y-108461055D01*
X138591148Y-108460023D01*
X138595386Y-108437753D01*
X138595538Y-108436730D01*
X138597986Y-108413847D01*
X138598053Y-108412852D01*
X138598446Y-108398811D01*
X138974087Y-108297913D01*
X138873189Y-108673553D01*
G37*
X138873189Y-108673553D02*
X138859148Y-108673946D01*
X138858152Y-108674013D01*
X138835269Y-108676461D01*
X138834246Y-108676613D01*
X138811976Y-108680851D01*
X138810944Y-108681092D01*
X138789288Y-108687121D01*
X138788270Y-108687451D01*
X138767228Y-108695270D01*
X138766246Y-108695683D01*
X138745818Y-108705293D01*
X138744891Y-108705777D01*
X138725076Y-108717177D01*
X138724218Y-108717717D01*
X138705017Y-108730908D01*
X138704238Y-108731488D01*
X138685650Y-108746470D01*
X138684955Y-108747073D01*
X138675952Y-108755475D01*
X138516525Y-108596048D01*
X138524927Y-108587043D01*
X138525529Y-108586349D01*
X138540511Y-108567761D01*
X138541091Y-108566982D01*
X138554282Y-108547781D01*
X138554822Y-108546923D01*
X138566222Y-108527108D01*
X138566706Y-108526181D01*
X138576316Y-108505753D01*
X138576729Y-108504771D01*
X138584548Y-108483729D01*
X138584878Y-108482711D01*
X138590907Y-108461055D01*
X138591148Y-108460023D01*
X138595386Y-108437753D01*
X138595538Y-108436730D01*
X138597986Y-108413847D01*
X138598053Y-108412852D01*
X138598446Y-108398811D01*
X138974087Y-108297913D01*
X138873189Y-108673553D01*
G36*
X139108595Y-108201378D02*
G01*
X139109347Y-108202035D01*
X139127259Y-108216485D01*
X139128090Y-108217101D01*
X139146834Y-108229851D01*
X139147734Y-108230410D01*
X139167310Y-108241460D01*
X139168263Y-108241946D01*
X139188671Y-108251296D01*
X139189657Y-108251699D01*
X139210897Y-108259349D01*
X139211896Y-108259662D01*
X139233969Y-108265612D01*
X139234957Y-108265837D01*
X139257861Y-108270087D01*
X139258821Y-108270227D01*
X139282558Y-108272777D01*
X139283476Y-108272842D01*
X139295785Y-108273268D01*
X139295785Y-108498732D01*
X139283476Y-108499158D01*
X139282558Y-108499223D01*
X139258821Y-108501773D01*
X139257861Y-108501913D01*
X139234957Y-108506163D01*
X139233969Y-108506388D01*
X139211896Y-108512338D01*
X139210897Y-108512651D01*
X139189657Y-108520301D01*
X139188671Y-108520704D01*
X139168263Y-108530054D01*
X139167310Y-108530540D01*
X139147734Y-108541590D01*
X139146834Y-108542149D01*
X139128090Y-108554899D01*
X139127259Y-108555515D01*
X139109347Y-108569965D01*
X139108595Y-108570622D01*
X139098389Y-108580273D01*
X138761426Y-108386000D01*
X139098389Y-108191727D01*
X139108595Y-108201378D01*
G37*
X139108595Y-108201378D02*
X139109347Y-108202035D01*
X139127259Y-108216485D01*
X139128090Y-108217101D01*
X139146834Y-108229851D01*
X139147734Y-108230410D01*
X139167310Y-108241460D01*
X139168263Y-108241946D01*
X139188671Y-108251296D01*
X139189657Y-108251699D01*
X139210897Y-108259349D01*
X139211896Y-108259662D01*
X139233969Y-108265612D01*
X139234957Y-108265837D01*
X139257861Y-108270087D01*
X139258821Y-108270227D01*
X139282558Y-108272777D01*
X139283476Y-108272842D01*
X139295785Y-108273268D01*
X139295785Y-108498732D01*
X139283476Y-108499158D01*
X139282558Y-108499223D01*
X139258821Y-108501773D01*
X139257861Y-108501913D01*
X139234957Y-108506163D01*
X139233969Y-108506388D01*
X139211896Y-108512338D01*
X139210897Y-108512651D01*
X139189657Y-108520301D01*
X139188671Y-108520704D01*
X139168263Y-108530054D01*
X139167310Y-108530540D01*
X139147734Y-108541590D01*
X139146834Y-108542149D01*
X139128090Y-108554899D01*
X139127259Y-108555515D01*
X139109347Y-108569965D01*
X139108595Y-108570622D01*
X139098389Y-108580273D01*
X138761426Y-108386000D01*
X139098389Y-108191727D01*
X139108595Y-108201378D01*
%TO.N,+3V3*%
G36*
X137005189Y-102794553D02*
G01*
X136991148Y-102794946D01*
X136990152Y-102795013D01*
X136967269Y-102797461D01*
X136966246Y-102797613D01*
X136943976Y-102801851D01*
X136942944Y-102802092D01*
X136921288Y-102808121D01*
X136920270Y-102808451D01*
X136899228Y-102816270D01*
X136898246Y-102816683D01*
X136877818Y-102826293D01*
X136876891Y-102826777D01*
X136857076Y-102838177D01*
X136856218Y-102838717D01*
X136837017Y-102851908D01*
X136836238Y-102852488D01*
X136817650Y-102867470D01*
X136816955Y-102868073D01*
X136807952Y-102876475D01*
X136648525Y-102717048D01*
X136656927Y-102708043D01*
X136657529Y-102707349D01*
X136672511Y-102688761D01*
X136673091Y-102687982D01*
X136686282Y-102668781D01*
X136686822Y-102667923D01*
X136698222Y-102648108D01*
X136698706Y-102647181D01*
X136708316Y-102626753D01*
X136708729Y-102625771D01*
X136716548Y-102604729D01*
X136716878Y-102603711D01*
X136722907Y-102582055D01*
X136723148Y-102581023D01*
X136727386Y-102558753D01*
X136727538Y-102557730D01*
X136729986Y-102534847D01*
X136730053Y-102533852D01*
X136730446Y-102519811D01*
X137106087Y-102418913D01*
X137005189Y-102794553D01*
G37*
X137005189Y-102794553D02*
X136991148Y-102794946D01*
X136990152Y-102795013D01*
X136967269Y-102797461D01*
X136966246Y-102797613D01*
X136943976Y-102801851D01*
X136942944Y-102802092D01*
X136921288Y-102808121D01*
X136920270Y-102808451D01*
X136899228Y-102816270D01*
X136898246Y-102816683D01*
X136877818Y-102826293D01*
X136876891Y-102826777D01*
X136857076Y-102838177D01*
X136856218Y-102838717D01*
X136837017Y-102851908D01*
X136836238Y-102852488D01*
X136817650Y-102867470D01*
X136816955Y-102868073D01*
X136807952Y-102876475D01*
X136648525Y-102717048D01*
X136656927Y-102708043D01*
X136657529Y-102707349D01*
X136672511Y-102688761D01*
X136673091Y-102687982D01*
X136686282Y-102668781D01*
X136686822Y-102667923D01*
X136698222Y-102648108D01*
X136698706Y-102647181D01*
X136708316Y-102626753D01*
X136708729Y-102625771D01*
X136716548Y-102604729D01*
X136716878Y-102603711D01*
X136722907Y-102582055D01*
X136723148Y-102581023D01*
X136727386Y-102558753D01*
X136727538Y-102557730D01*
X136729986Y-102534847D01*
X136730053Y-102533852D01*
X136730446Y-102519811D01*
X137106087Y-102418913D01*
X137005189Y-102794553D01*
G36*
X137131158Y-102109523D02*
G01*
X137131223Y-102110441D01*
X137133773Y-102134178D01*
X137133913Y-102135138D01*
X137138163Y-102158042D01*
X137138388Y-102159030D01*
X137144338Y-102181103D01*
X137144651Y-102182102D01*
X137152301Y-102203342D01*
X137152704Y-102204328D01*
X137162054Y-102224736D01*
X137162540Y-102225689D01*
X137173590Y-102245265D01*
X137174149Y-102246165D01*
X137186899Y-102264909D01*
X137187515Y-102265740D01*
X137201965Y-102283652D01*
X137202622Y-102284404D01*
X137212273Y-102294611D01*
X137018000Y-102631574D01*
X136823727Y-102294611D01*
X136833378Y-102284404D01*
X136834035Y-102283652D01*
X136848485Y-102265740D01*
X136849101Y-102264909D01*
X136861851Y-102246165D01*
X136862410Y-102245265D01*
X136873460Y-102225689D01*
X136873946Y-102224736D01*
X136883296Y-102204328D01*
X136883699Y-102203342D01*
X136891349Y-102182102D01*
X136891662Y-102181103D01*
X136897612Y-102159030D01*
X136897837Y-102158042D01*
X136902087Y-102135138D01*
X136902227Y-102134178D01*
X136904777Y-102110441D01*
X136904842Y-102109523D01*
X136905268Y-102097215D01*
X137130732Y-102097215D01*
X137131158Y-102109523D01*
G37*
X137131158Y-102109523D02*
X137131223Y-102110441D01*
X137133773Y-102134178D01*
X137133913Y-102135138D01*
X137138163Y-102158042D01*
X137138388Y-102159030D01*
X137144338Y-102181103D01*
X137144651Y-102182102D01*
X137152301Y-102203342D01*
X137152704Y-102204328D01*
X137162054Y-102224736D01*
X137162540Y-102225689D01*
X137173590Y-102245265D01*
X137174149Y-102246165D01*
X137186899Y-102264909D01*
X137187515Y-102265740D01*
X137201965Y-102283652D01*
X137202622Y-102284404D01*
X137212273Y-102294611D01*
X137018000Y-102631574D01*
X136823727Y-102294611D01*
X136833378Y-102284404D01*
X136834035Y-102283652D01*
X136848485Y-102265740D01*
X136849101Y-102264909D01*
X136861851Y-102246165D01*
X136862410Y-102245265D01*
X136873460Y-102225689D01*
X136873946Y-102224736D01*
X136883296Y-102204328D01*
X136883699Y-102203342D01*
X136891349Y-102182102D01*
X136891662Y-102181103D01*
X136897612Y-102159030D01*
X136897837Y-102158042D01*
X136902087Y-102135138D01*
X136902227Y-102134178D01*
X136904777Y-102110441D01*
X136904842Y-102109523D01*
X136905268Y-102097215D01*
X137130732Y-102097215D01*
X137131158Y-102109523D01*
G36*
X126783956Y-97446926D02*
G01*
X126784650Y-97447529D01*
X126803238Y-97462511D01*
X126804017Y-97463091D01*
X126823218Y-97476282D01*
X126824076Y-97476822D01*
X126843891Y-97488222D01*
X126844818Y-97488706D01*
X126865246Y-97498316D01*
X126866228Y-97498729D01*
X126887270Y-97506548D01*
X126888288Y-97506878D01*
X126909944Y-97512907D01*
X126910976Y-97513148D01*
X126933246Y-97517386D01*
X126934269Y-97517538D01*
X126957152Y-97519986D01*
X126958147Y-97520053D01*
X126972189Y-97520446D01*
X127073087Y-97896087D01*
X126697446Y-97795189D01*
X126697053Y-97781147D01*
X126696986Y-97780152D01*
X126694538Y-97757269D01*
X126694386Y-97756246D01*
X126690148Y-97733976D01*
X126689907Y-97732944D01*
X126683878Y-97711288D01*
X126683548Y-97710270D01*
X126675729Y-97689228D01*
X126675316Y-97688246D01*
X126665706Y-97667818D01*
X126665222Y-97666891D01*
X126653822Y-97647076D01*
X126653282Y-97646218D01*
X126640091Y-97627017D01*
X126639511Y-97626238D01*
X126624529Y-97607650D01*
X126623926Y-97606956D01*
X126615525Y-97597952D01*
X126774952Y-97438525D01*
X126783956Y-97446926D01*
G37*
X126783956Y-97446926D02*
X126784650Y-97447529D01*
X126803238Y-97462511D01*
X126804017Y-97463091D01*
X126823218Y-97476282D01*
X126824076Y-97476822D01*
X126843891Y-97488222D01*
X126844818Y-97488706D01*
X126865246Y-97498316D01*
X126866228Y-97498729D01*
X126887270Y-97506548D01*
X126888288Y-97506878D01*
X126909944Y-97512907D01*
X126910976Y-97513148D01*
X126933246Y-97517386D01*
X126934269Y-97517538D01*
X126957152Y-97519986D01*
X126958147Y-97520053D01*
X126972189Y-97520446D01*
X127073087Y-97896087D01*
X126697446Y-97795189D01*
X126697053Y-97781147D01*
X126696986Y-97780152D01*
X126694538Y-97757269D01*
X126694386Y-97756246D01*
X126690148Y-97733976D01*
X126689907Y-97732944D01*
X126683878Y-97711288D01*
X126683548Y-97710270D01*
X126675729Y-97689228D01*
X126675316Y-97688246D01*
X126665706Y-97667818D01*
X126665222Y-97666891D01*
X126653822Y-97647076D01*
X126653282Y-97646218D01*
X126640091Y-97627017D01*
X126639511Y-97626238D01*
X126624529Y-97607650D01*
X126623926Y-97606956D01*
X126615525Y-97597952D01*
X126774952Y-97438525D01*
X126783956Y-97446926D01*
G36*
X134013158Y-97467523D02*
G01*
X134013223Y-97468441D01*
X134015773Y-97492178D01*
X134015913Y-97493138D01*
X134020163Y-97516042D01*
X134020388Y-97517030D01*
X134026338Y-97539103D01*
X134026651Y-97540102D01*
X134034301Y-97561342D01*
X134034704Y-97562328D01*
X134044054Y-97582736D01*
X134044540Y-97583689D01*
X134055590Y-97603265D01*
X134056149Y-97604165D01*
X134068899Y-97622909D01*
X134069515Y-97623740D01*
X134083965Y-97641652D01*
X134084622Y-97642404D01*
X134094273Y-97652611D01*
X133900000Y-97989574D01*
X133705727Y-97652611D01*
X133715378Y-97642404D01*
X133716035Y-97641652D01*
X133730485Y-97623740D01*
X133731101Y-97622909D01*
X133743851Y-97604165D01*
X133744410Y-97603265D01*
X133755460Y-97583689D01*
X133755946Y-97582736D01*
X133765296Y-97562328D01*
X133765699Y-97561342D01*
X133773349Y-97540102D01*
X133773662Y-97539103D01*
X133779612Y-97517030D01*
X133779837Y-97516042D01*
X133784087Y-97493138D01*
X133784227Y-97492178D01*
X133786777Y-97468441D01*
X133786842Y-97467523D01*
X133787268Y-97455215D01*
X134012732Y-97455215D01*
X134013158Y-97467523D01*
G37*
X134013158Y-97467523D02*
X134013223Y-97468441D01*
X134015773Y-97492178D01*
X134015913Y-97493138D01*
X134020163Y-97516042D01*
X134020388Y-97517030D01*
X134026338Y-97539103D01*
X134026651Y-97540102D01*
X134034301Y-97561342D01*
X134034704Y-97562328D01*
X134044054Y-97582736D01*
X134044540Y-97583689D01*
X134055590Y-97603265D01*
X134056149Y-97604165D01*
X134068899Y-97622909D01*
X134069515Y-97623740D01*
X134083965Y-97641652D01*
X134084622Y-97642404D01*
X134094273Y-97652611D01*
X133900000Y-97989574D01*
X133705727Y-97652611D01*
X133715378Y-97642404D01*
X133716035Y-97641652D01*
X133730485Y-97623740D01*
X133731101Y-97622909D01*
X133743851Y-97604165D01*
X133744410Y-97603265D01*
X133755460Y-97583689D01*
X133755946Y-97582736D01*
X133765296Y-97562328D01*
X133765699Y-97561342D01*
X133773349Y-97540102D01*
X133773662Y-97539103D01*
X133779612Y-97517030D01*
X133779837Y-97516042D01*
X133784087Y-97493138D01*
X133784227Y-97492178D01*
X133786777Y-97468441D01*
X133786842Y-97467523D01*
X133787268Y-97455215D01*
X134012732Y-97455215D01*
X134013158Y-97467523D01*
G36*
X134094273Y-98077389D02*
G01*
X134084622Y-98087595D01*
X134083965Y-98088347D01*
X134069515Y-98106259D01*
X134068899Y-98107090D01*
X134056149Y-98125834D01*
X134055590Y-98126734D01*
X134044540Y-98146310D01*
X134044054Y-98147263D01*
X134034704Y-98167671D01*
X134034301Y-98168657D01*
X134026651Y-98189897D01*
X134026338Y-98190896D01*
X134020388Y-98212969D01*
X134020163Y-98213957D01*
X134015913Y-98236861D01*
X134015773Y-98237821D01*
X134013223Y-98261558D01*
X134013158Y-98262476D01*
X134012732Y-98274785D01*
X133787268Y-98274785D01*
X133786842Y-98262476D01*
X133786777Y-98261558D01*
X133784227Y-98237821D01*
X133784087Y-98236861D01*
X133779837Y-98213957D01*
X133779612Y-98212969D01*
X133773662Y-98190896D01*
X133773349Y-98189897D01*
X133765699Y-98168657D01*
X133765296Y-98167671D01*
X133755946Y-98147263D01*
X133755460Y-98146310D01*
X133744410Y-98126734D01*
X133743851Y-98125834D01*
X133731101Y-98107090D01*
X133730485Y-98106259D01*
X133716035Y-98088347D01*
X133715378Y-98087595D01*
X133705727Y-98077389D01*
X133900000Y-97740426D01*
X134094273Y-98077389D01*
G37*
X134094273Y-98077389D02*
X134084622Y-98087595D01*
X134083965Y-98088347D01*
X134069515Y-98106259D01*
X134068899Y-98107090D01*
X134056149Y-98125834D01*
X134055590Y-98126734D01*
X134044540Y-98146310D01*
X134044054Y-98147263D01*
X134034704Y-98167671D01*
X134034301Y-98168657D01*
X134026651Y-98189897D01*
X134026338Y-98190896D01*
X134020388Y-98212969D01*
X134020163Y-98213957D01*
X134015913Y-98236861D01*
X134015773Y-98237821D01*
X134013223Y-98261558D01*
X134013158Y-98262476D01*
X134012732Y-98274785D01*
X133787268Y-98274785D01*
X133786842Y-98262476D01*
X133786777Y-98261558D01*
X133784227Y-98237821D01*
X133784087Y-98236861D01*
X133779837Y-98213957D01*
X133779612Y-98212969D01*
X133773662Y-98190896D01*
X133773349Y-98189897D01*
X133765699Y-98168657D01*
X133765296Y-98167671D01*
X133755946Y-98147263D01*
X133755460Y-98146310D01*
X133744410Y-98126734D01*
X133743851Y-98125834D01*
X133731101Y-98107090D01*
X133730485Y-98106259D01*
X133716035Y-98088347D01*
X133715378Y-98087595D01*
X133705727Y-98077389D01*
X133900000Y-97740426D01*
X134094273Y-98077389D01*
%TO.N,/RXD*%
G36*
X144891828Y-96262621D02*
G01*
X144892497Y-96262865D01*
X145108717Y-96335125D01*
X145109530Y-96335367D01*
X145311152Y-96388067D01*
X145312148Y-96388285D01*
X145499172Y-96421425D01*
X145500391Y-96421581D01*
X145672817Y-96435161D01*
X145674295Y-96435191D01*
X145832124Y-96429211D01*
X145833872Y-96429023D01*
X145977102Y-96403483D01*
X145979075Y-96402965D01*
X146107708Y-96357865D01*
X146109770Y-96356928D01*
X146223805Y-96292268D01*
X146225749Y-96290911D01*
X146318373Y-96212462D01*
X147323574Y-96792000D01*
X146318847Y-97371264D01*
X146226284Y-97283409D01*
X146225677Y-97282868D01*
X146111642Y-97187728D01*
X146111097Y-97187298D01*
X145982464Y-97091398D01*
X145981977Y-97091053D01*
X145838747Y-96994393D01*
X145838314Y-96994113D01*
X145680485Y-96896693D01*
X145680098Y-96896464D01*
X145507672Y-96798284D01*
X145507327Y-96798094D01*
X145320303Y-96699154D01*
X145319993Y-96698996D01*
X145118371Y-96599296D01*
X145118093Y-96599162D01*
X144901873Y-96498702D01*
X144901622Y-96498589D01*
X144678405Y-96400702D01*
X144678405Y-96177720D01*
X144891828Y-96262621D01*
G37*
X144891828Y-96262621D02*
X144892497Y-96262865D01*
X145108717Y-96335125D01*
X145109530Y-96335367D01*
X145311152Y-96388067D01*
X145312148Y-96388285D01*
X145499172Y-96421425D01*
X145500391Y-96421581D01*
X145672817Y-96435161D01*
X145674295Y-96435191D01*
X145832124Y-96429211D01*
X145833872Y-96429023D01*
X145977102Y-96403483D01*
X145979075Y-96402965D01*
X146107708Y-96357865D01*
X146109770Y-96356928D01*
X146223805Y-96292268D01*
X146225749Y-96290911D01*
X146318373Y-96212462D01*
X147323574Y-96792000D01*
X146318847Y-97371264D01*
X146226284Y-97283409D01*
X146225677Y-97282868D01*
X146111642Y-97187728D01*
X146111097Y-97187298D01*
X145982464Y-97091398D01*
X145981977Y-97091053D01*
X145838747Y-96994393D01*
X145838314Y-96994113D01*
X145680485Y-96896693D01*
X145680098Y-96896464D01*
X145507672Y-96798284D01*
X145507327Y-96798094D01*
X145320303Y-96699154D01*
X145319993Y-96698996D01*
X145118371Y-96599296D01*
X145118093Y-96599162D01*
X144901873Y-96498702D01*
X144901622Y-96498589D01*
X144678405Y-96400702D01*
X144678405Y-96177720D01*
X144891828Y-96262621D01*
%TO.N,Net-(J1-PadA7)*%
G36*
X129145878Y-103329427D02*
G01*
X129146572Y-103330030D01*
X129165160Y-103345012D01*
X129165939Y-103345592D01*
X129185140Y-103358783D01*
X129185998Y-103359323D01*
X129205813Y-103370723D01*
X129206740Y-103371207D01*
X129227168Y-103380817D01*
X129228150Y-103381230D01*
X129249192Y-103389049D01*
X129250210Y-103389379D01*
X129271866Y-103395408D01*
X129272898Y-103395649D01*
X129295168Y-103399887D01*
X129296191Y-103400039D01*
X129319074Y-103402487D01*
X129320069Y-103402554D01*
X129334111Y-103402947D01*
X129435009Y-103778588D01*
X129059368Y-103677690D01*
X129058975Y-103663648D01*
X129058908Y-103662653D01*
X129056460Y-103639770D01*
X129056308Y-103638747D01*
X129052070Y-103616477D01*
X129051829Y-103615445D01*
X129045800Y-103593789D01*
X129045470Y-103592771D01*
X129037651Y-103571729D01*
X129037238Y-103570747D01*
X129027628Y-103550319D01*
X129027144Y-103549392D01*
X129015744Y-103529577D01*
X129015204Y-103528719D01*
X129002013Y-103509518D01*
X129001433Y-103508739D01*
X128986451Y-103490151D01*
X128985848Y-103489457D01*
X128977447Y-103480453D01*
X129136874Y-103321026D01*
X129145878Y-103329427D01*
G37*
X129145878Y-103329427D02*
X129146572Y-103330030D01*
X129165160Y-103345012D01*
X129165939Y-103345592D01*
X129185140Y-103358783D01*
X129185998Y-103359323D01*
X129205813Y-103370723D01*
X129206740Y-103371207D01*
X129227168Y-103380817D01*
X129228150Y-103381230D01*
X129249192Y-103389049D01*
X129250210Y-103389379D01*
X129271866Y-103395408D01*
X129272898Y-103395649D01*
X129295168Y-103399887D01*
X129296191Y-103400039D01*
X129319074Y-103402487D01*
X129320069Y-103402554D01*
X129334111Y-103402947D01*
X129435009Y-103778588D01*
X129059368Y-103677690D01*
X129058975Y-103663648D01*
X129058908Y-103662653D01*
X129056460Y-103639770D01*
X129056308Y-103638747D01*
X129052070Y-103616477D01*
X129051829Y-103615445D01*
X129045800Y-103593789D01*
X129045470Y-103592771D01*
X129037651Y-103571729D01*
X129037238Y-103570747D01*
X129027628Y-103550319D01*
X129027144Y-103549392D01*
X129015744Y-103529577D01*
X129015204Y-103528719D01*
X129002013Y-103509518D01*
X129001433Y-103508739D01*
X128986451Y-103490151D01*
X128985848Y-103489457D01*
X128977447Y-103480453D01*
X129136874Y-103321026D01*
X129145878Y-103329427D01*
G36*
X129812553Y-105948811D02*
G01*
X129812946Y-105962851D01*
X129813013Y-105963847D01*
X129815461Y-105986730D01*
X129815613Y-105987753D01*
X129819851Y-106010023D01*
X129820092Y-106011055D01*
X129826121Y-106032711D01*
X129826451Y-106033729D01*
X129834270Y-106054771D01*
X129834683Y-106055753D01*
X129844293Y-106076181D01*
X129844777Y-106077108D01*
X129856177Y-106096923D01*
X129856717Y-106097781D01*
X129869908Y-106116982D01*
X129870488Y-106117761D01*
X129885470Y-106136349D01*
X129886073Y-106137043D01*
X129894475Y-106146048D01*
X129735048Y-106305475D01*
X129726043Y-106297073D01*
X129725349Y-106296470D01*
X129706761Y-106281488D01*
X129705982Y-106280908D01*
X129686781Y-106267717D01*
X129685923Y-106267177D01*
X129666108Y-106255777D01*
X129665181Y-106255293D01*
X129644753Y-106245683D01*
X129643771Y-106245270D01*
X129622729Y-106237451D01*
X129621711Y-106237121D01*
X129600055Y-106231092D01*
X129599023Y-106230851D01*
X129576753Y-106226613D01*
X129575730Y-106226461D01*
X129552847Y-106224013D01*
X129551851Y-106223946D01*
X129537811Y-106223553D01*
X129436913Y-105847913D01*
X129812553Y-105948811D01*
G37*
X129812553Y-105948811D02*
X129812946Y-105962851D01*
X129813013Y-105963847D01*
X129815461Y-105986730D01*
X129815613Y-105987753D01*
X129819851Y-106010023D01*
X129820092Y-106011055D01*
X129826121Y-106032711D01*
X129826451Y-106033729D01*
X129834270Y-106054771D01*
X129834683Y-106055753D01*
X129844293Y-106076181D01*
X129844777Y-106077108D01*
X129856177Y-106096923D01*
X129856717Y-106097781D01*
X129869908Y-106116982D01*
X129870488Y-106117761D01*
X129885470Y-106136349D01*
X129886073Y-106137043D01*
X129894475Y-106146048D01*
X129735048Y-106305475D01*
X129726043Y-106297073D01*
X129725349Y-106296470D01*
X129706761Y-106281488D01*
X129705982Y-106280908D01*
X129686781Y-106267717D01*
X129685923Y-106267177D01*
X129666108Y-106255777D01*
X129665181Y-106255293D01*
X129644753Y-106245683D01*
X129643771Y-106245270D01*
X129622729Y-106237451D01*
X129621711Y-106237121D01*
X129600055Y-106231092D01*
X129599023Y-106230851D01*
X129576753Y-106226613D01*
X129575730Y-106226461D01*
X129552847Y-106224013D01*
X129551851Y-106223946D01*
X129537811Y-106223553D01*
X129436913Y-105847913D01*
X129812553Y-105948811D01*
%TO.N,/TXD*%
G36*
X146905690Y-100169522D02*
G01*
X146785284Y-100172838D01*
X146784299Y-100172903D01*
X146657943Y-100186263D01*
X146656927Y-100186413D01*
X146534079Y-100209559D01*
X146533052Y-100209797D01*
X146413713Y-100242727D01*
X146412697Y-100243053D01*
X146296867Y-100285769D01*
X146295883Y-100286180D01*
X146183561Y-100338680D01*
X146182630Y-100339163D01*
X146073818Y-100401447D01*
X146072954Y-100401989D01*
X145967650Y-100474059D01*
X145966865Y-100474642D01*
X145865071Y-100556496D01*
X145864368Y-100557104D01*
X145775051Y-100640381D01*
X145615619Y-100480949D01*
X145698895Y-100391631D01*
X145699503Y-100390928D01*
X145781357Y-100289134D01*
X145781940Y-100288349D01*
X145854010Y-100183045D01*
X145854552Y-100182181D01*
X145916837Y-100073369D01*
X145917320Y-100072438D01*
X145969820Y-99960116D01*
X145970231Y-99959132D01*
X146012946Y-99843302D01*
X146013272Y-99842286D01*
X146046202Y-99722947D01*
X146046440Y-99721920D01*
X146069586Y-99599072D01*
X146069736Y-99598056D01*
X146083097Y-99471700D01*
X146083162Y-99470715D01*
X146086478Y-99350310D01*
X147206541Y-99049459D01*
X146905690Y-100169522D01*
G37*
X146905690Y-100169522D02*
X146785284Y-100172838D01*
X146784299Y-100172903D01*
X146657943Y-100186263D01*
X146656927Y-100186413D01*
X146534079Y-100209559D01*
X146533052Y-100209797D01*
X146413713Y-100242727D01*
X146412697Y-100243053D01*
X146296867Y-100285769D01*
X146295883Y-100286180D01*
X146183561Y-100338680D01*
X146182630Y-100339163D01*
X146073818Y-100401447D01*
X146072954Y-100401989D01*
X145967650Y-100474059D01*
X145966865Y-100474642D01*
X145865071Y-100556496D01*
X145864368Y-100557104D01*
X145775051Y-100640381D01*
X145615619Y-100480949D01*
X145698895Y-100391631D01*
X145699503Y-100390928D01*
X145781357Y-100289134D01*
X145781940Y-100288349D01*
X145854010Y-100183045D01*
X145854552Y-100182181D01*
X145916837Y-100073369D01*
X145917320Y-100072438D01*
X145969820Y-99960116D01*
X145970231Y-99959132D01*
X146012946Y-99843302D01*
X146013272Y-99842286D01*
X146046202Y-99722947D01*
X146046440Y-99721920D01*
X146069586Y-99599072D01*
X146069736Y-99598056D01*
X146083097Y-99471700D01*
X146083162Y-99470715D01*
X146086478Y-99350310D01*
X147206541Y-99049459D01*
X146905690Y-100169522D01*
%TO.N,/D-*%
G36*
X138130827Y-106191601D02*
G01*
X138131401Y-106192114D01*
X138153063Y-106210314D01*
X138153547Y-106210700D01*
X138178541Y-106229700D01*
X138178951Y-106229999D01*
X138207278Y-106249800D01*
X138207627Y-106250036D01*
X138220676Y-106258527D01*
X138249454Y-106282145D01*
X138268221Y-106292176D01*
X138308121Y-106313503D01*
X138314955Y-106315576D01*
X138355046Y-106337714D01*
X138355246Y-106337822D01*
X138400234Y-106361624D01*
X138400411Y-106361716D01*
X138441795Y-106382786D01*
X138441795Y-106604927D01*
X138411612Y-106590622D01*
X138411048Y-106590371D01*
X138366060Y-106571669D01*
X138365361Y-106571402D01*
X138323705Y-106556900D01*
X138322826Y-106556629D01*
X138284502Y-106546328D01*
X138283386Y-106546082D01*
X138248394Y-106539981D01*
X138246974Y-106539815D01*
X138215315Y-106537914D01*
X138213527Y-106537933D01*
X138185200Y-106540232D01*
X138183031Y-106540599D01*
X138158037Y-106547099D01*
X138155609Y-106548003D01*
X138133947Y-106558703D01*
X138131560Y-106560235D01*
X138120013Y-106569622D01*
X137782426Y-106374990D01*
X138119372Y-106180727D01*
X138130827Y-106191601D01*
G37*
X138130827Y-106191601D02*
X138131401Y-106192114D01*
X138153063Y-106210314D01*
X138153547Y-106210700D01*
X138178541Y-106229700D01*
X138178951Y-106229999D01*
X138207278Y-106249800D01*
X138207627Y-106250036D01*
X138220676Y-106258527D01*
X138249454Y-106282145D01*
X138268221Y-106292176D01*
X138308121Y-106313503D01*
X138314955Y-106315576D01*
X138355046Y-106337714D01*
X138355246Y-106337822D01*
X138400234Y-106361624D01*
X138400411Y-106361716D01*
X138441795Y-106382786D01*
X138441795Y-106604927D01*
X138411612Y-106590622D01*
X138411048Y-106590371D01*
X138366060Y-106571669D01*
X138365361Y-106571402D01*
X138323705Y-106556900D01*
X138322826Y-106556629D01*
X138284502Y-106546328D01*
X138283386Y-106546082D01*
X138248394Y-106539981D01*
X138246974Y-106539815D01*
X138215315Y-106537914D01*
X138213527Y-106537933D01*
X138185200Y-106540232D01*
X138183031Y-106540599D01*
X138158037Y-106547099D01*
X138155609Y-106548003D01*
X138133947Y-106558703D01*
X138131560Y-106560235D01*
X138120013Y-106569622D01*
X137782426Y-106374990D01*
X138119372Y-106180727D01*
X138130827Y-106191601D01*
G36*
X132579332Y-106719679D02*
G01*
X132579764Y-106719914D01*
X132608635Y-106734896D01*
X132609116Y-106735132D01*
X132637391Y-106748323D01*
X132637923Y-106748557D01*
X132665602Y-106759957D01*
X132666192Y-106760183D01*
X132693274Y-106769793D01*
X132693925Y-106770004D01*
X132720412Y-106777823D01*
X132721128Y-106778012D01*
X132747018Y-106784041D01*
X132747799Y-106784197D01*
X132773093Y-106788435D01*
X132773939Y-106788548D01*
X132798637Y-106790996D01*
X132799543Y-106791053D01*
X132814183Y-106791453D01*
X132915079Y-107167087D01*
X132539196Y-107066124D01*
X132538427Y-107051821D01*
X132538230Y-107050178D01*
X132533968Y-107027295D01*
X132533557Y-107025682D01*
X132526294Y-107003412D01*
X132525696Y-107001911D01*
X132515433Y-106980255D01*
X132514701Y-106978922D01*
X132501437Y-106957880D01*
X132500629Y-106956742D01*
X132484365Y-106936314D01*
X132483535Y-106935371D01*
X132464271Y-106915556D01*
X132463459Y-106914791D01*
X132441194Y-106895590D01*
X132440426Y-106894978D01*
X132415161Y-106876390D01*
X132414450Y-106875903D01*
X132399549Y-106866428D01*
X132558280Y-106707697D01*
X132579332Y-106719679D01*
G37*
X132579332Y-106719679D02*
X132579764Y-106719914D01*
X132608635Y-106734896D01*
X132609116Y-106735132D01*
X132637391Y-106748323D01*
X132637923Y-106748557D01*
X132665602Y-106759957D01*
X132666192Y-106760183D01*
X132693274Y-106769793D01*
X132693925Y-106770004D01*
X132720412Y-106777823D01*
X132721128Y-106778012D01*
X132747018Y-106784041D01*
X132747799Y-106784197D01*
X132773093Y-106788435D01*
X132773939Y-106788548D01*
X132798637Y-106790996D01*
X132799543Y-106791053D01*
X132814183Y-106791453D01*
X132915079Y-107167087D01*
X132539196Y-107066124D01*
X132538427Y-107051821D01*
X132538230Y-107050178D01*
X132533968Y-107027295D01*
X132533557Y-107025682D01*
X132526294Y-107003412D01*
X132525696Y-107001911D01*
X132515433Y-106980255D01*
X132514701Y-106978922D01*
X132501437Y-106957880D01*
X132500629Y-106956742D01*
X132484365Y-106936314D01*
X132483535Y-106935371D01*
X132464271Y-106915556D01*
X132463459Y-106914791D01*
X132441194Y-106895590D01*
X132440426Y-106894978D01*
X132415161Y-106876390D01*
X132414450Y-106875903D01*
X132399549Y-106866428D01*
X132558280Y-106707697D01*
X132579332Y-106719679D01*
%TO.N,Net-(R3-Pad2)*%
G36*
X137705956Y-107987926D02*
G01*
X137706650Y-107988529D01*
X137725238Y-108003511D01*
X137726017Y-108004091D01*
X137745218Y-108017282D01*
X137746076Y-108017822D01*
X137765891Y-108029222D01*
X137766818Y-108029706D01*
X137787246Y-108039316D01*
X137788228Y-108039729D01*
X137809270Y-108047548D01*
X137810288Y-108047878D01*
X137831944Y-108053907D01*
X137832976Y-108054148D01*
X137855246Y-108058386D01*
X137856269Y-108058538D01*
X137879152Y-108060986D01*
X137880147Y-108061053D01*
X137894189Y-108061446D01*
X137995087Y-108437087D01*
X137619446Y-108336189D01*
X137619053Y-108322147D01*
X137618986Y-108321152D01*
X137616538Y-108298269D01*
X137616386Y-108297246D01*
X137612148Y-108274976D01*
X137611907Y-108273944D01*
X137605878Y-108252288D01*
X137605548Y-108251270D01*
X137597729Y-108230228D01*
X137597316Y-108229246D01*
X137587706Y-108208818D01*
X137587222Y-108207891D01*
X137575822Y-108188076D01*
X137575282Y-108187218D01*
X137562091Y-108168017D01*
X137561511Y-108167238D01*
X137546529Y-108148650D01*
X137545926Y-108147956D01*
X137537525Y-108138952D01*
X137696952Y-107979525D01*
X137705956Y-107987926D01*
G37*
X137705956Y-107987926D02*
X137706650Y-107988529D01*
X137725238Y-108003511D01*
X137726017Y-108004091D01*
X137745218Y-108017282D01*
X137746076Y-108017822D01*
X137765891Y-108029222D01*
X137766818Y-108029706D01*
X137787246Y-108039316D01*
X137788228Y-108039729D01*
X137809270Y-108047548D01*
X137810288Y-108047878D01*
X137831944Y-108053907D01*
X137832976Y-108054148D01*
X137855246Y-108058386D01*
X137856269Y-108058538D01*
X137879152Y-108060986D01*
X137880147Y-108061053D01*
X137894189Y-108061446D01*
X137995087Y-108437087D01*
X137619446Y-108336189D01*
X137619053Y-108322147D01*
X137618986Y-108321152D01*
X137616538Y-108298269D01*
X137616386Y-108297246D01*
X137612148Y-108274976D01*
X137611907Y-108273944D01*
X137605878Y-108252288D01*
X137605548Y-108251270D01*
X137597729Y-108230228D01*
X137597316Y-108229246D01*
X137587706Y-108208818D01*
X137587222Y-108207891D01*
X137575822Y-108188076D01*
X137575282Y-108187218D01*
X137562091Y-108168017D01*
X137561511Y-108167238D01*
X137546529Y-108148650D01*
X137545926Y-108147956D01*
X137537525Y-108138952D01*
X137696952Y-107979525D01*
X137705956Y-107987926D01*
G36*
X140433158Y-108840523D02*
G01*
X140433223Y-108841441D01*
X140435773Y-108865178D01*
X140435913Y-108866138D01*
X140440163Y-108889042D01*
X140440388Y-108890030D01*
X140446338Y-108912103D01*
X140446651Y-108913102D01*
X140454301Y-108934342D01*
X140454704Y-108935328D01*
X140464054Y-108955736D01*
X140464540Y-108956689D01*
X140475590Y-108976265D01*
X140476149Y-108977165D01*
X140488899Y-108995909D01*
X140489515Y-108996740D01*
X140503965Y-109014652D01*
X140504622Y-109015404D01*
X140514273Y-109025611D01*
X140320000Y-109362574D01*
X140125727Y-109025611D01*
X140135378Y-109015404D01*
X140136035Y-109014652D01*
X140150485Y-108996740D01*
X140151101Y-108995909D01*
X140163851Y-108977165D01*
X140164410Y-108976265D01*
X140175460Y-108956689D01*
X140175946Y-108955736D01*
X140185296Y-108935328D01*
X140185699Y-108934342D01*
X140193349Y-108913102D01*
X140193662Y-108912103D01*
X140199612Y-108890030D01*
X140199837Y-108889042D01*
X140204087Y-108866138D01*
X140204227Y-108865178D01*
X140206777Y-108841441D01*
X140206842Y-108840523D01*
X140207268Y-108828215D01*
X140432732Y-108828215D01*
X140433158Y-108840523D01*
G37*
X140433158Y-108840523D02*
X140433223Y-108841441D01*
X140435773Y-108865178D01*
X140435913Y-108866138D01*
X140440163Y-108889042D01*
X140440388Y-108890030D01*
X140446338Y-108912103D01*
X140446651Y-108913102D01*
X140454301Y-108934342D01*
X140454704Y-108935328D01*
X140464054Y-108955736D01*
X140464540Y-108956689D01*
X140475590Y-108976265D01*
X140476149Y-108977165D01*
X140488899Y-108995909D01*
X140489515Y-108996740D01*
X140503965Y-109014652D01*
X140504622Y-109015404D01*
X140514273Y-109025611D01*
X140320000Y-109362574D01*
X140125727Y-109025611D01*
X140135378Y-109015404D01*
X140136035Y-109014652D01*
X140150485Y-108996740D01*
X140151101Y-108995909D01*
X140163851Y-108977165D01*
X140164410Y-108976265D01*
X140175460Y-108956689D01*
X140175946Y-108955736D01*
X140185296Y-108935328D01*
X140185699Y-108934342D01*
X140193349Y-108913102D01*
X140193662Y-108912103D01*
X140199612Y-108890030D01*
X140199837Y-108889042D01*
X140204087Y-108866138D01*
X140204227Y-108865178D01*
X140206777Y-108841441D01*
X140206842Y-108840523D01*
X140207268Y-108828215D01*
X140432732Y-108828215D01*
X140433158Y-108840523D01*
%TO.N,Net-(R5-Pad2)*%
G36*
X141769956Y-98462926D02*
G01*
X141770650Y-98463529D01*
X141789238Y-98478511D01*
X141790017Y-98479091D01*
X141809218Y-98492282D01*
X141810076Y-98492822D01*
X141829891Y-98504222D01*
X141830818Y-98504706D01*
X141851246Y-98514316D01*
X141852228Y-98514729D01*
X141873270Y-98522548D01*
X141874288Y-98522878D01*
X141895944Y-98528907D01*
X141896976Y-98529148D01*
X141919246Y-98533386D01*
X141920269Y-98533538D01*
X141943152Y-98535986D01*
X141944147Y-98536053D01*
X141958189Y-98536446D01*
X142059087Y-98912087D01*
X141683446Y-98811189D01*
X141683053Y-98797147D01*
X141682986Y-98796152D01*
X141680538Y-98773269D01*
X141680386Y-98772246D01*
X141676148Y-98749976D01*
X141675907Y-98748944D01*
X141669878Y-98727288D01*
X141669548Y-98726270D01*
X141661729Y-98705228D01*
X141661316Y-98704246D01*
X141651706Y-98683818D01*
X141651222Y-98682891D01*
X141639822Y-98663076D01*
X141639282Y-98662218D01*
X141626091Y-98643017D01*
X141625511Y-98642238D01*
X141610529Y-98623650D01*
X141609926Y-98622956D01*
X141601525Y-98613952D01*
X141760952Y-98454525D01*
X141769956Y-98462926D01*
G37*
X141769956Y-98462926D02*
X141770650Y-98463529D01*
X141789238Y-98478511D01*
X141790017Y-98479091D01*
X141809218Y-98492282D01*
X141810076Y-98492822D01*
X141829891Y-98504222D01*
X141830818Y-98504706D01*
X141851246Y-98514316D01*
X141852228Y-98514729D01*
X141873270Y-98522548D01*
X141874288Y-98522878D01*
X141895944Y-98528907D01*
X141896976Y-98529148D01*
X141919246Y-98533386D01*
X141920269Y-98533538D01*
X141943152Y-98535986D01*
X141944147Y-98536053D01*
X141958189Y-98536446D01*
X142059087Y-98912087D01*
X141683446Y-98811189D01*
X141683053Y-98797147D01*
X141682986Y-98796152D01*
X141680538Y-98773269D01*
X141680386Y-98772246D01*
X141676148Y-98749976D01*
X141675907Y-98748944D01*
X141669878Y-98727288D01*
X141669548Y-98726270D01*
X141661729Y-98705228D01*
X141661316Y-98704246D01*
X141651706Y-98683818D01*
X141651222Y-98682891D01*
X141639822Y-98663076D01*
X141639282Y-98662218D01*
X141626091Y-98643017D01*
X141625511Y-98642238D01*
X141610529Y-98623650D01*
X141609926Y-98622956D01*
X141601525Y-98613952D01*
X141760952Y-98454525D01*
X141769956Y-98462926D01*
G36*
X141958189Y-102540553D02*
G01*
X141944148Y-102540946D01*
X141943152Y-102541013D01*
X141920269Y-102543461D01*
X141919246Y-102543613D01*
X141896976Y-102547851D01*
X141895944Y-102548092D01*
X141874288Y-102554121D01*
X141873270Y-102554451D01*
X141852228Y-102562270D01*
X141851246Y-102562683D01*
X141830818Y-102572293D01*
X141829891Y-102572777D01*
X141810076Y-102584177D01*
X141809218Y-102584717D01*
X141790017Y-102597908D01*
X141789238Y-102598488D01*
X141770650Y-102613470D01*
X141769955Y-102614073D01*
X141760952Y-102622475D01*
X141601525Y-102463048D01*
X141609927Y-102454043D01*
X141610529Y-102453349D01*
X141625511Y-102434761D01*
X141626091Y-102433982D01*
X141639282Y-102414781D01*
X141639822Y-102413923D01*
X141651222Y-102394108D01*
X141651706Y-102393181D01*
X141661316Y-102372753D01*
X141661729Y-102371771D01*
X141669548Y-102350729D01*
X141669878Y-102349711D01*
X141675907Y-102328055D01*
X141676148Y-102327023D01*
X141680386Y-102304753D01*
X141680538Y-102303730D01*
X141682986Y-102280847D01*
X141683053Y-102279852D01*
X141683446Y-102265811D01*
X142059087Y-102164913D01*
X141958189Y-102540553D01*
G37*
X141958189Y-102540553D02*
X141944148Y-102540946D01*
X141943152Y-102541013D01*
X141920269Y-102543461D01*
X141919246Y-102543613D01*
X141896976Y-102547851D01*
X141895944Y-102548092D01*
X141874288Y-102554121D01*
X141873270Y-102554451D01*
X141852228Y-102562270D01*
X141851246Y-102562683D01*
X141830818Y-102572293D01*
X141829891Y-102572777D01*
X141810076Y-102584177D01*
X141809218Y-102584717D01*
X141790017Y-102597908D01*
X141789238Y-102598488D01*
X141770650Y-102613470D01*
X141769955Y-102614073D01*
X141760952Y-102622475D01*
X141601525Y-102463048D01*
X141609927Y-102454043D01*
X141610529Y-102453349D01*
X141625511Y-102434761D01*
X141626091Y-102433982D01*
X141639282Y-102414781D01*
X141639822Y-102413923D01*
X141651222Y-102394108D01*
X141651706Y-102393181D01*
X141661316Y-102372753D01*
X141661729Y-102371771D01*
X141669548Y-102350729D01*
X141669878Y-102349711D01*
X141675907Y-102328055D01*
X141676148Y-102327023D01*
X141680386Y-102304753D01*
X141680538Y-102303730D01*
X141682986Y-102280847D01*
X141683053Y-102279852D01*
X141683446Y-102265811D01*
X142059087Y-102164913D01*
X141958189Y-102540553D01*
%TD*%
M02*
