%TF.GenerationSoftware,KiCad,Pcbnew,(5.1.6)-1*%
%TF.CreationDate,2020-07-24T23:52:19+08:00*%
%TF.ProjectId,USB_UART_CP2102,5553425f-5541-4525-945f-435032313032,rev?*%
%TF.SameCoordinates,Original*%
%TF.FileFunction,Legend,Top*%
%TF.FilePolarity,Positive*%
%FSLAX46Y46*%
G04 Gerber Fmt 4.6, Leading zero omitted, Abs format (unit mm)*
G04 Created by KiCad (PCBNEW (5.1.6)-1) date 2020-07-24 23:52:19*
%MOMM*%
%LPD*%
G01*
G04 APERTURE LIST*
%ADD10C,0.150000*%
%ADD11C,0.120000*%
G04 APERTURE END LIST*
D10*
X144344333Y-97244380D02*
X144011000Y-96768190D01*
X143772904Y-97244380D02*
X143772904Y-96244380D01*
X144153857Y-96244380D01*
X144249095Y-96292000D01*
X144296714Y-96339619D01*
X144344333Y-96434857D01*
X144344333Y-96577714D01*
X144296714Y-96672952D01*
X144249095Y-96720571D01*
X144153857Y-96768190D01*
X143772904Y-96768190D01*
X144677666Y-96244380D02*
X145344333Y-97244380D01*
X145344333Y-96244380D02*
X144677666Y-97244380D01*
X143749095Y-98784380D02*
X144320523Y-98784380D01*
X144034809Y-99784380D02*
X144034809Y-98784380D01*
X144558619Y-98784380D02*
X145225285Y-99784380D01*
X145225285Y-98784380D02*
X144558619Y-99784380D01*
X145407904Y-101372000D02*
X145312666Y-101324380D01*
X145169809Y-101324380D01*
X145026952Y-101372000D01*
X144931714Y-101467238D01*
X144884095Y-101562476D01*
X144836476Y-101752952D01*
X144836476Y-101895809D01*
X144884095Y-102086285D01*
X144931714Y-102181523D01*
X145026952Y-102276761D01*
X145169809Y-102324380D01*
X145265047Y-102324380D01*
X145407904Y-102276761D01*
X145455523Y-102229142D01*
X145455523Y-101895809D01*
X145265047Y-101895809D01*
X144812666Y-103864380D02*
X145431714Y-103864380D01*
X145098380Y-104245333D01*
X145241238Y-104245333D01*
X145336476Y-104292952D01*
X145384095Y-104340571D01*
X145431714Y-104435809D01*
X145431714Y-104673904D01*
X145384095Y-104769142D01*
X145336476Y-104816761D01*
X145241238Y-104864380D01*
X144955523Y-104864380D01*
X144860285Y-104816761D01*
X144812666Y-104769142D01*
X145384095Y-106531380D02*
X144907904Y-106531380D01*
X144860285Y-107007571D01*
X144907904Y-106959952D01*
X145003142Y-106912333D01*
X145241238Y-106912333D01*
X145336476Y-106959952D01*
X145384095Y-107007571D01*
X145431714Y-107102809D01*
X145431714Y-107340904D01*
X145384095Y-107436142D01*
X145336476Y-107483761D01*
X145241238Y-107531380D01*
X145003142Y-107531380D01*
X144907904Y-107483761D01*
X144860285Y-107436142D01*
D11*
%TO.C,REF\u002A\u002A*%
X123605000Y-96157000D02*
G75*
G03*
X123605000Y-96157000I-1700000J0D01*
G01*
%TO.C,R8*%
X125590000Y-95486221D02*
X125590000Y-95811779D01*
X126610000Y-95486221D02*
X126610000Y-95811779D01*
%TO.C,D3*%
X125235000Y-97134000D02*
X125235000Y-94849000D01*
X123765000Y-97134000D02*
X125235000Y-97134000D01*
X123765000Y-94849000D02*
X123765000Y-97134000D01*
%TO.C,J2*%
X145654000Y-95522000D02*
X146924000Y-95522000D01*
X145654000Y-96792000D02*
X145654000Y-95522000D01*
X147966929Y-107332000D02*
X148364000Y-107332000D01*
X147966929Y-106572000D02*
X148364000Y-106572000D01*
X157024000Y-107332000D02*
X151024000Y-107332000D01*
X157024000Y-106572000D02*
X157024000Y-107332000D01*
X151024000Y-106572000D02*
X157024000Y-106572000D01*
X148364000Y-105682000D02*
X151024000Y-105682000D01*
X147966929Y-104792000D02*
X148364000Y-104792000D01*
X147966929Y-104032000D02*
X148364000Y-104032000D01*
X157024000Y-104792000D02*
X151024000Y-104792000D01*
X157024000Y-104032000D02*
X157024000Y-104792000D01*
X151024000Y-104032000D02*
X157024000Y-104032000D01*
X148364000Y-103142000D02*
X151024000Y-103142000D01*
X147966929Y-102252000D02*
X148364000Y-102252000D01*
X147966929Y-101492000D02*
X148364000Y-101492000D01*
X157024000Y-102252000D02*
X151024000Y-102252000D01*
X157024000Y-101492000D02*
X157024000Y-102252000D01*
X151024000Y-101492000D02*
X157024000Y-101492000D01*
X148364000Y-100602000D02*
X151024000Y-100602000D01*
X147966929Y-99712000D02*
X148364000Y-99712000D01*
X147966929Y-98952000D02*
X148364000Y-98952000D01*
X157024000Y-99712000D02*
X151024000Y-99712000D01*
X157024000Y-98952000D02*
X157024000Y-99712000D01*
X151024000Y-98952000D02*
X157024000Y-98952000D01*
X148364000Y-98062000D02*
X151024000Y-98062000D01*
X148034000Y-97172000D02*
X148364000Y-97172000D01*
X148034000Y-96412000D02*
X148364000Y-96412000D01*
X151024000Y-97072000D02*
X157024000Y-97072000D01*
X151024000Y-96952000D02*
X157024000Y-96952000D01*
X151024000Y-96832000D02*
X157024000Y-96832000D01*
X151024000Y-96712000D02*
X157024000Y-96712000D01*
X151024000Y-96592000D02*
X157024000Y-96592000D01*
X151024000Y-96472000D02*
X157024000Y-96472000D01*
X157024000Y-97172000D02*
X151024000Y-97172000D01*
X157024000Y-96412000D02*
X157024000Y-97172000D01*
X151024000Y-96412000D02*
X157024000Y-96412000D01*
X151024000Y-95462000D02*
X148364000Y-95462000D01*
X151024000Y-108282000D02*
X151024000Y-95462000D01*
X148364000Y-108282000D02*
X151024000Y-108282000D01*
X148364000Y-95462000D02*
X148364000Y-108282000D01*
%TO.C,C1*%
X128210000Y-95811779D02*
X128210000Y-95486221D01*
X127190000Y-95811779D02*
X127190000Y-95486221D01*
%TO.C,C2*%
X128790000Y-95811779D02*
X128790000Y-95486221D01*
X129810000Y-95811779D02*
X129810000Y-95486221D01*
%TO.C,C3*%
X134790000Y-105337221D02*
X134790000Y-105662779D01*
X135810000Y-105337221D02*
X135810000Y-105662779D01*
%TO.C,C4*%
X134210000Y-105337221D02*
X134210000Y-105662779D01*
X133190000Y-105337221D02*
X133190000Y-105662779D01*
%TO.C,C5*%
X136390000Y-105650279D02*
X136390000Y-105324721D01*
X137410000Y-105650279D02*
X137410000Y-105324721D01*
%TO.C,D1*%
X143456000Y-98965000D02*
X141171000Y-98965000D01*
X143456000Y-100435000D02*
X143456000Y-98965000D01*
X141171000Y-100435000D02*
X143456000Y-100435000D01*
%TO.C,D2*%
X141171000Y-97019000D02*
X143456000Y-97019000D01*
X143456000Y-97019000D02*
X143456000Y-95549000D01*
X143456000Y-95549000D02*
X141171000Y-95549000D01*
%TO.C,J1*%
X120113000Y-108370000D02*
X120113000Y-99430000D01*
X125623000Y-108370000D02*
X123823000Y-108370000D01*
X120113000Y-108370000D02*
X121573000Y-108370000D01*
X120113000Y-99430000D02*
X121573000Y-99430000D01*
X125623000Y-99430000D02*
X123823000Y-99430000D01*
%TO.C,R1*%
X131462779Y-106910000D02*
X131137221Y-106910000D01*
X131462779Y-105890000D02*
X131137221Y-105890000D01*
%TO.C,R2*%
X131462779Y-104190000D02*
X131137221Y-104190000D01*
X131462779Y-105210000D02*
X131137221Y-105210000D01*
%TO.C,R3*%
X135937221Y-107390000D02*
X136262779Y-107390000D01*
X135937221Y-108410000D02*
X136262779Y-108410000D01*
%TO.C,R4*%
X138925000Y-100637779D02*
X138925000Y-100312221D01*
X137905000Y-100637779D02*
X137905000Y-100312221D01*
%TO.C,R5*%
X142133779Y-98510000D02*
X141808221Y-98510000D01*
X142133779Y-97490000D02*
X141808221Y-97490000D01*
%TO.C,R6*%
X142133779Y-100854000D02*
X141808221Y-100854000D01*
X142133779Y-101874000D02*
X141808221Y-101874000D01*
%TO.C,R7*%
X138925000Y-97137221D02*
X138925000Y-97462779D01*
X137905000Y-97137221D02*
X137905000Y-97462779D01*
%TO.C,U1*%
X130490000Y-100480000D02*
X131750000Y-100480000D01*
X137310000Y-100480000D02*
X136050000Y-100480000D01*
X130490000Y-96720000D02*
X130490000Y-100480000D01*
X137310000Y-94470000D02*
X137310000Y-100480000D01*
%TO.C,U2*%
X143221000Y-103390000D02*
X143946000Y-103390000D01*
X143946000Y-103390000D02*
X143946000Y-104115000D01*
X139451000Y-108610000D02*
X138726000Y-108610000D01*
X138726000Y-108610000D02*
X138726000Y-107885000D01*
X143221000Y-108610000D02*
X143946000Y-108610000D01*
X143946000Y-108610000D02*
X143946000Y-107885000D01*
X139451000Y-103390000D02*
X138726000Y-103390000D01*
%TO.C,R8*%
D10*
X126548380Y-98228666D02*
X126072190Y-98562000D01*
X126548380Y-98800095D02*
X125548380Y-98800095D01*
X125548380Y-98419142D01*
X125596000Y-98323904D01*
X125643619Y-98276285D01*
X125738857Y-98228666D01*
X125881714Y-98228666D01*
X125976952Y-98276285D01*
X126024571Y-98323904D01*
X126072190Y-98419142D01*
X126072190Y-98800095D01*
X125976952Y-97657238D02*
X125929333Y-97752476D01*
X125881714Y-97800095D01*
X125786476Y-97847714D01*
X125738857Y-97847714D01*
X125643619Y-97800095D01*
X125596000Y-97752476D01*
X125548380Y-97657238D01*
X125548380Y-97466761D01*
X125596000Y-97371523D01*
X125643619Y-97323904D01*
X125738857Y-97276285D01*
X125786476Y-97276285D01*
X125881714Y-97323904D01*
X125929333Y-97371523D01*
X125976952Y-97466761D01*
X125976952Y-97657238D01*
X126024571Y-97752476D01*
X126072190Y-97800095D01*
X126167428Y-97847714D01*
X126357904Y-97847714D01*
X126453142Y-97800095D01*
X126500761Y-97752476D01*
X126548380Y-97657238D01*
X126548380Y-97466761D01*
X126500761Y-97371523D01*
X126453142Y-97323904D01*
X126357904Y-97276285D01*
X126167428Y-97276285D01*
X126072190Y-97323904D01*
X126024571Y-97371523D01*
X125976952Y-97466761D01*
%TO.C,D3*%
X125024380Y-98927095D02*
X124024380Y-98927095D01*
X124024380Y-98689000D01*
X124072000Y-98546142D01*
X124167238Y-98450904D01*
X124262476Y-98403285D01*
X124452952Y-98355666D01*
X124595809Y-98355666D01*
X124786285Y-98403285D01*
X124881523Y-98450904D01*
X124976761Y-98546142D01*
X125024380Y-98689000D01*
X125024380Y-98927095D01*
X124024380Y-98022333D02*
X124024380Y-97403285D01*
X124405333Y-97736619D01*
X124405333Y-97593761D01*
X124452952Y-97498523D01*
X124500571Y-97450904D01*
X124595809Y-97403285D01*
X124833904Y-97403285D01*
X124929142Y-97450904D01*
X124976761Y-97498523D01*
X125024380Y-97593761D01*
X125024380Y-97879476D01*
X124976761Y-97974714D01*
X124929142Y-98022333D01*
%TO.C,C1*%
X128104142Y-98228666D02*
X128151761Y-98276285D01*
X128199380Y-98419142D01*
X128199380Y-98514380D01*
X128151761Y-98657238D01*
X128056523Y-98752476D01*
X127961285Y-98800095D01*
X127770809Y-98847714D01*
X127627952Y-98847714D01*
X127437476Y-98800095D01*
X127342238Y-98752476D01*
X127247000Y-98657238D01*
X127199380Y-98514380D01*
X127199380Y-98419142D01*
X127247000Y-98276285D01*
X127294619Y-98228666D01*
X128199380Y-97276285D02*
X128199380Y-97847714D01*
X128199380Y-97562000D02*
X127199380Y-97562000D01*
X127342238Y-97657238D01*
X127437476Y-97752476D01*
X127485095Y-97847714D01*
%TO.C,C2*%
X129755142Y-98228666D02*
X129802761Y-98276285D01*
X129850380Y-98419142D01*
X129850380Y-98514380D01*
X129802761Y-98657238D01*
X129707523Y-98752476D01*
X129612285Y-98800095D01*
X129421809Y-98847714D01*
X129278952Y-98847714D01*
X129088476Y-98800095D01*
X128993238Y-98752476D01*
X128898000Y-98657238D01*
X128850380Y-98514380D01*
X128850380Y-98419142D01*
X128898000Y-98276285D01*
X128945619Y-98228666D01*
X128945619Y-97847714D02*
X128898000Y-97800095D01*
X128850380Y-97704857D01*
X128850380Y-97466761D01*
X128898000Y-97371523D01*
X128945619Y-97323904D01*
X129040857Y-97276285D01*
X129136095Y-97276285D01*
X129278952Y-97323904D01*
X129850380Y-97895333D01*
X129850380Y-97276285D01*
%TO.C,C3*%
X136851333Y-103880142D02*
X136803714Y-103927761D01*
X136660857Y-103975380D01*
X136565619Y-103975380D01*
X136422761Y-103927761D01*
X136327523Y-103832523D01*
X136279904Y-103737285D01*
X136232285Y-103546809D01*
X136232285Y-103403952D01*
X136279904Y-103213476D01*
X136327523Y-103118238D01*
X136422761Y-103023000D01*
X136565619Y-102975380D01*
X136660857Y-102975380D01*
X136803714Y-103023000D01*
X136851333Y-103070619D01*
X137184666Y-102975380D02*
X137803714Y-102975380D01*
X137470380Y-103356333D01*
X137613238Y-103356333D01*
X137708476Y-103403952D01*
X137756095Y-103451571D01*
X137803714Y-103546809D01*
X137803714Y-103784904D01*
X137756095Y-103880142D01*
X137708476Y-103927761D01*
X137613238Y-103975380D01*
X137327523Y-103975380D01*
X137232285Y-103927761D01*
X137184666Y-103880142D01*
%TO.C,C4*%
X134073142Y-108261666D02*
X134120761Y-108309285D01*
X134168380Y-108452142D01*
X134168380Y-108547380D01*
X134120761Y-108690238D01*
X134025523Y-108785476D01*
X133930285Y-108833095D01*
X133739809Y-108880714D01*
X133596952Y-108880714D01*
X133406476Y-108833095D01*
X133311238Y-108785476D01*
X133216000Y-108690238D01*
X133168380Y-108547380D01*
X133168380Y-108452142D01*
X133216000Y-108309285D01*
X133263619Y-108261666D01*
X133501714Y-107404523D02*
X134168380Y-107404523D01*
X133120761Y-107642619D02*
X133835047Y-107880714D01*
X133835047Y-107261666D01*
%TO.C,C5*%
X135073333Y-103880142D02*
X135025714Y-103927761D01*
X134882857Y-103975380D01*
X134787619Y-103975380D01*
X134644761Y-103927761D01*
X134549523Y-103832523D01*
X134501904Y-103737285D01*
X134454285Y-103546809D01*
X134454285Y-103403952D01*
X134501904Y-103213476D01*
X134549523Y-103118238D01*
X134644761Y-103023000D01*
X134787619Y-102975380D01*
X134882857Y-102975380D01*
X135025714Y-103023000D01*
X135073333Y-103070619D01*
X135978095Y-102975380D02*
X135501904Y-102975380D01*
X135454285Y-103451571D01*
X135501904Y-103403952D01*
X135597142Y-103356333D01*
X135835238Y-103356333D01*
X135930476Y-103403952D01*
X135978095Y-103451571D01*
X136025714Y-103546809D01*
X136025714Y-103784904D01*
X135978095Y-103880142D01*
X135930476Y-103927761D01*
X135835238Y-103975380D01*
X135597142Y-103975380D01*
X135501904Y-103927761D01*
X135454285Y-103880142D01*
%TO.C,D1*%
X140391380Y-100451095D02*
X139391380Y-100451095D01*
X139391380Y-100213000D01*
X139439000Y-100070142D01*
X139534238Y-99974904D01*
X139629476Y-99927285D01*
X139819952Y-99879666D01*
X139962809Y-99879666D01*
X140153285Y-99927285D01*
X140248523Y-99974904D01*
X140343761Y-100070142D01*
X140391380Y-100213000D01*
X140391380Y-100451095D01*
X140391380Y-98927285D02*
X140391380Y-99498714D01*
X140391380Y-99213000D02*
X139391380Y-99213000D01*
X139534238Y-99308238D01*
X139629476Y-99403476D01*
X139677095Y-99498714D01*
%TO.C,D2*%
X140391380Y-96895095D02*
X139391380Y-96895095D01*
X139391380Y-96657000D01*
X139439000Y-96514142D01*
X139534238Y-96418904D01*
X139629476Y-96371285D01*
X139819952Y-96323666D01*
X139962809Y-96323666D01*
X140153285Y-96371285D01*
X140248523Y-96418904D01*
X140343761Y-96514142D01*
X140391380Y-96657000D01*
X140391380Y-96895095D01*
X139486619Y-95942714D02*
X139439000Y-95895095D01*
X139391380Y-95799857D01*
X139391380Y-95561761D01*
X139439000Y-95466523D01*
X139486619Y-95418904D01*
X139581857Y-95371285D01*
X139677095Y-95371285D01*
X139819952Y-95418904D01*
X140391380Y-95990333D01*
X140391380Y-95371285D01*
%TO.C,R1*%
X131009333Y-109690380D02*
X130676000Y-109214190D01*
X130437904Y-109690380D02*
X130437904Y-108690380D01*
X130818857Y-108690380D01*
X130914095Y-108738000D01*
X130961714Y-108785619D01*
X131009333Y-108880857D01*
X131009333Y-109023714D01*
X130961714Y-109118952D01*
X130914095Y-109166571D01*
X130818857Y-109214190D01*
X130437904Y-109214190D01*
X131961714Y-109690380D02*
X131390285Y-109690380D01*
X131676000Y-109690380D02*
X131676000Y-108690380D01*
X131580761Y-108833238D01*
X131485523Y-108928476D01*
X131390285Y-108976095D01*
%TO.C,R2*%
X131009333Y-108420380D02*
X130676000Y-107944190D01*
X130437904Y-108420380D02*
X130437904Y-107420380D01*
X130818857Y-107420380D01*
X130914095Y-107468000D01*
X130961714Y-107515619D01*
X131009333Y-107610857D01*
X131009333Y-107753714D01*
X130961714Y-107848952D01*
X130914095Y-107896571D01*
X130818857Y-107944190D01*
X130437904Y-107944190D01*
X131390285Y-107515619D02*
X131437904Y-107468000D01*
X131533142Y-107420380D01*
X131771238Y-107420380D01*
X131866476Y-107468000D01*
X131914095Y-107515619D01*
X131961714Y-107610857D01*
X131961714Y-107706095D01*
X131914095Y-107848952D01*
X131342666Y-108420380D01*
X131961714Y-108420380D01*
%TO.C,R3*%
X135933333Y-109817380D02*
X135600000Y-109341190D01*
X135361904Y-109817380D02*
X135361904Y-108817380D01*
X135742857Y-108817380D01*
X135838095Y-108865000D01*
X135885714Y-108912619D01*
X135933333Y-109007857D01*
X135933333Y-109150714D01*
X135885714Y-109245952D01*
X135838095Y-109293571D01*
X135742857Y-109341190D01*
X135361904Y-109341190D01*
X136266666Y-108817380D02*
X136885714Y-108817380D01*
X136552380Y-109198333D01*
X136695238Y-109198333D01*
X136790476Y-109245952D01*
X136838095Y-109293571D01*
X136885714Y-109388809D01*
X136885714Y-109626904D01*
X136838095Y-109722142D01*
X136790476Y-109769761D01*
X136695238Y-109817380D01*
X136409523Y-109817380D01*
X136314285Y-109769761D01*
X136266666Y-109722142D01*
%TO.C,R4*%
X137343380Y-102038666D02*
X136867190Y-102372000D01*
X137343380Y-102610095D02*
X136343380Y-102610095D01*
X136343380Y-102229142D01*
X136391000Y-102133904D01*
X136438619Y-102086285D01*
X136533857Y-102038666D01*
X136676714Y-102038666D01*
X136771952Y-102086285D01*
X136819571Y-102133904D01*
X136867190Y-102229142D01*
X136867190Y-102610095D01*
X136676714Y-101181523D02*
X137343380Y-101181523D01*
X136295761Y-101419619D02*
X137010047Y-101657714D01*
X137010047Y-101038666D01*
%TO.C,R5*%
X140391380Y-98101666D02*
X139915190Y-98435000D01*
X140391380Y-98673095D02*
X139391380Y-98673095D01*
X139391380Y-98292142D01*
X139439000Y-98196904D01*
X139486619Y-98149285D01*
X139581857Y-98101666D01*
X139724714Y-98101666D01*
X139819952Y-98149285D01*
X139867571Y-98196904D01*
X139915190Y-98292142D01*
X139915190Y-98673095D01*
X139391380Y-97196904D02*
X139391380Y-97673095D01*
X139867571Y-97720714D01*
X139819952Y-97673095D01*
X139772333Y-97577857D01*
X139772333Y-97339761D01*
X139819952Y-97244523D01*
X139867571Y-97196904D01*
X139962809Y-97149285D01*
X140200904Y-97149285D01*
X140296142Y-97196904D01*
X140343761Y-97244523D01*
X140391380Y-97339761D01*
X140391380Y-97577857D01*
X140343761Y-97673095D01*
X140296142Y-97720714D01*
%TO.C,R6*%
X140391380Y-101784666D02*
X139915190Y-102118000D01*
X140391380Y-102356095D02*
X139391380Y-102356095D01*
X139391380Y-101975142D01*
X139439000Y-101879904D01*
X139486619Y-101832285D01*
X139581857Y-101784666D01*
X139724714Y-101784666D01*
X139819952Y-101832285D01*
X139867571Y-101879904D01*
X139915190Y-101975142D01*
X139915190Y-102356095D01*
X139391380Y-100927523D02*
X139391380Y-101118000D01*
X139439000Y-101213238D01*
X139486619Y-101260857D01*
X139629476Y-101356095D01*
X139819952Y-101403714D01*
X140200904Y-101403714D01*
X140296142Y-101356095D01*
X140343761Y-101308476D01*
X140391380Y-101213238D01*
X140391380Y-101022761D01*
X140343761Y-100927523D01*
X140296142Y-100879904D01*
X140200904Y-100832285D01*
X139962809Y-100832285D01*
X139867571Y-100879904D01*
X139819952Y-100927523D01*
X139772333Y-101022761D01*
X139772333Y-101213238D01*
X139819952Y-101308476D01*
X139867571Y-101356095D01*
X139962809Y-101403714D01*
%TO.C,R7*%
X138994380Y-95153666D02*
X138518190Y-95487000D01*
X138994380Y-95725095D02*
X137994380Y-95725095D01*
X137994380Y-95344142D01*
X138042000Y-95248904D01*
X138089619Y-95201285D01*
X138184857Y-95153666D01*
X138327714Y-95153666D01*
X138422952Y-95201285D01*
X138470571Y-95248904D01*
X138518190Y-95344142D01*
X138518190Y-95725095D01*
X137994380Y-94820333D02*
X137994380Y-94153666D01*
X138994380Y-94582238D01*
%TO.C,U1*%
X130501380Y-102379904D02*
X131310904Y-102379904D01*
X131406142Y-102332285D01*
X131453761Y-102284666D01*
X131501380Y-102189428D01*
X131501380Y-101998952D01*
X131453761Y-101903714D01*
X131406142Y-101856095D01*
X131310904Y-101808476D01*
X130501380Y-101808476D01*
X131501380Y-100808476D02*
X131501380Y-101379904D01*
X131501380Y-101094190D02*
X130501380Y-101094190D01*
X130644238Y-101189428D01*
X130739476Y-101284666D01*
X130787095Y-101379904D01*
%TD*%
M02*
