%TF.GenerationSoftware,KiCad,Pcbnew,(5.1.6)-1*%
%TF.CreationDate,2020-07-24T23:52:19+08:00*%
%TF.ProjectId,USB_UART_CP2102,5553425f-5541-4525-945f-435032313032,rev?*%
%TF.SameCoordinates,Original*%
%TF.FileFunction,Copper,L2,Bot*%
%TF.FilePolarity,Positive*%
%FSLAX46Y46*%
G04 Gerber Fmt 4.6, Leading zero omitted, Abs format (unit mm)*
G04 Created by KiCad (PCBNEW (5.1.6)-1) date 2020-07-24 23:52:19*
%MOMM*%
%LPD*%
G01*
G04 APERTURE LIST*
%TA.AperFunction,ComponentPad*%
%ADD10C,3.000000*%
%TD*%
%TA.AperFunction,ComponentPad*%
%ADD11O,1.700000X1.700000*%
%TD*%
%TA.AperFunction,ComponentPad*%
%ADD12R,1.700000X1.700000*%
%TD*%
%TA.AperFunction,ComponentPad*%
%ADD13O,2.000000X0.900000*%
%TD*%
%TA.AperFunction,ComponentPad*%
%ADD14O,1.700000X0.900000*%
%TD*%
%TA.AperFunction,ViaPad*%
%ADD15C,1.200000*%
%TD*%
%TA.AperFunction,ViaPad*%
%ADD16C,0.600000*%
%TD*%
%TA.AperFunction,Conductor*%
%ADD17C,0.250000*%
%TD*%
%TA.AperFunction,Conductor*%
%ADD18C,0.254000*%
%TD*%
%TA.AperFunction,Conductor*%
%ADD19C,0.025400*%
%TD*%
G04 APERTURE END LIST*
D10*
%TO.P,REF\u002A\u002A,1*%
%TO.N,GND*%
X121905000Y-96157000D03*
%TD*%
D11*
%TO.P,J2,5*%
%TO.N,VBUS*%
X146924000Y-106952000D03*
%TO.P,J2,4*%
%TO.N,+3V3*%
X146924000Y-104412000D03*
%TO.P,J2,3*%
%TO.N,GND*%
X146924000Y-101872000D03*
%TO.P,J2,2*%
%TO.N,/TXD*%
X146924000Y-99332000D03*
D12*
%TO.P,J2,1*%
%TO.N,/RXD*%
X146924000Y-96792000D03*
%TD*%
D13*
%TO.P,J1,S1*%
%TO.N,GND*%
X126883000Y-99580000D03*
X126883000Y-108220000D03*
D14*
X122713000Y-99580000D03*
X122713000Y-108220000D03*
%TD*%
D15*
%TO.N,GND*%
X142225000Y-105174000D03*
X142225000Y-106952000D03*
X140447000Y-106952000D03*
D16*
X136256000Y-97173000D03*
X128509000Y-95649000D03*
X124445000Y-97681000D03*
X138034000Y-103523000D03*
X133716000Y-107968000D03*
D15*
X140447000Y-105174000D03*
D16*
X136000000Y-99000000D03*
X124000000Y-102000000D03*
X124000000Y-105000000D03*
X131000000Y-100000000D03*
X144638000Y-98062000D03*
X149464000Y-96792000D03*
X149464000Y-106952000D03*
X149464000Y-104412000D03*
X149464000Y-101872000D03*
X149464000Y-99332000D03*
X144384000Y-102126000D03*
X145146000Y-105682000D03*
X139812000Y-95268000D03*
X144638000Y-95268000D03*
X131430000Y-108222000D03*
X129398000Y-108476000D03*
X144384000Y-100348000D03*
%TO.N,VBUS*%
X138886000Y-108386000D03*
%TO.N,+3V3*%
X126985000Y-97808000D03*
X133900000Y-97865000D03*
X137018000Y-102507000D03*
%TO.N,Net-(J1-PadA7)*%
X129346922Y-103690501D03*
X129525000Y-105936000D03*
%TO.N,/D-*%
X137907000Y-106374990D03*
X132826992Y-107079000D03*
%TO.N,Net-(R3-Pad2)*%
X137907000Y-108349000D03*
X140320000Y-109238000D03*
%TO.N,Net-(R5-Pad2)*%
X141971000Y-98824000D03*
X141971000Y-102253000D03*
%TD*%
D17*
%TO.N,VBUS*%
X145490000Y-108386000D02*
X146924000Y-106952000D01*
X138886000Y-108386000D02*
X145490000Y-108386000D01*
%TO.N,+3V3*%
X133843000Y-97808000D02*
X133900000Y-97865000D01*
X126985000Y-97808000D02*
X133843000Y-97808000D01*
X137018000Y-102507000D02*
X139939000Y-102507000D01*
X139939000Y-102507000D02*
X140828000Y-103396000D01*
X145908000Y-103396000D02*
X146924000Y-104412000D01*
X140828000Y-103396000D02*
X145908000Y-103396000D01*
%TO.N,Net-(J1-PadA7)*%
X129346922Y-105757922D02*
X129525000Y-105936000D01*
X129346922Y-103690501D02*
X129346922Y-105757922D01*
%TO.N,/D-*%
X137202990Y-107079000D02*
X132826992Y-107079000D01*
X137907000Y-106374990D02*
X137202990Y-107079000D01*
%TO.N,Net-(R3-Pad2)*%
X137907000Y-108349000D02*
X138796000Y-109238000D01*
X138796000Y-109238000D02*
X140320000Y-109238000D01*
%TO.N,Net-(R5-Pad2)*%
X141971000Y-98824000D02*
X141971000Y-102253000D01*
%TD*%
D18*
%TO.N,GND*%
G36*
X149245021Y-94762549D02*
G01*
X149480712Y-94833708D01*
X149698089Y-94949291D01*
X149888879Y-95104895D01*
X150045811Y-95294593D01*
X150162906Y-95511157D01*
X150235709Y-95746344D01*
X150265000Y-96025028D01*
X150265001Y-107964043D01*
X150237451Y-108245021D01*
X150166291Y-108480712D01*
X150050711Y-108698088D01*
X149895104Y-108888879D01*
X149705408Y-109045811D01*
X149488843Y-109162906D01*
X149253656Y-109235709D01*
X148974972Y-109265000D01*
X141255000Y-109265000D01*
X141255000Y-109146000D01*
X145452678Y-109146000D01*
X145490000Y-109149676D01*
X145527322Y-109146000D01*
X145527333Y-109146000D01*
X145638986Y-109135003D01*
X145782247Y-109091546D01*
X145914276Y-109020974D01*
X146030001Y-108926001D01*
X146053804Y-108896997D01*
X146215885Y-108734916D01*
X146289067Y-108666683D01*
X146353668Y-108614736D01*
X146417715Y-108570902D01*
X146481610Y-108534329D01*
X146545991Y-108504237D01*
X146611739Y-108479990D01*
X146679915Y-108461178D01*
X146751606Y-108447670D01*
X146827826Y-108439612D01*
X146922667Y-108437000D01*
X147070260Y-108437000D01*
X147357158Y-108379932D01*
X147627411Y-108267990D01*
X147870632Y-108105475D01*
X148077475Y-107898632D01*
X148239990Y-107655411D01*
X148351932Y-107385158D01*
X148409000Y-107098260D01*
X148409000Y-106805740D01*
X148351932Y-106518842D01*
X148239990Y-106248589D01*
X148077475Y-106005368D01*
X147870632Y-105798525D01*
X147696240Y-105682000D01*
X147870632Y-105565475D01*
X148077475Y-105358632D01*
X148239990Y-105115411D01*
X148351932Y-104845158D01*
X148409000Y-104558260D01*
X148409000Y-104265740D01*
X148351932Y-103978842D01*
X148239990Y-103708589D01*
X148077475Y-103465368D01*
X147870632Y-103258525D01*
X147688466Y-103136805D01*
X147805355Y-103067178D01*
X148021588Y-102872269D01*
X148195641Y-102638920D01*
X148320825Y-102376099D01*
X148365476Y-102228890D01*
X148244155Y-101999000D01*
X147051000Y-101999000D01*
X147051000Y-102019000D01*
X146797000Y-102019000D01*
X146797000Y-101999000D01*
X145603845Y-101999000D01*
X145482524Y-102228890D01*
X145527175Y-102376099D01*
X145650968Y-102636000D01*
X142824393Y-102636000D01*
X142870068Y-102525729D01*
X142906000Y-102345089D01*
X142906000Y-102160911D01*
X142870068Y-101980271D01*
X142799586Y-101810111D01*
X142731000Y-101707465D01*
X142731000Y-99369535D01*
X142799586Y-99266889D01*
X142870068Y-99096729D01*
X142906000Y-98916089D01*
X142906000Y-98731911D01*
X142870068Y-98551271D01*
X142799586Y-98381111D01*
X142697262Y-98227972D01*
X142567028Y-98097738D01*
X142413889Y-97995414D01*
X142243729Y-97924932D01*
X142063089Y-97889000D01*
X141878911Y-97889000D01*
X141698271Y-97924932D01*
X141528111Y-97995414D01*
X141374972Y-98097738D01*
X141244738Y-98227972D01*
X141142414Y-98381111D01*
X141071932Y-98551271D01*
X141036000Y-98731911D01*
X141036000Y-98916089D01*
X141071932Y-99096729D01*
X141142414Y-99266889D01*
X141211000Y-99369536D01*
X141211001Y-101707463D01*
X141142414Y-101810111D01*
X141071932Y-101980271D01*
X141036000Y-102160911D01*
X141036000Y-102345089D01*
X141071932Y-102525729D01*
X141099793Y-102592991D01*
X140502803Y-101996002D01*
X140479001Y-101966999D01*
X140363276Y-101872026D01*
X140231247Y-101801454D01*
X140087986Y-101757997D01*
X139976333Y-101747000D01*
X139976322Y-101747000D01*
X139939000Y-101743324D01*
X139901678Y-101747000D01*
X137563535Y-101747000D01*
X137460889Y-101678414D01*
X137290729Y-101607932D01*
X137110089Y-101572000D01*
X136925911Y-101572000D01*
X136745271Y-101607932D01*
X136575111Y-101678414D01*
X136421972Y-101780738D01*
X136291738Y-101910972D01*
X136189414Y-102064111D01*
X136118932Y-102234271D01*
X136083000Y-102414911D01*
X136083000Y-102599089D01*
X136118932Y-102779729D01*
X136189414Y-102949889D01*
X136291738Y-103103028D01*
X136421972Y-103233262D01*
X136575111Y-103335586D01*
X136745271Y-103406068D01*
X136925911Y-103442000D01*
X137110089Y-103442000D01*
X137290729Y-103406068D01*
X137460889Y-103335586D01*
X137563535Y-103267000D01*
X139624199Y-103267000D01*
X140264200Y-103907002D01*
X140287999Y-103936001D01*
X140403724Y-104030974D01*
X140535753Y-104101546D01*
X140679014Y-104145003D01*
X140790667Y-104156000D01*
X140790677Y-104156000D01*
X140828000Y-104159676D01*
X140865323Y-104156000D01*
X145427268Y-104156000D01*
X145432885Y-104208037D01*
X145437872Y-104297004D01*
X145439000Y-104402852D01*
X145439000Y-104558260D01*
X145496068Y-104845158D01*
X145608010Y-105115411D01*
X145770525Y-105358632D01*
X145977368Y-105565475D01*
X146151760Y-105682000D01*
X145977368Y-105798525D01*
X145770525Y-106005368D01*
X145608010Y-106248589D01*
X145496068Y-106518842D01*
X145439000Y-106805740D01*
X145439000Y-106953333D01*
X145436388Y-107048177D01*
X145428330Y-107124385D01*
X145414821Y-107196084D01*
X145396010Y-107264256D01*
X145371760Y-107330016D01*
X145341669Y-107394394D01*
X145305102Y-107458276D01*
X145261263Y-107522331D01*
X145209310Y-107586940D01*
X145172892Y-107626000D01*
X139431535Y-107626000D01*
X139328889Y-107557414D01*
X139158729Y-107486932D01*
X138978089Y-107451000D01*
X138793911Y-107451000D01*
X138613271Y-107486932D01*
X138443111Y-107557414D01*
X138424187Y-107570058D01*
X138349889Y-107520414D01*
X138179729Y-107449932D01*
X137999089Y-107414000D01*
X137942792Y-107414000D01*
X138058649Y-107298143D01*
X138179729Y-107274058D01*
X138349889Y-107203576D01*
X138503028Y-107101252D01*
X138633262Y-106971018D01*
X138735586Y-106817879D01*
X138806068Y-106647719D01*
X138842000Y-106467079D01*
X138842000Y-106282901D01*
X138806068Y-106102261D01*
X138735586Y-105932101D01*
X138633262Y-105778962D01*
X138503028Y-105648728D01*
X138349889Y-105546404D01*
X138179729Y-105475922D01*
X137999089Y-105439990D01*
X137814911Y-105439990D01*
X137634271Y-105475922D01*
X137464111Y-105546404D01*
X137310972Y-105648728D01*
X137180738Y-105778962D01*
X137078414Y-105932101D01*
X137007932Y-106102261D01*
X136983847Y-106223341D01*
X136888188Y-106319000D01*
X133372527Y-106319000D01*
X133269881Y-106250414D01*
X133099721Y-106179932D01*
X132919081Y-106144000D01*
X132734903Y-106144000D01*
X132554263Y-106179932D01*
X132384103Y-106250414D01*
X132230964Y-106352738D01*
X132100730Y-106482972D01*
X131998406Y-106636111D01*
X131927924Y-106806271D01*
X131891992Y-106986911D01*
X131891992Y-107171089D01*
X131927924Y-107351729D01*
X131998406Y-107521889D01*
X132100730Y-107675028D01*
X132230964Y-107805262D01*
X132384103Y-107907586D01*
X132554263Y-107978068D01*
X132734903Y-108014000D01*
X132919081Y-108014000D01*
X133099721Y-107978068D01*
X133269881Y-107907586D01*
X133372527Y-107839000D01*
X137123256Y-107839000D01*
X137078414Y-107906111D01*
X137007932Y-108076271D01*
X136972000Y-108256911D01*
X136972000Y-108441089D01*
X137007932Y-108621729D01*
X137078414Y-108791889D01*
X137180738Y-108945028D01*
X137310972Y-109075262D01*
X137464111Y-109177586D01*
X137634271Y-109248068D01*
X137719393Y-109265000D01*
X127743441Y-109265000D01*
X127769233Y-109259376D01*
X127965545Y-109173809D01*
X128141391Y-109051587D01*
X128290014Y-108897408D01*
X128405702Y-108717197D01*
X128477408Y-108514001D01*
X128350502Y-108347000D01*
X127010000Y-108347000D01*
X127010000Y-108367000D01*
X126756000Y-108367000D01*
X126756000Y-108347000D01*
X125415498Y-108347000D01*
X125288592Y-108514001D01*
X125360298Y-108717197D01*
X125475986Y-108897408D01*
X125624609Y-109051587D01*
X125800455Y-109173809D01*
X125996767Y-109259376D01*
X126022559Y-109265000D01*
X123423441Y-109265000D01*
X123449233Y-109259376D01*
X123645545Y-109173809D01*
X123821391Y-109051587D01*
X123970014Y-108897408D01*
X124085702Y-108717197D01*
X124157408Y-108514001D01*
X124030502Y-108347000D01*
X122840000Y-108347000D01*
X122840000Y-108367000D01*
X122586000Y-108367000D01*
X122586000Y-108347000D01*
X121395498Y-108347000D01*
X121268592Y-108514001D01*
X121340298Y-108717197D01*
X121455986Y-108897408D01*
X121604609Y-109051587D01*
X121780455Y-109173809D01*
X121976238Y-109259145D01*
X121754979Y-109237451D01*
X121519288Y-109166291D01*
X121301912Y-109050711D01*
X121111121Y-108895104D01*
X120954189Y-108705408D01*
X120837094Y-108488843D01*
X120764291Y-108253656D01*
X120735000Y-107974972D01*
X120735000Y-107925999D01*
X121268592Y-107925999D01*
X121395498Y-108093000D01*
X122586000Y-108093000D01*
X122586000Y-107135000D01*
X122840000Y-107135000D01*
X122840000Y-108093000D01*
X124030502Y-108093000D01*
X124157408Y-107925999D01*
X125288592Y-107925999D01*
X125415498Y-108093000D01*
X126756000Y-108093000D01*
X126756000Y-108073000D01*
X127010000Y-108073000D01*
X127010000Y-108093000D01*
X128350502Y-108093000D01*
X128477408Y-107925999D01*
X128405702Y-107722803D01*
X128290014Y-107542592D01*
X128141391Y-107388413D01*
X127965545Y-107266191D01*
X127769233Y-107180624D01*
X127560000Y-107135000D01*
X127272133Y-107135000D01*
X127302068Y-107062729D01*
X127338000Y-106882089D01*
X127338000Y-106697911D01*
X127302068Y-106517271D01*
X127231586Y-106347111D01*
X127129262Y-106193972D01*
X126999028Y-106063738D01*
X126845889Y-105961414D01*
X126675729Y-105890932D01*
X126495089Y-105855000D01*
X126310911Y-105855000D01*
X126130271Y-105890932D01*
X125960111Y-105961414D01*
X125806972Y-106063738D01*
X125676738Y-106193972D01*
X125574414Y-106347111D01*
X125503932Y-106517271D01*
X125468000Y-106697911D01*
X125468000Y-106882089D01*
X125503932Y-107062729D01*
X125574414Y-107232889D01*
X125661294Y-107362915D01*
X125624609Y-107388413D01*
X125475986Y-107542592D01*
X125360298Y-107722803D01*
X125288592Y-107925999D01*
X124157408Y-107925999D01*
X124085702Y-107722803D01*
X123970014Y-107542592D01*
X123821391Y-107388413D01*
X123645545Y-107266191D01*
X123449233Y-107180624D01*
X123240000Y-107135000D01*
X122840000Y-107135000D01*
X122586000Y-107135000D01*
X122186000Y-107135000D01*
X121976767Y-107180624D01*
X121780455Y-107266191D01*
X121604609Y-107388413D01*
X121455986Y-107542592D01*
X121340298Y-107722803D01*
X121268592Y-107925999D01*
X120735000Y-107925999D01*
X120735000Y-103598412D01*
X128411922Y-103598412D01*
X128411922Y-103782590D01*
X128447854Y-103963230D01*
X128518336Y-104133390D01*
X128586922Y-104236037D01*
X128586923Y-105720590D01*
X128583246Y-105757922D01*
X128586923Y-105795255D01*
X128591147Y-105838144D01*
X128590000Y-105843911D01*
X128590000Y-106028089D01*
X128625932Y-106208729D01*
X128696414Y-106378889D01*
X128798738Y-106532028D01*
X128928972Y-106662262D01*
X129082111Y-106764586D01*
X129252271Y-106835068D01*
X129432911Y-106871000D01*
X129617089Y-106871000D01*
X129797729Y-106835068D01*
X129967889Y-106764586D01*
X130121028Y-106662262D01*
X130251262Y-106532028D01*
X130353586Y-106378889D01*
X130424068Y-106208729D01*
X130460000Y-106028089D01*
X130460000Y-105843911D01*
X130424068Y-105663271D01*
X130353586Y-105493111D01*
X130251262Y-105339972D01*
X130189296Y-105278006D01*
X130189214Y-105277910D01*
X130181681Y-105268292D01*
X130168672Y-105250566D01*
X130151434Y-105225817D01*
X130130673Y-105194699D01*
X130106922Y-105157788D01*
X130106922Y-104236036D01*
X130175508Y-104133390D01*
X130245990Y-103963230D01*
X130281922Y-103782590D01*
X130281922Y-103598412D01*
X130245990Y-103417772D01*
X130175508Y-103247612D01*
X130073184Y-103094473D01*
X129942950Y-102964239D01*
X129789811Y-102861915D01*
X129619651Y-102791433D01*
X129439011Y-102755501D01*
X129254833Y-102755501D01*
X129074193Y-102791433D01*
X128904033Y-102861915D01*
X128750894Y-102964239D01*
X128620660Y-103094473D01*
X128518336Y-103247612D01*
X128447854Y-103417772D01*
X128411922Y-103598412D01*
X120735000Y-103598412D01*
X120735000Y-99874001D01*
X121268592Y-99874001D01*
X121340298Y-100077197D01*
X121455986Y-100257408D01*
X121604609Y-100411587D01*
X121780455Y-100533809D01*
X121976767Y-100619376D01*
X122186000Y-100665000D01*
X122586000Y-100665000D01*
X122586000Y-99707000D01*
X122840000Y-99707000D01*
X122840000Y-100665000D01*
X123240000Y-100665000D01*
X123449233Y-100619376D01*
X123645545Y-100533809D01*
X123821391Y-100411587D01*
X123970014Y-100257408D01*
X124085702Y-100077197D01*
X124157408Y-99874001D01*
X125288592Y-99874001D01*
X125360298Y-100077197D01*
X125475986Y-100257408D01*
X125624609Y-100411587D01*
X125661294Y-100437085D01*
X125574414Y-100567111D01*
X125503932Y-100737271D01*
X125468000Y-100917911D01*
X125468000Y-101102089D01*
X125503932Y-101282729D01*
X125574414Y-101452889D01*
X125676738Y-101606028D01*
X125806972Y-101736262D01*
X125960111Y-101838586D01*
X126130271Y-101909068D01*
X126310911Y-101945000D01*
X126495089Y-101945000D01*
X126675729Y-101909068D01*
X126845889Y-101838586D01*
X126999028Y-101736262D01*
X127129262Y-101606028D01*
X127231586Y-101452889D01*
X127302068Y-101282729D01*
X127338000Y-101102089D01*
X127338000Y-100917911D01*
X127302068Y-100737271D01*
X127272133Y-100665000D01*
X127560000Y-100665000D01*
X127769233Y-100619376D01*
X127965545Y-100533809D01*
X128141391Y-100411587D01*
X128290014Y-100257408D01*
X128405702Y-100077197D01*
X128477408Y-99874001D01*
X128350502Y-99707000D01*
X127010000Y-99707000D01*
X127010000Y-99727000D01*
X126756000Y-99727000D01*
X126756000Y-99707000D01*
X125415498Y-99707000D01*
X125288592Y-99874001D01*
X124157408Y-99874001D01*
X124030502Y-99707000D01*
X122840000Y-99707000D01*
X122586000Y-99707000D01*
X121395498Y-99707000D01*
X121268592Y-99874001D01*
X120735000Y-99874001D01*
X120735000Y-99285999D01*
X121268592Y-99285999D01*
X121395498Y-99453000D01*
X122586000Y-99453000D01*
X122586000Y-98495000D01*
X122840000Y-98495000D01*
X122840000Y-99453000D01*
X124030502Y-99453000D01*
X124157408Y-99285999D01*
X125288592Y-99285999D01*
X125415498Y-99453000D01*
X126756000Y-99453000D01*
X126756000Y-99433000D01*
X127010000Y-99433000D01*
X127010000Y-99453000D01*
X128350502Y-99453000D01*
X128477408Y-99285999D01*
X128405702Y-99082803D01*
X128290014Y-98902592D01*
X128141391Y-98748413D01*
X127965545Y-98626191D01*
X127832040Y-98568000D01*
X133280710Y-98568000D01*
X133303972Y-98591262D01*
X133457111Y-98693586D01*
X133627271Y-98764068D01*
X133807911Y-98800000D01*
X133992089Y-98800000D01*
X134172729Y-98764068D01*
X134342889Y-98693586D01*
X134496028Y-98591262D01*
X134626262Y-98461028D01*
X134728586Y-98307889D01*
X134799068Y-98137729D01*
X134835000Y-97957089D01*
X134835000Y-97772911D01*
X134799068Y-97592271D01*
X134728586Y-97422111D01*
X134626262Y-97268972D01*
X134496028Y-97138738D01*
X134342889Y-97036414D01*
X134172729Y-96965932D01*
X133992089Y-96930000D01*
X133807911Y-96930000D01*
X133627271Y-96965932D01*
X133457111Y-97036414D01*
X133439771Y-97048000D01*
X127530535Y-97048000D01*
X127427889Y-96979414D01*
X127257729Y-96908932D01*
X127077089Y-96873000D01*
X126892911Y-96873000D01*
X126712271Y-96908932D01*
X126542111Y-96979414D01*
X126388972Y-97081738D01*
X126258738Y-97211972D01*
X126156414Y-97365111D01*
X126085932Y-97535271D01*
X126050000Y-97715911D01*
X126050000Y-97900089D01*
X126085932Y-98080729D01*
X126156414Y-98250889D01*
X126258738Y-98404028D01*
X126349710Y-98495000D01*
X126206000Y-98495000D01*
X125996767Y-98540624D01*
X125800455Y-98626191D01*
X125624609Y-98748413D01*
X125475986Y-98902592D01*
X125360298Y-99082803D01*
X125288592Y-99285999D01*
X124157408Y-99285999D01*
X124085702Y-99082803D01*
X123970014Y-98902592D01*
X123821391Y-98748413D01*
X123645545Y-98626191D01*
X123449233Y-98540624D01*
X123240000Y-98495000D01*
X122840000Y-98495000D01*
X122586000Y-98495000D01*
X122186000Y-98495000D01*
X121976767Y-98540624D01*
X121780455Y-98626191D01*
X121604609Y-98748413D01*
X121455986Y-98902592D01*
X121340298Y-99082803D01*
X121268592Y-99285999D01*
X120735000Y-99285999D01*
X120735000Y-97935973D01*
X120748962Y-97964214D01*
X121123745Y-98155020D01*
X121528551Y-98269044D01*
X121947824Y-98301902D01*
X122365451Y-98252334D01*
X122765383Y-98122243D01*
X123061038Y-97964214D01*
X123217048Y-97648653D01*
X121905000Y-96336605D01*
X121890858Y-96350748D01*
X121711253Y-96171143D01*
X121725395Y-96157000D01*
X121711253Y-96142858D01*
X121890858Y-95963253D01*
X121905000Y-95977395D01*
X121919143Y-95963253D01*
X122098748Y-96142858D01*
X122084605Y-96157000D01*
X123396653Y-97469048D01*
X123712214Y-97313038D01*
X123903020Y-96938255D01*
X124017044Y-96533449D01*
X124049902Y-96114176D01*
X124029467Y-95942000D01*
X145435928Y-95942000D01*
X145435928Y-97642000D01*
X145448188Y-97766482D01*
X145484498Y-97886180D01*
X145543463Y-97996494D01*
X145622815Y-98093185D01*
X145719506Y-98172537D01*
X145829820Y-98231502D01*
X145902380Y-98253513D01*
X145770525Y-98385368D01*
X145608010Y-98628589D01*
X145496068Y-98898842D01*
X145439000Y-99185740D01*
X145439000Y-99478260D01*
X145496068Y-99765158D01*
X145608010Y-100035411D01*
X145770525Y-100278632D01*
X145977368Y-100485475D01*
X146159534Y-100607195D01*
X146042645Y-100676822D01*
X145826412Y-100871731D01*
X145652359Y-101105080D01*
X145527175Y-101367901D01*
X145482524Y-101515110D01*
X145603845Y-101745000D01*
X146797000Y-101745000D01*
X146797000Y-101725000D01*
X147051000Y-101725000D01*
X147051000Y-101745000D01*
X148244155Y-101745000D01*
X148365476Y-101515110D01*
X148320825Y-101367901D01*
X148195641Y-101105080D01*
X148021588Y-100871731D01*
X147805355Y-100676822D01*
X147688466Y-100607195D01*
X147870632Y-100485475D01*
X148077475Y-100278632D01*
X148239990Y-100035411D01*
X148351932Y-99765158D01*
X148409000Y-99478260D01*
X148409000Y-99185740D01*
X148351932Y-98898842D01*
X148239990Y-98628589D01*
X148077475Y-98385368D01*
X147945620Y-98253513D01*
X148018180Y-98231502D01*
X148128494Y-98172537D01*
X148225185Y-98093185D01*
X148304537Y-97996494D01*
X148363502Y-97886180D01*
X148399812Y-97766482D01*
X148412072Y-97642000D01*
X148412072Y-95942000D01*
X148399812Y-95817518D01*
X148363502Y-95697820D01*
X148304537Y-95587506D01*
X148225185Y-95490815D01*
X148128494Y-95411463D01*
X148018180Y-95352498D01*
X147898482Y-95316188D01*
X147774000Y-95303928D01*
X146074000Y-95303928D01*
X145949518Y-95316188D01*
X145829820Y-95352498D01*
X145719506Y-95411463D01*
X145622815Y-95490815D01*
X145543463Y-95587506D01*
X145484498Y-95697820D01*
X145448188Y-95817518D01*
X145435928Y-95942000D01*
X124029467Y-95942000D01*
X124000334Y-95696549D01*
X123870243Y-95296617D01*
X123712214Y-95000962D01*
X123396655Y-94844953D01*
X123506608Y-94735000D01*
X148964053Y-94735000D01*
X149245021Y-94762549D01*
G37*
X149245021Y-94762549D02*
X149480712Y-94833708D01*
X149698089Y-94949291D01*
X149888879Y-95104895D01*
X150045811Y-95294593D01*
X150162906Y-95511157D01*
X150235709Y-95746344D01*
X150265000Y-96025028D01*
X150265001Y-107964043D01*
X150237451Y-108245021D01*
X150166291Y-108480712D01*
X150050711Y-108698088D01*
X149895104Y-108888879D01*
X149705408Y-109045811D01*
X149488843Y-109162906D01*
X149253656Y-109235709D01*
X148974972Y-109265000D01*
X141255000Y-109265000D01*
X141255000Y-109146000D01*
X145452678Y-109146000D01*
X145490000Y-109149676D01*
X145527322Y-109146000D01*
X145527333Y-109146000D01*
X145638986Y-109135003D01*
X145782247Y-109091546D01*
X145914276Y-109020974D01*
X146030001Y-108926001D01*
X146053804Y-108896997D01*
X146215885Y-108734916D01*
X146289067Y-108666683D01*
X146353668Y-108614736D01*
X146417715Y-108570902D01*
X146481610Y-108534329D01*
X146545991Y-108504237D01*
X146611739Y-108479990D01*
X146679915Y-108461178D01*
X146751606Y-108447670D01*
X146827826Y-108439612D01*
X146922667Y-108437000D01*
X147070260Y-108437000D01*
X147357158Y-108379932D01*
X147627411Y-108267990D01*
X147870632Y-108105475D01*
X148077475Y-107898632D01*
X148239990Y-107655411D01*
X148351932Y-107385158D01*
X148409000Y-107098260D01*
X148409000Y-106805740D01*
X148351932Y-106518842D01*
X148239990Y-106248589D01*
X148077475Y-106005368D01*
X147870632Y-105798525D01*
X147696240Y-105682000D01*
X147870632Y-105565475D01*
X148077475Y-105358632D01*
X148239990Y-105115411D01*
X148351932Y-104845158D01*
X148409000Y-104558260D01*
X148409000Y-104265740D01*
X148351932Y-103978842D01*
X148239990Y-103708589D01*
X148077475Y-103465368D01*
X147870632Y-103258525D01*
X147688466Y-103136805D01*
X147805355Y-103067178D01*
X148021588Y-102872269D01*
X148195641Y-102638920D01*
X148320825Y-102376099D01*
X148365476Y-102228890D01*
X148244155Y-101999000D01*
X147051000Y-101999000D01*
X147051000Y-102019000D01*
X146797000Y-102019000D01*
X146797000Y-101999000D01*
X145603845Y-101999000D01*
X145482524Y-102228890D01*
X145527175Y-102376099D01*
X145650968Y-102636000D01*
X142824393Y-102636000D01*
X142870068Y-102525729D01*
X142906000Y-102345089D01*
X142906000Y-102160911D01*
X142870068Y-101980271D01*
X142799586Y-101810111D01*
X142731000Y-101707465D01*
X142731000Y-99369535D01*
X142799586Y-99266889D01*
X142870068Y-99096729D01*
X142906000Y-98916089D01*
X142906000Y-98731911D01*
X142870068Y-98551271D01*
X142799586Y-98381111D01*
X142697262Y-98227972D01*
X142567028Y-98097738D01*
X142413889Y-97995414D01*
X142243729Y-97924932D01*
X142063089Y-97889000D01*
X141878911Y-97889000D01*
X141698271Y-97924932D01*
X141528111Y-97995414D01*
X141374972Y-98097738D01*
X141244738Y-98227972D01*
X141142414Y-98381111D01*
X141071932Y-98551271D01*
X141036000Y-98731911D01*
X141036000Y-98916089D01*
X141071932Y-99096729D01*
X141142414Y-99266889D01*
X141211000Y-99369536D01*
X141211001Y-101707463D01*
X141142414Y-101810111D01*
X141071932Y-101980271D01*
X141036000Y-102160911D01*
X141036000Y-102345089D01*
X141071932Y-102525729D01*
X141099793Y-102592991D01*
X140502803Y-101996002D01*
X140479001Y-101966999D01*
X140363276Y-101872026D01*
X140231247Y-101801454D01*
X140087986Y-101757997D01*
X139976333Y-101747000D01*
X139976322Y-101747000D01*
X139939000Y-101743324D01*
X139901678Y-101747000D01*
X137563535Y-101747000D01*
X137460889Y-101678414D01*
X137290729Y-101607932D01*
X137110089Y-101572000D01*
X136925911Y-101572000D01*
X136745271Y-101607932D01*
X136575111Y-101678414D01*
X136421972Y-101780738D01*
X136291738Y-101910972D01*
X136189414Y-102064111D01*
X136118932Y-102234271D01*
X136083000Y-102414911D01*
X136083000Y-102599089D01*
X136118932Y-102779729D01*
X136189414Y-102949889D01*
X136291738Y-103103028D01*
X136421972Y-103233262D01*
X136575111Y-103335586D01*
X136745271Y-103406068D01*
X136925911Y-103442000D01*
X137110089Y-103442000D01*
X137290729Y-103406068D01*
X137460889Y-103335586D01*
X137563535Y-103267000D01*
X139624199Y-103267000D01*
X140264200Y-103907002D01*
X140287999Y-103936001D01*
X140403724Y-104030974D01*
X140535753Y-104101546D01*
X140679014Y-104145003D01*
X140790667Y-104156000D01*
X140790677Y-104156000D01*
X140828000Y-104159676D01*
X140865323Y-104156000D01*
X145427268Y-104156000D01*
X145432885Y-104208037D01*
X145437872Y-104297004D01*
X145439000Y-104402852D01*
X145439000Y-104558260D01*
X145496068Y-104845158D01*
X145608010Y-105115411D01*
X145770525Y-105358632D01*
X145977368Y-105565475D01*
X146151760Y-105682000D01*
X145977368Y-105798525D01*
X145770525Y-106005368D01*
X145608010Y-106248589D01*
X145496068Y-106518842D01*
X145439000Y-106805740D01*
X145439000Y-106953333D01*
X145436388Y-107048177D01*
X145428330Y-107124385D01*
X145414821Y-107196084D01*
X145396010Y-107264256D01*
X145371760Y-107330016D01*
X145341669Y-107394394D01*
X145305102Y-107458276D01*
X145261263Y-107522331D01*
X145209310Y-107586940D01*
X145172892Y-107626000D01*
X139431535Y-107626000D01*
X139328889Y-107557414D01*
X139158729Y-107486932D01*
X138978089Y-107451000D01*
X138793911Y-107451000D01*
X138613271Y-107486932D01*
X138443111Y-107557414D01*
X138424187Y-107570058D01*
X138349889Y-107520414D01*
X138179729Y-107449932D01*
X137999089Y-107414000D01*
X137942792Y-107414000D01*
X138058649Y-107298143D01*
X138179729Y-107274058D01*
X138349889Y-107203576D01*
X138503028Y-107101252D01*
X138633262Y-106971018D01*
X138735586Y-106817879D01*
X138806068Y-106647719D01*
X138842000Y-106467079D01*
X138842000Y-106282901D01*
X138806068Y-106102261D01*
X138735586Y-105932101D01*
X138633262Y-105778962D01*
X138503028Y-105648728D01*
X138349889Y-105546404D01*
X138179729Y-105475922D01*
X137999089Y-105439990D01*
X137814911Y-105439990D01*
X137634271Y-105475922D01*
X137464111Y-105546404D01*
X137310972Y-105648728D01*
X137180738Y-105778962D01*
X137078414Y-105932101D01*
X137007932Y-106102261D01*
X136983847Y-106223341D01*
X136888188Y-106319000D01*
X133372527Y-106319000D01*
X133269881Y-106250414D01*
X133099721Y-106179932D01*
X132919081Y-106144000D01*
X132734903Y-106144000D01*
X132554263Y-106179932D01*
X132384103Y-106250414D01*
X132230964Y-106352738D01*
X132100730Y-106482972D01*
X131998406Y-106636111D01*
X131927924Y-106806271D01*
X131891992Y-106986911D01*
X131891992Y-107171089D01*
X131927924Y-107351729D01*
X131998406Y-107521889D01*
X132100730Y-107675028D01*
X132230964Y-107805262D01*
X132384103Y-107907586D01*
X132554263Y-107978068D01*
X132734903Y-108014000D01*
X132919081Y-108014000D01*
X133099721Y-107978068D01*
X133269881Y-107907586D01*
X133372527Y-107839000D01*
X137123256Y-107839000D01*
X137078414Y-107906111D01*
X137007932Y-108076271D01*
X136972000Y-108256911D01*
X136972000Y-108441089D01*
X137007932Y-108621729D01*
X137078414Y-108791889D01*
X137180738Y-108945028D01*
X137310972Y-109075262D01*
X137464111Y-109177586D01*
X137634271Y-109248068D01*
X137719393Y-109265000D01*
X127743441Y-109265000D01*
X127769233Y-109259376D01*
X127965545Y-109173809D01*
X128141391Y-109051587D01*
X128290014Y-108897408D01*
X128405702Y-108717197D01*
X128477408Y-108514001D01*
X128350502Y-108347000D01*
X127010000Y-108347000D01*
X127010000Y-108367000D01*
X126756000Y-108367000D01*
X126756000Y-108347000D01*
X125415498Y-108347000D01*
X125288592Y-108514001D01*
X125360298Y-108717197D01*
X125475986Y-108897408D01*
X125624609Y-109051587D01*
X125800455Y-109173809D01*
X125996767Y-109259376D01*
X126022559Y-109265000D01*
X123423441Y-109265000D01*
X123449233Y-109259376D01*
X123645545Y-109173809D01*
X123821391Y-109051587D01*
X123970014Y-108897408D01*
X124085702Y-108717197D01*
X124157408Y-108514001D01*
X124030502Y-108347000D01*
X122840000Y-108347000D01*
X122840000Y-108367000D01*
X122586000Y-108367000D01*
X122586000Y-108347000D01*
X121395498Y-108347000D01*
X121268592Y-108514001D01*
X121340298Y-108717197D01*
X121455986Y-108897408D01*
X121604609Y-109051587D01*
X121780455Y-109173809D01*
X121976238Y-109259145D01*
X121754979Y-109237451D01*
X121519288Y-109166291D01*
X121301912Y-109050711D01*
X121111121Y-108895104D01*
X120954189Y-108705408D01*
X120837094Y-108488843D01*
X120764291Y-108253656D01*
X120735000Y-107974972D01*
X120735000Y-107925999D01*
X121268592Y-107925999D01*
X121395498Y-108093000D01*
X122586000Y-108093000D01*
X122586000Y-107135000D01*
X122840000Y-107135000D01*
X122840000Y-108093000D01*
X124030502Y-108093000D01*
X124157408Y-107925999D01*
X125288592Y-107925999D01*
X125415498Y-108093000D01*
X126756000Y-108093000D01*
X126756000Y-108073000D01*
X127010000Y-108073000D01*
X127010000Y-108093000D01*
X128350502Y-108093000D01*
X128477408Y-107925999D01*
X128405702Y-107722803D01*
X128290014Y-107542592D01*
X128141391Y-107388413D01*
X127965545Y-107266191D01*
X127769233Y-107180624D01*
X127560000Y-107135000D01*
X127272133Y-107135000D01*
X127302068Y-107062729D01*
X127338000Y-106882089D01*
X127338000Y-106697911D01*
X127302068Y-106517271D01*
X127231586Y-106347111D01*
X127129262Y-106193972D01*
X126999028Y-106063738D01*
X126845889Y-105961414D01*
X126675729Y-105890932D01*
X126495089Y-105855000D01*
X126310911Y-105855000D01*
X126130271Y-105890932D01*
X125960111Y-105961414D01*
X125806972Y-106063738D01*
X125676738Y-106193972D01*
X125574414Y-106347111D01*
X125503932Y-106517271D01*
X125468000Y-106697911D01*
X125468000Y-106882089D01*
X125503932Y-107062729D01*
X125574414Y-107232889D01*
X125661294Y-107362915D01*
X125624609Y-107388413D01*
X125475986Y-107542592D01*
X125360298Y-107722803D01*
X125288592Y-107925999D01*
X124157408Y-107925999D01*
X124085702Y-107722803D01*
X123970014Y-107542592D01*
X123821391Y-107388413D01*
X123645545Y-107266191D01*
X123449233Y-107180624D01*
X123240000Y-107135000D01*
X122840000Y-107135000D01*
X122586000Y-107135000D01*
X122186000Y-107135000D01*
X121976767Y-107180624D01*
X121780455Y-107266191D01*
X121604609Y-107388413D01*
X121455986Y-107542592D01*
X121340298Y-107722803D01*
X121268592Y-107925999D01*
X120735000Y-107925999D01*
X120735000Y-103598412D01*
X128411922Y-103598412D01*
X128411922Y-103782590D01*
X128447854Y-103963230D01*
X128518336Y-104133390D01*
X128586922Y-104236037D01*
X128586923Y-105720590D01*
X128583246Y-105757922D01*
X128586923Y-105795255D01*
X128591147Y-105838144D01*
X128590000Y-105843911D01*
X128590000Y-106028089D01*
X128625932Y-106208729D01*
X128696414Y-106378889D01*
X128798738Y-106532028D01*
X128928972Y-106662262D01*
X129082111Y-106764586D01*
X129252271Y-106835068D01*
X129432911Y-106871000D01*
X129617089Y-106871000D01*
X129797729Y-106835068D01*
X129967889Y-106764586D01*
X130121028Y-106662262D01*
X130251262Y-106532028D01*
X130353586Y-106378889D01*
X130424068Y-106208729D01*
X130460000Y-106028089D01*
X130460000Y-105843911D01*
X130424068Y-105663271D01*
X130353586Y-105493111D01*
X130251262Y-105339972D01*
X130189296Y-105278006D01*
X130189214Y-105277910D01*
X130181681Y-105268292D01*
X130168672Y-105250566D01*
X130151434Y-105225817D01*
X130130673Y-105194699D01*
X130106922Y-105157788D01*
X130106922Y-104236036D01*
X130175508Y-104133390D01*
X130245990Y-103963230D01*
X130281922Y-103782590D01*
X130281922Y-103598412D01*
X130245990Y-103417772D01*
X130175508Y-103247612D01*
X130073184Y-103094473D01*
X129942950Y-102964239D01*
X129789811Y-102861915D01*
X129619651Y-102791433D01*
X129439011Y-102755501D01*
X129254833Y-102755501D01*
X129074193Y-102791433D01*
X128904033Y-102861915D01*
X128750894Y-102964239D01*
X128620660Y-103094473D01*
X128518336Y-103247612D01*
X128447854Y-103417772D01*
X128411922Y-103598412D01*
X120735000Y-103598412D01*
X120735000Y-99874001D01*
X121268592Y-99874001D01*
X121340298Y-100077197D01*
X121455986Y-100257408D01*
X121604609Y-100411587D01*
X121780455Y-100533809D01*
X121976767Y-100619376D01*
X122186000Y-100665000D01*
X122586000Y-100665000D01*
X122586000Y-99707000D01*
X122840000Y-99707000D01*
X122840000Y-100665000D01*
X123240000Y-100665000D01*
X123449233Y-100619376D01*
X123645545Y-100533809D01*
X123821391Y-100411587D01*
X123970014Y-100257408D01*
X124085702Y-100077197D01*
X124157408Y-99874001D01*
X125288592Y-99874001D01*
X125360298Y-100077197D01*
X125475986Y-100257408D01*
X125624609Y-100411587D01*
X125661294Y-100437085D01*
X125574414Y-100567111D01*
X125503932Y-100737271D01*
X125468000Y-100917911D01*
X125468000Y-101102089D01*
X125503932Y-101282729D01*
X125574414Y-101452889D01*
X125676738Y-101606028D01*
X125806972Y-101736262D01*
X125960111Y-101838586D01*
X126130271Y-101909068D01*
X126310911Y-101945000D01*
X126495089Y-101945000D01*
X126675729Y-101909068D01*
X126845889Y-101838586D01*
X126999028Y-101736262D01*
X127129262Y-101606028D01*
X127231586Y-101452889D01*
X127302068Y-101282729D01*
X127338000Y-101102089D01*
X127338000Y-100917911D01*
X127302068Y-100737271D01*
X127272133Y-100665000D01*
X127560000Y-100665000D01*
X127769233Y-100619376D01*
X127965545Y-100533809D01*
X128141391Y-100411587D01*
X128290014Y-100257408D01*
X128405702Y-100077197D01*
X128477408Y-99874001D01*
X128350502Y-99707000D01*
X127010000Y-99707000D01*
X127010000Y-99727000D01*
X126756000Y-99727000D01*
X126756000Y-99707000D01*
X125415498Y-99707000D01*
X125288592Y-99874001D01*
X124157408Y-99874001D01*
X124030502Y-99707000D01*
X122840000Y-99707000D01*
X122586000Y-99707000D01*
X121395498Y-99707000D01*
X121268592Y-99874001D01*
X120735000Y-99874001D01*
X120735000Y-99285999D01*
X121268592Y-99285999D01*
X121395498Y-99453000D01*
X122586000Y-99453000D01*
X122586000Y-98495000D01*
X122840000Y-98495000D01*
X122840000Y-99453000D01*
X124030502Y-99453000D01*
X124157408Y-99285999D01*
X125288592Y-99285999D01*
X125415498Y-99453000D01*
X126756000Y-99453000D01*
X126756000Y-99433000D01*
X127010000Y-99433000D01*
X127010000Y-99453000D01*
X128350502Y-99453000D01*
X128477408Y-99285999D01*
X128405702Y-99082803D01*
X128290014Y-98902592D01*
X128141391Y-98748413D01*
X127965545Y-98626191D01*
X127832040Y-98568000D01*
X133280710Y-98568000D01*
X133303972Y-98591262D01*
X133457111Y-98693586D01*
X133627271Y-98764068D01*
X133807911Y-98800000D01*
X133992089Y-98800000D01*
X134172729Y-98764068D01*
X134342889Y-98693586D01*
X134496028Y-98591262D01*
X134626262Y-98461028D01*
X134728586Y-98307889D01*
X134799068Y-98137729D01*
X134835000Y-97957089D01*
X134835000Y-97772911D01*
X134799068Y-97592271D01*
X134728586Y-97422111D01*
X134626262Y-97268972D01*
X134496028Y-97138738D01*
X134342889Y-97036414D01*
X134172729Y-96965932D01*
X133992089Y-96930000D01*
X133807911Y-96930000D01*
X133627271Y-96965932D01*
X133457111Y-97036414D01*
X133439771Y-97048000D01*
X127530535Y-97048000D01*
X127427889Y-96979414D01*
X127257729Y-96908932D01*
X127077089Y-96873000D01*
X126892911Y-96873000D01*
X126712271Y-96908932D01*
X126542111Y-96979414D01*
X126388972Y-97081738D01*
X126258738Y-97211972D01*
X126156414Y-97365111D01*
X126085932Y-97535271D01*
X126050000Y-97715911D01*
X126050000Y-97900089D01*
X126085932Y-98080729D01*
X126156414Y-98250889D01*
X126258738Y-98404028D01*
X126349710Y-98495000D01*
X126206000Y-98495000D01*
X125996767Y-98540624D01*
X125800455Y-98626191D01*
X125624609Y-98748413D01*
X125475986Y-98902592D01*
X125360298Y-99082803D01*
X125288592Y-99285999D01*
X124157408Y-99285999D01*
X124085702Y-99082803D01*
X123970014Y-98902592D01*
X123821391Y-98748413D01*
X123645545Y-98626191D01*
X123449233Y-98540624D01*
X123240000Y-98495000D01*
X122840000Y-98495000D01*
X122586000Y-98495000D01*
X122186000Y-98495000D01*
X121976767Y-98540624D01*
X121780455Y-98626191D01*
X121604609Y-98748413D01*
X121455986Y-98902592D01*
X121340298Y-99082803D01*
X121268592Y-99285999D01*
X120735000Y-99285999D01*
X120735000Y-97935973D01*
X120748962Y-97964214D01*
X121123745Y-98155020D01*
X121528551Y-98269044D01*
X121947824Y-98301902D01*
X122365451Y-98252334D01*
X122765383Y-98122243D01*
X123061038Y-97964214D01*
X123217048Y-97648653D01*
X121905000Y-96336605D01*
X121890858Y-96350748D01*
X121711253Y-96171143D01*
X121725395Y-96157000D01*
X121711253Y-96142858D01*
X121890858Y-95963253D01*
X121905000Y-95977395D01*
X121919143Y-95963253D01*
X122098748Y-96142858D01*
X122084605Y-96157000D01*
X123396653Y-97469048D01*
X123712214Y-97313038D01*
X123903020Y-96938255D01*
X124017044Y-96533449D01*
X124049902Y-96114176D01*
X124029467Y-95942000D01*
X145435928Y-95942000D01*
X145435928Y-97642000D01*
X145448188Y-97766482D01*
X145484498Y-97886180D01*
X145543463Y-97996494D01*
X145622815Y-98093185D01*
X145719506Y-98172537D01*
X145829820Y-98231502D01*
X145902380Y-98253513D01*
X145770525Y-98385368D01*
X145608010Y-98628589D01*
X145496068Y-98898842D01*
X145439000Y-99185740D01*
X145439000Y-99478260D01*
X145496068Y-99765158D01*
X145608010Y-100035411D01*
X145770525Y-100278632D01*
X145977368Y-100485475D01*
X146159534Y-100607195D01*
X146042645Y-100676822D01*
X145826412Y-100871731D01*
X145652359Y-101105080D01*
X145527175Y-101367901D01*
X145482524Y-101515110D01*
X145603845Y-101745000D01*
X146797000Y-101745000D01*
X146797000Y-101725000D01*
X147051000Y-101725000D01*
X147051000Y-101745000D01*
X148244155Y-101745000D01*
X148365476Y-101515110D01*
X148320825Y-101367901D01*
X148195641Y-101105080D01*
X148021588Y-100871731D01*
X147805355Y-100676822D01*
X147688466Y-100607195D01*
X147870632Y-100485475D01*
X148077475Y-100278632D01*
X148239990Y-100035411D01*
X148351932Y-99765158D01*
X148409000Y-99478260D01*
X148409000Y-99185740D01*
X148351932Y-98898842D01*
X148239990Y-98628589D01*
X148077475Y-98385368D01*
X147945620Y-98253513D01*
X148018180Y-98231502D01*
X148128494Y-98172537D01*
X148225185Y-98093185D01*
X148304537Y-97996494D01*
X148363502Y-97886180D01*
X148399812Y-97766482D01*
X148412072Y-97642000D01*
X148412072Y-95942000D01*
X148399812Y-95817518D01*
X148363502Y-95697820D01*
X148304537Y-95587506D01*
X148225185Y-95490815D01*
X148128494Y-95411463D01*
X148018180Y-95352498D01*
X147898482Y-95316188D01*
X147774000Y-95303928D01*
X146074000Y-95303928D01*
X145949518Y-95316188D01*
X145829820Y-95352498D01*
X145719506Y-95411463D01*
X145622815Y-95490815D01*
X145543463Y-95587506D01*
X145484498Y-95697820D01*
X145448188Y-95817518D01*
X145435928Y-95942000D01*
X124029467Y-95942000D01*
X124000334Y-95696549D01*
X123870243Y-95296617D01*
X123712214Y-95000962D01*
X123396655Y-94844953D01*
X123506608Y-94735000D01*
X148964053Y-94735000D01*
X149245021Y-94762549D01*
D19*
%TO.N,VBUS*%
G36*
X146905690Y-107789522D02*
G01*
X146785284Y-107792838D01*
X146784299Y-107792903D01*
X146657943Y-107806263D01*
X146656927Y-107806413D01*
X146534079Y-107829559D01*
X146533052Y-107829797D01*
X146413713Y-107862727D01*
X146412697Y-107863053D01*
X146296867Y-107905769D01*
X146295883Y-107906180D01*
X146183561Y-107958680D01*
X146182630Y-107959163D01*
X146073818Y-108021447D01*
X146072954Y-108021989D01*
X145967650Y-108094059D01*
X145966865Y-108094642D01*
X145865071Y-108176496D01*
X145864368Y-108177104D01*
X145775051Y-108260381D01*
X145615619Y-108100949D01*
X145698895Y-108011631D01*
X145699503Y-108010928D01*
X145781357Y-107909134D01*
X145781940Y-107908349D01*
X145854010Y-107803045D01*
X145854552Y-107802181D01*
X145916837Y-107693369D01*
X145917320Y-107692438D01*
X145969820Y-107580116D01*
X145970231Y-107579132D01*
X146012946Y-107463302D01*
X146013272Y-107462286D01*
X146046202Y-107342947D01*
X146046440Y-107341920D01*
X146069586Y-107219072D01*
X146069736Y-107218056D01*
X146083097Y-107091700D01*
X146083162Y-107090715D01*
X146086478Y-106970310D01*
X147206541Y-106669459D01*
X146905690Y-107789522D01*
G37*
X146905690Y-107789522D02*
X146785284Y-107792838D01*
X146784299Y-107792903D01*
X146657943Y-107806263D01*
X146656927Y-107806413D01*
X146534079Y-107829559D01*
X146533052Y-107829797D01*
X146413713Y-107862727D01*
X146412697Y-107863053D01*
X146296867Y-107905769D01*
X146295883Y-107906180D01*
X146183561Y-107958680D01*
X146182630Y-107959163D01*
X146073818Y-108021447D01*
X146072954Y-108021989D01*
X145967650Y-108094059D01*
X145966865Y-108094642D01*
X145865071Y-108176496D01*
X145864368Y-108177104D01*
X145775051Y-108260381D01*
X145615619Y-108100949D01*
X145698895Y-108011631D01*
X145699503Y-108010928D01*
X145781357Y-107909134D01*
X145781940Y-107908349D01*
X145854010Y-107803045D01*
X145854552Y-107802181D01*
X145916837Y-107693369D01*
X145917320Y-107692438D01*
X145969820Y-107580116D01*
X145970231Y-107579132D01*
X146012946Y-107463302D01*
X146013272Y-107462286D01*
X146046202Y-107342947D01*
X146046440Y-107341920D01*
X146069586Y-107219072D01*
X146069736Y-107218056D01*
X146083097Y-107091700D01*
X146083162Y-107090715D01*
X146086478Y-106970310D01*
X147206541Y-106669459D01*
X146905690Y-107789522D01*
G36*
X139108595Y-108201378D02*
G01*
X139109347Y-108202035D01*
X139127259Y-108216485D01*
X139128090Y-108217101D01*
X139146834Y-108229851D01*
X139147734Y-108230410D01*
X139167310Y-108241460D01*
X139168263Y-108241946D01*
X139188671Y-108251296D01*
X139189657Y-108251699D01*
X139210897Y-108259349D01*
X139211896Y-108259662D01*
X139233969Y-108265612D01*
X139234957Y-108265837D01*
X139257861Y-108270087D01*
X139258821Y-108270227D01*
X139282558Y-108272777D01*
X139283476Y-108272842D01*
X139295785Y-108273268D01*
X139295785Y-108498732D01*
X139283476Y-108499158D01*
X139282558Y-108499223D01*
X139258821Y-108501773D01*
X139257861Y-108501913D01*
X139234957Y-108506163D01*
X139233969Y-108506388D01*
X139211896Y-108512338D01*
X139210897Y-108512651D01*
X139189657Y-108520301D01*
X139188671Y-108520704D01*
X139168263Y-108530054D01*
X139167310Y-108530540D01*
X139147734Y-108541590D01*
X139146834Y-108542149D01*
X139128090Y-108554899D01*
X139127259Y-108555515D01*
X139109347Y-108569965D01*
X139108595Y-108570622D01*
X139098389Y-108580273D01*
X138761426Y-108386000D01*
X139098389Y-108191727D01*
X139108595Y-108201378D01*
G37*
X139108595Y-108201378D02*
X139109347Y-108202035D01*
X139127259Y-108216485D01*
X139128090Y-108217101D01*
X139146834Y-108229851D01*
X139147734Y-108230410D01*
X139167310Y-108241460D01*
X139168263Y-108241946D01*
X139188671Y-108251296D01*
X139189657Y-108251699D01*
X139210897Y-108259349D01*
X139211896Y-108259662D01*
X139233969Y-108265612D01*
X139234957Y-108265837D01*
X139257861Y-108270087D01*
X139258821Y-108270227D01*
X139282558Y-108272777D01*
X139283476Y-108272842D01*
X139295785Y-108273268D01*
X139295785Y-108498732D01*
X139283476Y-108499158D01*
X139282558Y-108499223D01*
X139258821Y-108501773D01*
X139257861Y-108501913D01*
X139234957Y-108506163D01*
X139233969Y-108506388D01*
X139211896Y-108512338D01*
X139210897Y-108512651D01*
X139189657Y-108520301D01*
X139188671Y-108520704D01*
X139168263Y-108530054D01*
X139167310Y-108530540D01*
X139147734Y-108541590D01*
X139146834Y-108542149D01*
X139128090Y-108554899D01*
X139127259Y-108555515D01*
X139109347Y-108569965D01*
X139108595Y-108570622D01*
X139098389Y-108580273D01*
X138761426Y-108386000D01*
X139098389Y-108191727D01*
X139108595Y-108201378D01*
%TO.N,+3V3*%
G36*
X127207595Y-97623378D02*
G01*
X127208347Y-97624035D01*
X127226259Y-97638485D01*
X127227090Y-97639101D01*
X127245834Y-97651851D01*
X127246734Y-97652410D01*
X127266310Y-97663460D01*
X127267263Y-97663946D01*
X127287671Y-97673296D01*
X127288657Y-97673699D01*
X127309897Y-97681349D01*
X127310896Y-97681662D01*
X127332969Y-97687612D01*
X127333957Y-97687837D01*
X127356861Y-97692087D01*
X127357821Y-97692227D01*
X127381558Y-97694777D01*
X127382476Y-97694842D01*
X127394785Y-97695268D01*
X127394785Y-97920732D01*
X127382476Y-97921158D01*
X127381558Y-97921223D01*
X127357821Y-97923773D01*
X127356861Y-97923913D01*
X127333957Y-97928163D01*
X127332969Y-97928388D01*
X127310896Y-97934338D01*
X127309897Y-97934651D01*
X127288657Y-97942301D01*
X127287671Y-97942704D01*
X127267263Y-97952054D01*
X127266310Y-97952540D01*
X127246734Y-97963590D01*
X127245834Y-97964149D01*
X127227090Y-97976899D01*
X127226259Y-97977515D01*
X127208347Y-97991965D01*
X127207595Y-97992622D01*
X127197389Y-98002273D01*
X126860426Y-97808000D01*
X127197389Y-97613727D01*
X127207595Y-97623378D01*
G37*
X127207595Y-97623378D02*
X127208347Y-97624035D01*
X127226259Y-97638485D01*
X127227090Y-97639101D01*
X127245834Y-97651851D01*
X127246734Y-97652410D01*
X127266310Y-97663460D01*
X127267263Y-97663946D01*
X127287671Y-97673296D01*
X127288657Y-97673699D01*
X127309897Y-97681349D01*
X127310896Y-97681662D01*
X127332969Y-97687612D01*
X127333957Y-97687837D01*
X127356861Y-97692087D01*
X127357821Y-97692227D01*
X127381558Y-97694777D01*
X127382476Y-97694842D01*
X127394785Y-97695268D01*
X127394785Y-97920732D01*
X127382476Y-97921158D01*
X127381558Y-97921223D01*
X127357821Y-97923773D01*
X127356861Y-97923913D01*
X127333957Y-97928163D01*
X127332969Y-97928388D01*
X127310896Y-97934338D01*
X127309897Y-97934651D01*
X127288657Y-97942301D01*
X127287671Y-97942704D01*
X127267263Y-97952054D01*
X127266310Y-97952540D01*
X127246734Y-97963590D01*
X127245834Y-97964149D01*
X127227090Y-97976899D01*
X127226259Y-97977515D01*
X127208347Y-97991965D01*
X127207595Y-97992622D01*
X127197389Y-98002273D01*
X126860426Y-97808000D01*
X127197389Y-97613727D01*
X127207595Y-97623378D01*
G36*
X134024574Y-97865000D02*
G01*
X133687618Y-98059268D01*
X133676842Y-98049060D01*
X133676182Y-98048477D01*
X133656560Y-98032317D01*
X133655923Y-98031825D01*
X133634329Y-98016225D01*
X133633724Y-98015814D01*
X133610158Y-98000774D01*
X133609590Y-98000432D01*
X133584052Y-97985952D01*
X133583522Y-97985668D01*
X133556012Y-97971748D01*
X133555520Y-97971512D01*
X133526037Y-97958152D01*
X133525582Y-97957957D01*
X133494128Y-97945157D01*
X133493708Y-97944994D01*
X133460281Y-97932754D01*
X133459893Y-97932620D01*
X133433215Y-97923818D01*
X133433215Y-97699776D01*
X133452468Y-97705204D01*
X133453261Y-97705400D01*
X133486688Y-97712540D01*
X133487621Y-97712703D01*
X133519075Y-97717003D01*
X133520167Y-97717104D01*
X133549650Y-97718564D01*
X133550914Y-97718564D01*
X133578424Y-97717184D01*
X133579859Y-97717030D01*
X133605397Y-97712810D01*
X133606971Y-97712446D01*
X133630537Y-97705386D01*
X133632185Y-97704765D01*
X133653779Y-97694865D01*
X133655402Y-97693972D01*
X133675024Y-97681232D01*
X133676513Y-97680101D01*
X133687321Y-97670560D01*
X134024574Y-97865000D01*
G37*
X134024574Y-97865000D02*
X133687618Y-98059268D01*
X133676842Y-98049060D01*
X133676182Y-98048477D01*
X133656560Y-98032317D01*
X133655923Y-98031825D01*
X133634329Y-98016225D01*
X133633724Y-98015814D01*
X133610158Y-98000774D01*
X133609590Y-98000432D01*
X133584052Y-97985952D01*
X133583522Y-97985668D01*
X133556012Y-97971748D01*
X133555520Y-97971512D01*
X133526037Y-97958152D01*
X133525582Y-97957957D01*
X133494128Y-97945157D01*
X133493708Y-97944994D01*
X133460281Y-97932754D01*
X133459893Y-97932620D01*
X133433215Y-97923818D01*
X133433215Y-97699776D01*
X133452468Y-97705204D01*
X133453261Y-97705400D01*
X133486688Y-97712540D01*
X133487621Y-97712703D01*
X133519075Y-97717003D01*
X133520167Y-97717104D01*
X133549650Y-97718564D01*
X133550914Y-97718564D01*
X133578424Y-97717184D01*
X133579859Y-97717030D01*
X133605397Y-97712810D01*
X133606971Y-97712446D01*
X133630537Y-97705386D01*
X133632185Y-97704765D01*
X133653779Y-97694865D01*
X133655402Y-97693972D01*
X133675024Y-97681232D01*
X133676513Y-97680101D01*
X133687321Y-97670560D01*
X134024574Y-97865000D01*
G36*
X137240595Y-102322378D02*
G01*
X137241347Y-102323035D01*
X137259259Y-102337485D01*
X137260090Y-102338101D01*
X137278834Y-102350851D01*
X137279734Y-102351410D01*
X137299310Y-102362460D01*
X137300263Y-102362946D01*
X137320671Y-102372296D01*
X137321657Y-102372699D01*
X137342897Y-102380349D01*
X137343896Y-102380662D01*
X137365969Y-102386612D01*
X137366957Y-102386837D01*
X137389861Y-102391087D01*
X137390821Y-102391227D01*
X137414558Y-102393777D01*
X137415476Y-102393842D01*
X137427785Y-102394268D01*
X137427785Y-102619732D01*
X137415476Y-102620158D01*
X137414558Y-102620223D01*
X137390821Y-102622773D01*
X137389861Y-102622913D01*
X137366957Y-102627163D01*
X137365969Y-102627388D01*
X137343896Y-102633338D01*
X137342897Y-102633651D01*
X137321657Y-102641301D01*
X137320671Y-102641704D01*
X137300263Y-102651054D01*
X137299310Y-102651540D01*
X137279734Y-102662590D01*
X137278834Y-102663149D01*
X137260090Y-102675899D01*
X137259259Y-102676515D01*
X137241347Y-102690965D01*
X137240595Y-102691622D01*
X137230389Y-102701273D01*
X136893426Y-102507000D01*
X137230389Y-102312727D01*
X137240595Y-102322378D01*
G37*
X137240595Y-102322378D02*
X137241347Y-102323035D01*
X137259259Y-102337485D01*
X137260090Y-102338101D01*
X137278834Y-102350851D01*
X137279734Y-102351410D01*
X137299310Y-102362460D01*
X137300263Y-102362946D01*
X137320671Y-102372296D01*
X137321657Y-102372699D01*
X137342897Y-102380349D01*
X137343896Y-102380662D01*
X137365969Y-102386612D01*
X137366957Y-102386837D01*
X137389861Y-102391087D01*
X137390821Y-102391227D01*
X137414558Y-102393777D01*
X137415476Y-102393842D01*
X137427785Y-102394268D01*
X137427785Y-102619732D01*
X137415476Y-102620158D01*
X137414558Y-102620223D01*
X137390821Y-102622773D01*
X137389861Y-102622913D01*
X137366957Y-102627163D01*
X137365969Y-102627388D01*
X137343896Y-102633338D01*
X137342897Y-102633651D01*
X137321657Y-102641301D01*
X137320671Y-102641704D01*
X137300263Y-102651054D01*
X137299310Y-102651540D01*
X137279734Y-102662590D01*
X137278834Y-102663149D01*
X137260090Y-102675899D01*
X137259259Y-102676515D01*
X137241347Y-102690965D01*
X137240595Y-102691622D01*
X137230389Y-102701273D01*
X136893426Y-102507000D01*
X137230389Y-102312727D01*
X137240595Y-102322378D01*
G36*
X146044163Y-103366664D02*
G01*
X146045356Y-103367596D01*
X146109471Y-103411771D01*
X146110653Y-103412493D01*
X146182710Y-103451316D01*
X146183832Y-103451852D01*
X146263830Y-103485323D01*
X146264864Y-103485704D01*
X146352804Y-103513823D01*
X146353738Y-103514082D01*
X146449620Y-103536849D01*
X146450453Y-103537018D01*
X146554277Y-103554433D01*
X146555015Y-103554535D01*
X146666780Y-103566599D01*
X146667432Y-103566652D01*
X146787140Y-103573363D01*
X146787716Y-103573382D01*
X146905734Y-103574639D01*
X147206541Y-104694541D01*
X146086639Y-104393734D01*
X146085382Y-104275716D01*
X146085363Y-104275140D01*
X146078652Y-104155432D01*
X146078599Y-104154780D01*
X146066535Y-104043015D01*
X146066433Y-104042277D01*
X146049018Y-103938453D01*
X146048849Y-103937620D01*
X146026082Y-103841738D01*
X146025823Y-103840804D01*
X145997704Y-103752864D01*
X145997323Y-103751830D01*
X145963852Y-103671832D01*
X145963316Y-103670710D01*
X145924493Y-103598653D01*
X145923771Y-103597471D01*
X145879596Y-103533356D01*
X145878664Y-103532163D01*
X145837025Y-103484936D01*
X145996936Y-103325025D01*
X146044163Y-103366664D01*
G37*
X146044163Y-103366664D02*
X146045356Y-103367596D01*
X146109471Y-103411771D01*
X146110653Y-103412493D01*
X146182710Y-103451316D01*
X146183832Y-103451852D01*
X146263830Y-103485323D01*
X146264864Y-103485704D01*
X146352804Y-103513823D01*
X146353738Y-103514082D01*
X146449620Y-103536849D01*
X146450453Y-103537018D01*
X146554277Y-103554433D01*
X146555015Y-103554535D01*
X146666780Y-103566599D01*
X146667432Y-103566652D01*
X146787140Y-103573363D01*
X146787716Y-103573382D01*
X146905734Y-103574639D01*
X147206541Y-104694541D01*
X146086639Y-104393734D01*
X146085382Y-104275716D01*
X146085363Y-104275140D01*
X146078652Y-104155432D01*
X146078599Y-104154780D01*
X146066535Y-104043015D01*
X146066433Y-104042277D01*
X146049018Y-103938453D01*
X146048849Y-103937620D01*
X146026082Y-103841738D01*
X146025823Y-103840804D01*
X145997704Y-103752864D01*
X145997323Y-103751830D01*
X145963852Y-103671832D01*
X145963316Y-103670710D01*
X145924493Y-103598653D01*
X145923771Y-103597471D01*
X145879596Y-103533356D01*
X145878664Y-103532163D01*
X145837025Y-103484936D01*
X145996936Y-103325025D01*
X146044163Y-103366664D01*
%TO.N,Net-(J1-PadA7)*%
G36*
X129541195Y-103902890D02*
G01*
X129531544Y-103913096D01*
X129530887Y-103913848D01*
X129516437Y-103931760D01*
X129515821Y-103932591D01*
X129503071Y-103951335D01*
X129502512Y-103952235D01*
X129491462Y-103971811D01*
X129490976Y-103972764D01*
X129481626Y-103993172D01*
X129481223Y-103994158D01*
X129473573Y-104015398D01*
X129473260Y-104016396D01*
X129467309Y-104038469D01*
X129467084Y-104039459D01*
X129462835Y-104062363D01*
X129462695Y-104063322D01*
X129460145Y-104087059D01*
X129460080Y-104087977D01*
X129459654Y-104100286D01*
X129234190Y-104100286D01*
X129233764Y-104087977D01*
X129233699Y-104087059D01*
X129231149Y-104063322D01*
X129231009Y-104062362D01*
X129226759Y-104039458D01*
X129226534Y-104038470D01*
X129220584Y-104016397D01*
X129220271Y-104015398D01*
X129212621Y-103994158D01*
X129212218Y-103993172D01*
X129202868Y-103972764D01*
X129202381Y-103971811D01*
X129191330Y-103952235D01*
X129190772Y-103951335D01*
X129178023Y-103932591D01*
X129177407Y-103931760D01*
X129162957Y-103913848D01*
X129162300Y-103913096D01*
X129152649Y-103902890D01*
X129346922Y-103565927D01*
X129541195Y-103902890D01*
G37*
X129541195Y-103902890D02*
X129531544Y-103913096D01*
X129530887Y-103913848D01*
X129516437Y-103931760D01*
X129515821Y-103932591D01*
X129503071Y-103951335D01*
X129502512Y-103952235D01*
X129491462Y-103971811D01*
X129490976Y-103972764D01*
X129481626Y-103993172D01*
X129481223Y-103994158D01*
X129473573Y-104015398D01*
X129473260Y-104016396D01*
X129467309Y-104038469D01*
X129467084Y-104039459D01*
X129462835Y-104062363D01*
X129462695Y-104063322D01*
X129460145Y-104087059D01*
X129460080Y-104087977D01*
X129459654Y-104100286D01*
X129234190Y-104100286D01*
X129233764Y-104087977D01*
X129233699Y-104087059D01*
X129231149Y-104063322D01*
X129231009Y-104062362D01*
X129226759Y-104039458D01*
X129226534Y-104038470D01*
X129220584Y-104016397D01*
X129220271Y-104015398D01*
X129212621Y-103994158D01*
X129212218Y-103993172D01*
X129202868Y-103972764D01*
X129202381Y-103971811D01*
X129191330Y-103952235D01*
X129190772Y-103951335D01*
X129178023Y-103932591D01*
X129177407Y-103931760D01*
X129162957Y-103913848D01*
X129162300Y-103913096D01*
X129152649Y-103902890D01*
X129346922Y-103565927D01*
X129541195Y-103902890D01*
G36*
X129495686Y-105400325D02*
G01*
X129495753Y-105400436D01*
X129528577Y-105454447D01*
X129528656Y-105454574D01*
X129559617Y-105504190D01*
X129559711Y-105504339D01*
X129588811Y-105549562D01*
X129588926Y-105549738D01*
X129616165Y-105590567D01*
X129616309Y-105590777D01*
X129641686Y-105627212D01*
X129641868Y-105627468D01*
X129665383Y-105659509D01*
X129665624Y-105659826D01*
X129687278Y-105687474D01*
X129687605Y-105687875D01*
X129707398Y-105711129D01*
X129707865Y-105711647D01*
X129719260Y-105723633D01*
X129525000Y-106060574D01*
X129330222Y-105722734D01*
X129339471Y-105710593D01*
X129341194Y-105707528D01*
X129350301Y-105684274D01*
X129351055Y-105681393D01*
X129354901Y-105653745D01*
X129355010Y-105651435D01*
X129353595Y-105619394D01*
X129353399Y-105617665D01*
X129346722Y-105581230D01*
X129346420Y-105579955D01*
X129334481Y-105539126D01*
X129334161Y-105538175D01*
X129316961Y-105492952D01*
X129316661Y-105492229D01*
X129294200Y-105442613D01*
X129293928Y-105442051D01*
X129266204Y-105388040D01*
X129265964Y-105387595D01*
X129243679Y-105348137D01*
X129464693Y-105348137D01*
X129495686Y-105400325D01*
G37*
X129495686Y-105400325D02*
X129495753Y-105400436D01*
X129528577Y-105454447D01*
X129528656Y-105454574D01*
X129559617Y-105504190D01*
X129559711Y-105504339D01*
X129588811Y-105549562D01*
X129588926Y-105549738D01*
X129616165Y-105590567D01*
X129616309Y-105590777D01*
X129641686Y-105627212D01*
X129641868Y-105627468D01*
X129665383Y-105659509D01*
X129665624Y-105659826D01*
X129687278Y-105687474D01*
X129687605Y-105687875D01*
X129707398Y-105711129D01*
X129707865Y-105711647D01*
X129719260Y-105723633D01*
X129525000Y-106060574D01*
X129330222Y-105722734D01*
X129339471Y-105710593D01*
X129341194Y-105707528D01*
X129350301Y-105684274D01*
X129351055Y-105681393D01*
X129354901Y-105653745D01*
X129355010Y-105651435D01*
X129353595Y-105619394D01*
X129353399Y-105617665D01*
X129346722Y-105581230D01*
X129346420Y-105579955D01*
X129334481Y-105539126D01*
X129334161Y-105538175D01*
X129316961Y-105492952D01*
X129316661Y-105492229D01*
X129294200Y-105442613D01*
X129293928Y-105442051D01*
X129266204Y-105388040D01*
X129265964Y-105387595D01*
X129243679Y-105348137D01*
X129464693Y-105348137D01*
X129495686Y-105400325D01*
%TO.N,/D-*%
G36*
X133049587Y-106894378D02*
G01*
X133050339Y-106895035D01*
X133068251Y-106909485D01*
X133069082Y-106910101D01*
X133087826Y-106922851D01*
X133088726Y-106923410D01*
X133108302Y-106934460D01*
X133109255Y-106934946D01*
X133129663Y-106944296D01*
X133130649Y-106944699D01*
X133151889Y-106952349D01*
X133152888Y-106952662D01*
X133174961Y-106958612D01*
X133175949Y-106958837D01*
X133198853Y-106963087D01*
X133199813Y-106963227D01*
X133223550Y-106965777D01*
X133224468Y-106965842D01*
X133236777Y-106966268D01*
X133236777Y-107191732D01*
X133224468Y-107192158D01*
X133223550Y-107192223D01*
X133199813Y-107194773D01*
X133198853Y-107194913D01*
X133175949Y-107199163D01*
X133174961Y-107199388D01*
X133152888Y-107205338D01*
X133151889Y-107205651D01*
X133130649Y-107213301D01*
X133129663Y-107213704D01*
X133109255Y-107223054D01*
X133108302Y-107223540D01*
X133088726Y-107234590D01*
X133087826Y-107235149D01*
X133069082Y-107247899D01*
X133068251Y-107248515D01*
X133050339Y-107262965D01*
X133049587Y-107263622D01*
X133039381Y-107273273D01*
X132702418Y-107079000D01*
X133039381Y-106884727D01*
X133049587Y-106894378D01*
G37*
X133049587Y-106894378D02*
X133050339Y-106895035D01*
X133068251Y-106909485D01*
X133069082Y-106910101D01*
X133087826Y-106922851D01*
X133088726Y-106923410D01*
X133108302Y-106934460D01*
X133109255Y-106934946D01*
X133129663Y-106944296D01*
X133130649Y-106944699D01*
X133151889Y-106952349D01*
X133152888Y-106952662D01*
X133174961Y-106958612D01*
X133175949Y-106958837D01*
X133198853Y-106963087D01*
X133199813Y-106963227D01*
X133223550Y-106965777D01*
X133224468Y-106965842D01*
X133236777Y-106966268D01*
X133236777Y-107191732D01*
X133224468Y-107192158D01*
X133223550Y-107192223D01*
X133199813Y-107194773D01*
X133198853Y-107194913D01*
X133175949Y-107199163D01*
X133174961Y-107199388D01*
X133152888Y-107205338D01*
X133151889Y-107205651D01*
X133130649Y-107213301D01*
X133129663Y-107213704D01*
X133109255Y-107223054D01*
X133108302Y-107223540D01*
X133088726Y-107234590D01*
X133087826Y-107235149D01*
X133069082Y-107247899D01*
X133068251Y-107248515D01*
X133050339Y-107262965D01*
X133049587Y-107263622D01*
X133039381Y-107273273D01*
X132702418Y-107079000D01*
X133039381Y-106884727D01*
X133049587Y-106894378D01*
G36*
X137894189Y-106662543D02*
G01*
X137880148Y-106662936D01*
X137879152Y-106663003D01*
X137856269Y-106665451D01*
X137855246Y-106665603D01*
X137832976Y-106669841D01*
X137831944Y-106670082D01*
X137810288Y-106676111D01*
X137809270Y-106676441D01*
X137788228Y-106684260D01*
X137787246Y-106684673D01*
X137766818Y-106694283D01*
X137765891Y-106694767D01*
X137746076Y-106706167D01*
X137745218Y-106706707D01*
X137726017Y-106719898D01*
X137725238Y-106720478D01*
X137706650Y-106735460D01*
X137705955Y-106736063D01*
X137696952Y-106744465D01*
X137537525Y-106585038D01*
X137545927Y-106576033D01*
X137546529Y-106575339D01*
X137561511Y-106556751D01*
X137562091Y-106555972D01*
X137575282Y-106536771D01*
X137575822Y-106535913D01*
X137587222Y-106516098D01*
X137587706Y-106515171D01*
X137597316Y-106494743D01*
X137597729Y-106493761D01*
X137605548Y-106472719D01*
X137605878Y-106471701D01*
X137611907Y-106450045D01*
X137612148Y-106449013D01*
X137616386Y-106426743D01*
X137616538Y-106425720D01*
X137618986Y-106402837D01*
X137619053Y-106401842D01*
X137619446Y-106387801D01*
X137995087Y-106286903D01*
X137894189Y-106662543D01*
G37*
X137894189Y-106662543D02*
X137880148Y-106662936D01*
X137879152Y-106663003D01*
X137856269Y-106665451D01*
X137855246Y-106665603D01*
X137832976Y-106669841D01*
X137831944Y-106670082D01*
X137810288Y-106676111D01*
X137809270Y-106676441D01*
X137788228Y-106684260D01*
X137787246Y-106684673D01*
X137766818Y-106694283D01*
X137765891Y-106694767D01*
X137746076Y-106706167D01*
X137745218Y-106706707D01*
X137726017Y-106719898D01*
X137725238Y-106720478D01*
X137706650Y-106735460D01*
X137705955Y-106736063D01*
X137696952Y-106744465D01*
X137537525Y-106585038D01*
X137545927Y-106576033D01*
X137546529Y-106575339D01*
X137561511Y-106556751D01*
X137562091Y-106555972D01*
X137575282Y-106536771D01*
X137575822Y-106535913D01*
X137587222Y-106516098D01*
X137587706Y-106515171D01*
X137597316Y-106494743D01*
X137597729Y-106493761D01*
X137605548Y-106472719D01*
X137605878Y-106471701D01*
X137611907Y-106450045D01*
X137612148Y-106449013D01*
X137616386Y-106426743D01*
X137616538Y-106425720D01*
X137618986Y-106402837D01*
X137619053Y-106401842D01*
X137619446Y-106387801D01*
X137995087Y-106286903D01*
X137894189Y-106662543D01*
%TO.N,Net-(R3-Pad2)*%
G36*
X138194553Y-108361811D02*
G01*
X138194946Y-108375851D01*
X138195013Y-108376847D01*
X138197461Y-108399730D01*
X138197613Y-108400753D01*
X138201851Y-108423023D01*
X138202092Y-108424055D01*
X138208121Y-108445711D01*
X138208451Y-108446729D01*
X138216270Y-108467771D01*
X138216683Y-108468753D01*
X138226293Y-108489181D01*
X138226777Y-108490108D01*
X138238177Y-108509923D01*
X138238717Y-108510781D01*
X138251908Y-108529982D01*
X138252488Y-108530761D01*
X138267470Y-108549349D01*
X138268073Y-108550043D01*
X138276475Y-108559048D01*
X138117048Y-108718475D01*
X138108043Y-108710073D01*
X138107349Y-108709470D01*
X138088761Y-108694488D01*
X138087982Y-108693908D01*
X138068781Y-108680717D01*
X138067923Y-108680177D01*
X138048108Y-108668777D01*
X138047181Y-108668293D01*
X138026753Y-108658683D01*
X138025771Y-108658270D01*
X138004729Y-108650451D01*
X138003711Y-108650121D01*
X137982055Y-108644092D01*
X137981023Y-108643851D01*
X137958753Y-108639613D01*
X137957730Y-108639461D01*
X137934847Y-108637013D01*
X137933851Y-108636946D01*
X137919811Y-108636553D01*
X137818913Y-108260913D01*
X138194553Y-108361811D01*
G37*
X138194553Y-108361811D02*
X138194946Y-108375851D01*
X138195013Y-108376847D01*
X138197461Y-108399730D01*
X138197613Y-108400753D01*
X138201851Y-108423023D01*
X138202092Y-108424055D01*
X138208121Y-108445711D01*
X138208451Y-108446729D01*
X138216270Y-108467771D01*
X138216683Y-108468753D01*
X138226293Y-108489181D01*
X138226777Y-108490108D01*
X138238177Y-108509923D01*
X138238717Y-108510781D01*
X138251908Y-108529982D01*
X138252488Y-108530761D01*
X138267470Y-108549349D01*
X138268073Y-108550043D01*
X138276475Y-108559048D01*
X138117048Y-108718475D01*
X138108043Y-108710073D01*
X138107349Y-108709470D01*
X138088761Y-108694488D01*
X138087982Y-108693908D01*
X138068781Y-108680717D01*
X138067923Y-108680177D01*
X138048108Y-108668777D01*
X138047181Y-108668293D01*
X138026753Y-108658683D01*
X138025771Y-108658270D01*
X138004729Y-108650451D01*
X138003711Y-108650121D01*
X137982055Y-108644092D01*
X137981023Y-108643851D01*
X137958753Y-108639613D01*
X137957730Y-108639461D01*
X137934847Y-108637013D01*
X137933851Y-108636946D01*
X137919811Y-108636553D01*
X137818913Y-108260913D01*
X138194553Y-108361811D01*
G36*
X140444574Y-109238000D02*
G01*
X140107611Y-109432273D01*
X140097404Y-109422622D01*
X140096652Y-109421965D01*
X140078740Y-109407515D01*
X140077909Y-109406899D01*
X140059165Y-109394149D01*
X140058265Y-109393590D01*
X140038689Y-109382540D01*
X140037736Y-109382054D01*
X140017328Y-109372704D01*
X140016342Y-109372301D01*
X139995102Y-109364651D01*
X139994103Y-109364338D01*
X139972030Y-109358388D01*
X139971042Y-109358163D01*
X139948138Y-109353913D01*
X139947178Y-109353773D01*
X139923441Y-109351223D01*
X139922523Y-109351158D01*
X139910215Y-109350732D01*
X139910215Y-109125268D01*
X139922523Y-109124842D01*
X139923441Y-109124777D01*
X139947178Y-109122227D01*
X139948138Y-109122087D01*
X139971042Y-109117837D01*
X139972030Y-109117612D01*
X139994103Y-109111662D01*
X139995102Y-109111349D01*
X140016342Y-109103699D01*
X140017328Y-109103296D01*
X140037736Y-109093946D01*
X140038689Y-109093460D01*
X140058265Y-109082410D01*
X140059165Y-109081851D01*
X140077909Y-109069101D01*
X140078740Y-109068485D01*
X140096652Y-109054035D01*
X140097404Y-109053378D01*
X140107611Y-109043727D01*
X140444574Y-109238000D01*
G37*
X140444574Y-109238000D02*
X140107611Y-109432273D01*
X140097404Y-109422622D01*
X140096652Y-109421965D01*
X140078740Y-109407515D01*
X140077909Y-109406899D01*
X140059165Y-109394149D01*
X140058265Y-109393590D01*
X140038689Y-109382540D01*
X140037736Y-109382054D01*
X140017328Y-109372704D01*
X140016342Y-109372301D01*
X139995102Y-109364651D01*
X139994103Y-109364338D01*
X139972030Y-109358388D01*
X139971042Y-109358163D01*
X139948138Y-109353913D01*
X139947178Y-109353773D01*
X139923441Y-109351223D01*
X139922523Y-109351158D01*
X139910215Y-109350732D01*
X139910215Y-109125268D01*
X139922523Y-109124842D01*
X139923441Y-109124777D01*
X139947178Y-109122227D01*
X139948138Y-109122087D01*
X139971042Y-109117837D01*
X139972030Y-109117612D01*
X139994103Y-109111662D01*
X139995102Y-109111349D01*
X140016342Y-109103699D01*
X140017328Y-109103296D01*
X140037736Y-109093946D01*
X140038689Y-109093460D01*
X140058265Y-109082410D01*
X140059165Y-109081851D01*
X140077909Y-109069101D01*
X140078740Y-109068485D01*
X140096652Y-109054035D01*
X140097404Y-109053378D01*
X140107611Y-109043727D01*
X140444574Y-109238000D01*
%TO.N,Net-(R5-Pad2)*%
G36*
X142165273Y-99036389D02*
G01*
X142155622Y-99046595D01*
X142154965Y-99047347D01*
X142140515Y-99065259D01*
X142139899Y-99066090D01*
X142127149Y-99084834D01*
X142126590Y-99085734D01*
X142115540Y-99105310D01*
X142115054Y-99106263D01*
X142105704Y-99126671D01*
X142105301Y-99127657D01*
X142097651Y-99148897D01*
X142097338Y-99149896D01*
X142091388Y-99171969D01*
X142091163Y-99172957D01*
X142086913Y-99195861D01*
X142086773Y-99196821D01*
X142084223Y-99220558D01*
X142084158Y-99221476D01*
X142083732Y-99233785D01*
X141858268Y-99233785D01*
X141857842Y-99221476D01*
X141857777Y-99220558D01*
X141855227Y-99196821D01*
X141855087Y-99195861D01*
X141850837Y-99172957D01*
X141850612Y-99171969D01*
X141844662Y-99149896D01*
X141844349Y-99148897D01*
X141836699Y-99127657D01*
X141836296Y-99126671D01*
X141826946Y-99106263D01*
X141826460Y-99105310D01*
X141815410Y-99085734D01*
X141814851Y-99084834D01*
X141802101Y-99066090D01*
X141801485Y-99065259D01*
X141787035Y-99047347D01*
X141786378Y-99046595D01*
X141776727Y-99036389D01*
X141971000Y-98699426D01*
X142165273Y-99036389D01*
G37*
X142165273Y-99036389D02*
X142155622Y-99046595D01*
X142154965Y-99047347D01*
X142140515Y-99065259D01*
X142139899Y-99066090D01*
X142127149Y-99084834D01*
X142126590Y-99085734D01*
X142115540Y-99105310D01*
X142115054Y-99106263D01*
X142105704Y-99126671D01*
X142105301Y-99127657D01*
X142097651Y-99148897D01*
X142097338Y-99149896D01*
X142091388Y-99171969D01*
X142091163Y-99172957D01*
X142086913Y-99195861D01*
X142086773Y-99196821D01*
X142084223Y-99220558D01*
X142084158Y-99221476D01*
X142083732Y-99233785D01*
X141858268Y-99233785D01*
X141857842Y-99221476D01*
X141857777Y-99220558D01*
X141855227Y-99196821D01*
X141855087Y-99195861D01*
X141850837Y-99172957D01*
X141850612Y-99171969D01*
X141844662Y-99149896D01*
X141844349Y-99148897D01*
X141836699Y-99127657D01*
X141836296Y-99126671D01*
X141826946Y-99106263D01*
X141826460Y-99105310D01*
X141815410Y-99085734D01*
X141814851Y-99084834D01*
X141802101Y-99066090D01*
X141801485Y-99065259D01*
X141787035Y-99047347D01*
X141786378Y-99046595D01*
X141776727Y-99036389D01*
X141971000Y-98699426D01*
X142165273Y-99036389D01*
G36*
X142084158Y-101855523D02*
G01*
X142084223Y-101856441D01*
X142086773Y-101880178D01*
X142086913Y-101881138D01*
X142091163Y-101904042D01*
X142091388Y-101905030D01*
X142097338Y-101927103D01*
X142097651Y-101928102D01*
X142105301Y-101949342D01*
X142105704Y-101950328D01*
X142115054Y-101970736D01*
X142115540Y-101971689D01*
X142126590Y-101991265D01*
X142127149Y-101992165D01*
X142139899Y-102010909D01*
X142140515Y-102011740D01*
X142154965Y-102029652D01*
X142155622Y-102030404D01*
X142165273Y-102040611D01*
X141971000Y-102377574D01*
X141776727Y-102040611D01*
X141786378Y-102030404D01*
X141787035Y-102029652D01*
X141801485Y-102011740D01*
X141802101Y-102010909D01*
X141814851Y-101992165D01*
X141815410Y-101991265D01*
X141826460Y-101971689D01*
X141826946Y-101970736D01*
X141836296Y-101950328D01*
X141836699Y-101949342D01*
X141844349Y-101928102D01*
X141844662Y-101927103D01*
X141850612Y-101905030D01*
X141850837Y-101904042D01*
X141855087Y-101881138D01*
X141855227Y-101880178D01*
X141857777Y-101856441D01*
X141857842Y-101855523D01*
X141858268Y-101843215D01*
X142083732Y-101843215D01*
X142084158Y-101855523D01*
G37*
X142084158Y-101855523D02*
X142084223Y-101856441D01*
X142086773Y-101880178D01*
X142086913Y-101881138D01*
X142091163Y-101904042D01*
X142091388Y-101905030D01*
X142097338Y-101927103D01*
X142097651Y-101928102D01*
X142105301Y-101949342D01*
X142105704Y-101950328D01*
X142115054Y-101970736D01*
X142115540Y-101971689D01*
X142126590Y-101991265D01*
X142127149Y-101992165D01*
X142139899Y-102010909D01*
X142140515Y-102011740D01*
X142154965Y-102029652D01*
X142155622Y-102030404D01*
X142165273Y-102040611D01*
X141971000Y-102377574D01*
X141776727Y-102040611D01*
X141786378Y-102030404D01*
X141787035Y-102029652D01*
X141801485Y-102011740D01*
X141802101Y-102010909D01*
X141814851Y-101992165D01*
X141815410Y-101991265D01*
X141826460Y-101971689D01*
X141826946Y-101970736D01*
X141836296Y-101950328D01*
X141836699Y-101949342D01*
X141844349Y-101928102D01*
X141844662Y-101927103D01*
X141850612Y-101905030D01*
X141850837Y-101904042D01*
X141855087Y-101881138D01*
X141855227Y-101880178D01*
X141857777Y-101856441D01*
X141857842Y-101855523D01*
X141858268Y-101843215D01*
X142083732Y-101843215D01*
X142084158Y-101855523D01*
%TD*%
M02*
