M48
; DRILL file {KiCad (5.1.6)-1} date 07/24/20 23:52:23
; FORMAT={-:-/ absolute / inch / decimal}
; #@! TF.CreationDate,2020-07-24T23:52:23+08:00
; #@! TF.GenerationSoftware,Kicad,Pcbnew,(5.1.6)-1
; #@! TF.FileFunction,Plated,1,2,PTH
FMAT,2
INCH
T1C0.0118
T2C0.0236
T3C0.0394
T4C0.0787
%
G90
G05
T1
X4.8819Y-4.0157
X4.8819Y-4.1339
X4.8994Y-3.8457
X4.9994Y-3.8507
X5.0594Y-3.7657
X5.0924Y-4.0823
X5.0944Y-4.2707
X5.0994Y-4.1707
X5.1575Y-3.937
X5.1744Y-4.2607
X5.2294Y-4.2157
X5.2644Y-4.2507
X5.2717Y-3.853
X5.3543Y-3.8976
X5.3644Y-3.8257
X5.3944Y-4.0357
X5.4294Y-4.188
X5.4294Y-4.2657
X5.4344Y-4.0757
X5.468Y-4.2672
X5.5044Y-3.7507
X5.5244Y-4.3007
X5.5894Y-3.8907
X5.5894Y-4.0257
X5.6844Y-3.9507
X5.6844Y-4.0207
X5.6944Y-3.7507
X5.6944Y-3.8607
X5.7144Y-4.1607
X5.8844Y-3.8107
X5.8844Y-3.9107
X5.8844Y-4.0107
X5.8844Y-4.1107
X5.8844Y-4.2107
T3
X5.5294Y-4.1407
X5.5294Y-4.2107
X5.5994Y-4.1407
X5.5994Y-4.2107
X5.7844Y-3.8107
X5.7844Y-3.9107
X5.7844Y-4.0107
X5.7844Y-4.1107
X5.7844Y-4.2107
T4
X4.7994Y-3.7857
T2
G00X4.8155Y-3.9205
M15
G01X4.847Y-3.9205
M16
G05
G00X4.8155Y-4.2606
M15
G01X4.847Y-4.2606
M16
G05
G00X4.9737Y-3.9205
M15
G01X5.017Y-3.9205
M16
G05
G00X4.9737Y-4.2606
M15
G01X5.017Y-4.2606
M16
G05
T0
M30
